<?xml version="1.0" encoding="utf-8" standalone="no"?>
<!DOCTYPE svg PUBLIC "-//W3C//DTD SVG 1.1//EN"
  "http://www.w3.org/Graphics/SVG/1.1/DTD/svg11.dtd">
<svg xmlns:xlink="http://www.w3.org/1999/xlink" width="864pt" height="360pt" viewBox="0 0 864 360" xmlns="http://www.w3.org/2000/svg" version="1.1">
 <metadata>
  <rdf:RDF xmlns:dc="http://purl.org/dc/elements/1.1/" xmlns:cc="http://creativecommons.org/ns#" xmlns:rdf="http://www.w3.org/1999/02/22-rdf-syntax-ns#">
   <cc:Work>
    <dc:type rdf:resource="http://purl.org/dc/dcmitype/StillImage"/>
    <dc:date>2024-09-04T08:12:28.968973</dc:date>
    <dc:format>image/svg+xml</dc:format>
    <dc:creator>
     <cc:Agent>
      <dc:title>Matplotlib v3.9.2, https://matplotlib.org/</dc:title>
     </cc:Agent>
    </dc:creator>
   </cc:Work>
  </rdf:RDF>
 </metadata>
 <defs>
  <style type="text/css">*{stroke-linejoin: round; stroke-linecap: butt}</style>
 </defs>
 <g id="figure_1">
  <g id="patch_1">
   <path d="M 0 360 
L 864 360 
L 864 0 
L 0 0 
L 0 360 
z
" style="fill: none; opacity: 0"/>
  </g>
  <g id="axes_1">
   <g id="patch_2">
    <path d="M 108 320.4 
L 777.6 320.4 
L 777.6 43.2 
L 108 43.2 
L 108 320.4 
z
" style="fill: none; opacity: 0"/>
   </g>
   <g id="matplotlib.axis_1">
    <g id="xtick_1">
     <g id="line2d_1">
      <path d="M 159.297843 320.4 
L 159.297843 43.2 
" clip-path="url(#pe884a96e7a)" style="fill: none; stroke-dasharray: 5.12,1.28,0.8,1.28; stroke-dashoffset: 0; stroke: #b0b0b0; stroke-width: 0.8"/>
     </g>
     <g id="line2d_2">
      <defs>
       <path id="m5919a45e67" d="M 0 0 
L 0 3.5 
" style="stroke: #a9a9a9; stroke-width: 0.8"/>
      </defs>
      <g>
       <use xlink:href="#m5919a45e67" x="159.297843" y="320.4" style="fill: #a9a9a9; stroke: #a9a9a9; stroke-width: 0.8"/>
      </g>
     </g>
     <g id="text_1">
      <!-- 2021-09 -->
      <g style="fill: #a9a9a9" transform="translate(138.406437 334.998438) scale(0.1 -0.1)">
       <defs>
        <path id="DejaVuSans-32" d="M 1228 531 
L 3431 531 
L 3431 0 
L 469 0 
L 469 531 
Q 828 903 1448 1529 
Q 2069 2156 2228 2338 
Q 2531 2678 2651 2914 
Q 2772 3150 2772 3378 
Q 2772 3750 2511 3984 
Q 2250 4219 1831 4219 
Q 1534 4219 1204 4116 
Q 875 4013 500 3803 
L 500 4441 
Q 881 4594 1212 4672 
Q 1544 4750 1819 4750 
Q 2544 4750 2975 4387 
Q 3406 4025 3406 3419 
Q 3406 3131 3298 2873 
Q 3191 2616 2906 2266 
Q 2828 2175 2409 1742 
Q 1991 1309 1228 531 
z
" transform="scale(0.015625)"/>
        <path id="DejaVuSans-30" d="M 2034 4250 
Q 1547 4250 1301 3770 
Q 1056 3291 1056 2328 
Q 1056 1369 1301 889 
Q 1547 409 2034 409 
Q 2525 409 2770 889 
Q 3016 1369 3016 2328 
Q 3016 3291 2770 3770 
Q 2525 4250 2034 4250 
z
M 2034 4750 
Q 2819 4750 3233 4129 
Q 3647 3509 3647 2328 
Q 3647 1150 3233 529 
Q 2819 -91 2034 -91 
Q 1250 -91 836 529 
Q 422 1150 422 2328 
Q 422 3509 836 4129 
Q 1250 4750 2034 4750 
z
" transform="scale(0.015625)"/>
        <path id="DejaVuSans-31" d="M 794 531 
L 1825 531 
L 1825 4091 
L 703 3866 
L 703 4441 
L 1819 4666 
L 2450 4666 
L 2450 531 
L 3481 531 
L 3481 0 
L 794 0 
L 794 531 
z
" transform="scale(0.015625)"/>
        <path id="DejaVuSans-2d" d="M 313 2009 
L 1997 2009 
L 1997 1497 
L 313 1497 
L 313 2009 
z
" transform="scale(0.015625)"/>
        <path id="DejaVuSans-39" d="M 703 97 
L 703 672 
Q 941 559 1184 500 
Q 1428 441 1663 441 
Q 2288 441 2617 861 
Q 2947 1281 2994 2138 
Q 2813 1869 2534 1725 
Q 2256 1581 1919 1581 
Q 1219 1581 811 2004 
Q 403 2428 403 3163 
Q 403 3881 828 4315 
Q 1253 4750 1959 4750 
Q 2769 4750 3195 4129 
Q 3622 3509 3622 2328 
Q 3622 1225 3098 567 
Q 2575 -91 1691 -91 
Q 1453 -91 1209 -44 
Q 966 3 703 97 
z
M 1959 2075 
Q 2384 2075 2632 2365 
Q 2881 2656 2881 3163 
Q 2881 3666 2632 3958 
Q 2384 4250 1959 4250 
Q 1534 4250 1286 3958 
Q 1038 3666 1038 3163 
Q 1038 2656 1286 2365 
Q 1534 2075 1959 2075 
z
" transform="scale(0.015625)"/>
       </defs>
       <use xlink:href="#DejaVuSans-32"/>
       <use xlink:href="#DejaVuSans-30" x="63.623047"/>
       <use xlink:href="#DejaVuSans-32" x="127.246094"/>
       <use xlink:href="#DejaVuSans-31" x="190.869141"/>
       <use xlink:href="#DejaVuSans-2d" x="254.492188"/>
       <use xlink:href="#DejaVuSans-30" x="290.576172"/>
       <use xlink:href="#DejaVuSans-39" x="354.199219"/>
      </g>
     </g>
    </g>
    <g id="xtick_2">
     <g id="line2d_3">
      <path d="M 224.55683 320.4 
L 224.55683 43.2 
" clip-path="url(#pe884a96e7a)" style="fill: none; stroke-dasharray: 5.12,1.28,0.8,1.28; stroke-dashoffset: 0; stroke: #b0b0b0; stroke-width: 0.8"/>
     </g>
     <g id="line2d_4">
      <g>
       <use xlink:href="#m5919a45e67" x="224.55683" y="320.4" style="fill: #a9a9a9; stroke: #a9a9a9; stroke-width: 0.8"/>
      </g>
     </g>
     <g id="text_2">
      <!-- 2022-01 -->
      <g style="fill: #a9a9a9" transform="translate(203.665424 334.998438) scale(0.1 -0.1)">
       <use xlink:href="#DejaVuSans-32"/>
       <use xlink:href="#DejaVuSans-30" x="63.623047"/>
       <use xlink:href="#DejaVuSans-32" x="127.246094"/>
       <use xlink:href="#DejaVuSans-32" x="190.869141"/>
       <use xlink:href="#DejaVuSans-2d" x="254.492188"/>
       <use xlink:href="#DejaVuSans-30" x="290.576172"/>
       <use xlink:href="#DejaVuSans-31" x="354.199219"/>
      </g>
     </g>
    </g>
    <g id="xtick_3">
     <g id="line2d_5">
      <path d="M 288.745998 320.4 
L 288.745998 43.2 
" clip-path="url(#pe884a96e7a)" style="fill: none; stroke-dasharray: 5.12,1.28,0.8,1.28; stroke-dashoffset: 0; stroke: #b0b0b0; stroke-width: 0.8"/>
     </g>
     <g id="line2d_6">
      <g>
       <use xlink:href="#m5919a45e67" x="288.745998" y="320.4" style="fill: #a9a9a9; stroke: #a9a9a9; stroke-width: 0.8"/>
      </g>
     </g>
     <g id="text_3">
      <!-- 2022-05 -->
      <g style="fill: #a9a9a9" transform="translate(267.854592 334.998438) scale(0.1 -0.1)">
       <defs>
        <path id="DejaVuSans-35" d="M 691 4666 
L 3169 4666 
L 3169 4134 
L 1269 4134 
L 1269 2991 
Q 1406 3038 1543 3061 
Q 1681 3084 1819 3084 
Q 2600 3084 3056 2656 
Q 3513 2228 3513 1497 
Q 3513 744 3044 326 
Q 2575 -91 1722 -91 
Q 1428 -91 1123 -41 
Q 819 9 494 109 
L 494 744 
Q 775 591 1075 516 
Q 1375 441 1709 441 
Q 2250 441 2565 725 
Q 2881 1009 2881 1497 
Q 2881 1984 2565 2268 
Q 2250 2553 1709 2553 
Q 1456 2553 1204 2497 
Q 953 2441 691 2322 
L 691 4666 
z
" transform="scale(0.015625)"/>
       </defs>
       <use xlink:href="#DejaVuSans-32"/>
       <use xlink:href="#DejaVuSans-30" x="63.623047"/>
       <use xlink:href="#DejaVuSans-32" x="127.246094"/>
       <use xlink:href="#DejaVuSans-32" x="190.869141"/>
       <use xlink:href="#DejaVuSans-2d" x="254.492188"/>
       <use xlink:href="#DejaVuSans-30" x="290.576172"/>
       <use xlink:href="#DejaVuSans-35" x="354.199219"/>
      </g>
     </g>
    </g>
    <g id="xtick_4">
     <g id="line2d_7">
      <path d="M 354.539895 320.4 
L 354.539895 43.2 
" clip-path="url(#pe884a96e7a)" style="fill: none; stroke-dasharray: 5.12,1.28,0.8,1.28; stroke-dashoffset: 0; stroke: #b0b0b0; stroke-width: 0.8"/>
     </g>
     <g id="line2d_8">
      <g>
       <use xlink:href="#m5919a45e67" x="354.539895" y="320.4" style="fill: #a9a9a9; stroke: #a9a9a9; stroke-width: 0.8"/>
      </g>
     </g>
     <g id="text_4">
      <!-- 2022-09 -->
      <g style="fill: #a9a9a9" transform="translate(333.648488 334.998438) scale(0.1 -0.1)">
       <use xlink:href="#DejaVuSans-32"/>
       <use xlink:href="#DejaVuSans-30" x="63.623047"/>
       <use xlink:href="#DejaVuSans-32" x="127.246094"/>
       <use xlink:href="#DejaVuSans-32" x="190.869141"/>
       <use xlink:href="#DejaVuSans-2d" x="254.492188"/>
       <use xlink:href="#DejaVuSans-30" x="290.576172"/>
       <use xlink:href="#DejaVuSans-39" x="354.199219"/>
      </g>
     </g>
    </g>
    <g id="xtick_5">
     <g id="line2d_9">
      <path d="M 419.798882 320.4 
L 419.798882 43.2 
" clip-path="url(#pe884a96e7a)" style="fill: none; stroke-dasharray: 5.12,1.28,0.8,1.28; stroke-dashoffset: 0; stroke: #b0b0b0; stroke-width: 0.8"/>
     </g>
     <g id="line2d_10">
      <g>
       <use xlink:href="#m5919a45e67" x="419.798882" y="320.4" style="fill: #a9a9a9; stroke: #a9a9a9; stroke-width: 0.8"/>
      </g>
     </g>
     <g id="text_5">
      <!-- 2023-01 -->
      <g style="fill: #a9a9a9" transform="translate(398.907475 334.998438) scale(0.1 -0.1)">
       <defs>
        <path id="DejaVuSans-33" d="M 2597 2516 
Q 3050 2419 3304 2112 
Q 3559 1806 3559 1356 
Q 3559 666 3084 287 
Q 2609 -91 1734 -91 
Q 1441 -91 1130 -33 
Q 819 25 488 141 
L 488 750 
Q 750 597 1062 519 
Q 1375 441 1716 441 
Q 2309 441 2620 675 
Q 2931 909 2931 1356 
Q 2931 1769 2642 2001 
Q 2353 2234 1838 2234 
L 1294 2234 
L 1294 2753 
L 1863 2753 
Q 2328 2753 2575 2939 
Q 2822 3125 2822 3475 
Q 2822 3834 2567 4026 
Q 2313 4219 1838 4219 
Q 1578 4219 1281 4162 
Q 984 4106 628 3988 
L 628 4550 
Q 988 4650 1302 4700 
Q 1616 4750 1894 4750 
Q 2613 4750 3031 4423 
Q 3450 4097 3450 3541 
Q 3450 3153 3228 2886 
Q 3006 2619 2597 2516 
z
" transform="scale(0.015625)"/>
       </defs>
       <use xlink:href="#DejaVuSans-32"/>
       <use xlink:href="#DejaVuSans-30" x="63.623047"/>
       <use xlink:href="#DejaVuSans-32" x="127.246094"/>
       <use xlink:href="#DejaVuSans-33" x="190.869141"/>
       <use xlink:href="#DejaVuSans-2d" x="254.492188"/>
       <use xlink:href="#DejaVuSans-30" x="290.576172"/>
       <use xlink:href="#DejaVuSans-31" x="354.199219"/>
      </g>
     </g>
    </g>
    <g id="xtick_6">
     <g id="line2d_11">
      <path d="M 483.988049 320.4 
L 483.988049 43.2 
" clip-path="url(#pe884a96e7a)" style="fill: none; stroke-dasharray: 5.12,1.28,0.8,1.28; stroke-dashoffset: 0; stroke: #b0b0b0; stroke-width: 0.8"/>
     </g>
     <g id="line2d_12">
      <g>
       <use xlink:href="#m5919a45e67" x="483.988049" y="320.4" style="fill: #a9a9a9; stroke: #a9a9a9; stroke-width: 0.8"/>
      </g>
     </g>
     <g id="text_6">
      <!-- 2023-05 -->
      <g style="fill: #a9a9a9" transform="translate(463.096643 334.998438) scale(0.1 -0.1)">
       <use xlink:href="#DejaVuSans-32"/>
       <use xlink:href="#DejaVuSans-30" x="63.623047"/>
       <use xlink:href="#DejaVuSans-32" x="127.246094"/>
       <use xlink:href="#DejaVuSans-33" x="190.869141"/>
       <use xlink:href="#DejaVuSans-2d" x="254.492188"/>
       <use xlink:href="#DejaVuSans-30" x="290.576172"/>
       <use xlink:href="#DejaVuSans-35" x="354.199219"/>
      </g>
     </g>
    </g>
    <g id="xtick_7">
     <g id="line2d_13">
      <path d="M 549.781946 320.4 
L 549.781946 43.2 
" clip-path="url(#pe884a96e7a)" style="fill: none; stroke-dasharray: 5.12,1.28,0.8,1.28; stroke-dashoffset: 0; stroke: #b0b0b0; stroke-width: 0.8"/>
     </g>
     <g id="line2d_14">
      <g>
       <use xlink:href="#m5919a45e67" x="549.781946" y="320.4" style="fill: #a9a9a9; stroke: #a9a9a9; stroke-width: 0.8"/>
      </g>
     </g>
     <g id="text_7">
      <!-- 2023-09 -->
      <g style="fill: #a9a9a9" transform="translate(528.89054 334.998438) scale(0.1 -0.1)">
       <use xlink:href="#DejaVuSans-32"/>
       <use xlink:href="#DejaVuSans-30" x="63.623047"/>
       <use xlink:href="#DejaVuSans-32" x="127.246094"/>
       <use xlink:href="#DejaVuSans-33" x="190.869141"/>
       <use xlink:href="#DejaVuSans-2d" x="254.492188"/>
       <use xlink:href="#DejaVuSans-30" x="290.576172"/>
       <use xlink:href="#DejaVuSans-39" x="354.199219"/>
      </g>
     </g>
    </g>
    <g id="xtick_8">
     <g id="line2d_15">
      <path d="M 615.040933 320.4 
L 615.040933 43.2 
" clip-path="url(#pe884a96e7a)" style="fill: none; stroke-dasharray: 5.12,1.28,0.8,1.28; stroke-dashoffset: 0; stroke: #b0b0b0; stroke-width: 0.8"/>
     </g>
     <g id="line2d_16">
      <g>
       <use xlink:href="#m5919a45e67" x="615.040933" y="320.4" style="fill: #a9a9a9; stroke: #a9a9a9; stroke-width: 0.8"/>
      </g>
     </g>
     <g id="text_8">
      <!-- 2024-01 -->
      <g style="fill: #a9a9a9" transform="translate(594.149527 334.998438) scale(0.1 -0.1)">
       <defs>
        <path id="DejaVuSans-34" d="M 2419 4116 
L 825 1625 
L 2419 1625 
L 2419 4116 
z
M 2253 4666 
L 3047 4666 
L 3047 1625 
L 3713 1625 
L 3713 1100 
L 3047 1100 
L 3047 0 
L 2419 0 
L 2419 1100 
L 313 1100 
L 313 1709 
L 2253 4666 
z
" transform="scale(0.015625)"/>
       </defs>
       <use xlink:href="#DejaVuSans-32"/>
       <use xlink:href="#DejaVuSans-30" x="63.623047"/>
       <use xlink:href="#DejaVuSans-32" x="127.246094"/>
       <use xlink:href="#DejaVuSans-34" x="190.869141"/>
       <use xlink:href="#DejaVuSans-2d" x="254.492188"/>
       <use xlink:href="#DejaVuSans-30" x="290.576172"/>
       <use xlink:href="#DejaVuSans-31" x="354.199219"/>
      </g>
     </g>
    </g>
    <g id="xtick_9">
     <g id="line2d_17">
      <path d="M 679.76501 320.4 
L 679.76501 43.2 
" clip-path="url(#pe884a96e7a)" style="fill: none; stroke-dasharray: 5.12,1.28,0.8,1.28; stroke-dashoffset: 0; stroke: #b0b0b0; stroke-width: 0.8"/>
     </g>
     <g id="line2d_18">
      <g>
       <use xlink:href="#m5919a45e67" x="679.76501" y="320.4" style="fill: #a9a9a9; stroke: #a9a9a9; stroke-width: 0.8"/>
      </g>
     </g>
     <g id="text_9">
      <!-- 2024-05 -->
      <g style="fill: #a9a9a9" transform="translate(658.873604 334.998438) scale(0.1 -0.1)">
       <use xlink:href="#DejaVuSans-32"/>
       <use xlink:href="#DejaVuSans-30" x="63.623047"/>
       <use xlink:href="#DejaVuSans-32" x="127.246094"/>
       <use xlink:href="#DejaVuSans-34" x="190.869141"/>
       <use xlink:href="#DejaVuSans-2d" x="254.492188"/>
       <use xlink:href="#DejaVuSans-30" x="290.576172"/>
       <use xlink:href="#DejaVuSans-35" x="354.199219"/>
      </g>
     </g>
    </g>
    <g id="xtick_10">
     <g id="line2d_19">
      <path d="M 745.558907 320.4 
L 745.558907 43.2 
" clip-path="url(#pe884a96e7a)" style="fill: none; stroke-dasharray: 5.12,1.28,0.8,1.28; stroke-dashoffset: 0; stroke: #b0b0b0; stroke-width: 0.8"/>
     </g>
     <g id="line2d_20">
      <g>
       <use xlink:href="#m5919a45e67" x="745.558907" y="320.4" style="fill: #a9a9a9; stroke: #a9a9a9; stroke-width: 0.8"/>
      </g>
     </g>
     <g id="text_10">
      <!-- 2024-09 -->
      <g style="fill: #a9a9a9" transform="translate(724.667501 334.998438) scale(0.1 -0.1)">
       <use xlink:href="#DejaVuSans-32"/>
       <use xlink:href="#DejaVuSans-30" x="63.623047"/>
       <use xlink:href="#DejaVuSans-32" x="127.246094"/>
       <use xlink:href="#DejaVuSans-34" x="190.869141"/>
       <use xlink:href="#DejaVuSans-2d" x="254.492188"/>
       <use xlink:href="#DejaVuSans-30" x="290.576172"/>
       <use xlink:href="#DejaVuSans-39" x="354.199219"/>
      </g>
     </g>
    </g>
   </g>
   <g id="matplotlib.axis_2">
    <g id="ytick_1">
     <g id="line2d_21">
      <path d="M 108 307.838107 
L 777.6 307.838107 
" clip-path="url(#pe884a96e7a)" style="fill: none; stroke-dasharray: 5.12,1.28,0.8,1.28; stroke-dashoffset: 0; stroke: #b0b0b0; stroke-width: 0.8"/>
     </g>
     <g id="line2d_22">
      <defs>
       <path id="mf9518975f5" d="M 0 0 
L -3.5 0 
" style="stroke: #a9a9a9; stroke-width: 0.8"/>
      </defs>
      <g>
       <use xlink:href="#mf9518975f5" x="108" y="307.838107" style="fill: #a9a9a9; stroke: #a9a9a9; stroke-width: 0.8"/>
      </g>
     </g>
     <g id="text_11">
      <!-- 0 -->
      <g style="fill: #a9a9a9" transform="translate(94.6375 311.637326) scale(0.1 -0.1)">
       <use xlink:href="#DejaVuSans-30"/>
      </g>
     </g>
    </g>
    <g id="ytick_2">
     <g id="line2d_23">
      <path d="M 108 277.352699 
L 777.6 277.352699 
" clip-path="url(#pe884a96e7a)" style="fill: none; stroke-dasharray: 5.12,1.28,0.8,1.28; stroke-dashoffset: 0; stroke: #b0b0b0; stroke-width: 0.8"/>
     </g>
     <g id="line2d_24">
      <g>
       <use xlink:href="#mf9518975f5" x="108" y="277.352699" style="fill: #a9a9a9; stroke: #a9a9a9; stroke-width: 0.8"/>
      </g>
     </g>
     <g id="text_12">
      <!-- 800 -->
      <g style="fill: #a9a9a9" transform="translate(81.9125 281.151918) scale(0.1 -0.1)">
       <defs>
        <path id="DejaVuSans-38" d="M 2034 2216 
Q 1584 2216 1326 1975 
Q 1069 1734 1069 1313 
Q 1069 891 1326 650 
Q 1584 409 2034 409 
Q 2484 409 2743 651 
Q 3003 894 3003 1313 
Q 3003 1734 2745 1975 
Q 2488 2216 2034 2216 
z
M 1403 2484 
Q 997 2584 770 2862 
Q 544 3141 544 3541 
Q 544 4100 942 4425 
Q 1341 4750 2034 4750 
Q 2731 4750 3128 4425 
Q 3525 4100 3525 3541 
Q 3525 3141 3298 2862 
Q 3072 2584 2669 2484 
Q 3125 2378 3379 2068 
Q 3634 1759 3634 1313 
Q 3634 634 3220 271 
Q 2806 -91 2034 -91 
Q 1263 -91 848 271 
Q 434 634 434 1313 
Q 434 1759 690 2068 
Q 947 2378 1403 2484 
z
M 1172 3481 
Q 1172 3119 1398 2916 
Q 1625 2713 2034 2713 
Q 2441 2713 2670 2916 
Q 2900 3119 2900 3481 
Q 2900 3844 2670 4047 
Q 2441 4250 2034 4250 
Q 1625 4250 1398 4047 
Q 1172 3844 1172 3481 
z
" transform="scale(0.015625)"/>
       </defs>
       <use xlink:href="#DejaVuSans-38"/>
       <use xlink:href="#DejaVuSans-30" x="63.623047"/>
       <use xlink:href="#DejaVuSans-30" x="127.246094"/>
      </g>
     </g>
    </g>
    <g id="ytick_3">
     <g id="line2d_25">
      <path d="M 108 246.867292 
L 777.6 246.867292 
" clip-path="url(#pe884a96e7a)" style="fill: none; stroke-dasharray: 5.12,1.28,0.8,1.28; stroke-dashoffset: 0; stroke: #b0b0b0; stroke-width: 0.8"/>
     </g>
     <g id="line2d_26">
      <g>
       <use xlink:href="#mf9518975f5" x="108" y="246.867292" style="fill: #a9a9a9; stroke: #a9a9a9; stroke-width: 0.8"/>
      </g>
     </g>
     <g id="text_13">
      <!-- 1600 -->
      <g style="fill: #a9a9a9" transform="translate(75.55 250.66651) scale(0.1 -0.1)">
       <defs>
        <path id="DejaVuSans-36" d="M 2113 2584 
Q 1688 2584 1439 2293 
Q 1191 2003 1191 1497 
Q 1191 994 1439 701 
Q 1688 409 2113 409 
Q 2538 409 2786 701 
Q 3034 994 3034 1497 
Q 3034 2003 2786 2293 
Q 2538 2584 2113 2584 
z
M 3366 4563 
L 3366 3988 
Q 3128 4100 2886 4159 
Q 2644 4219 2406 4219 
Q 1781 4219 1451 3797 
Q 1122 3375 1075 2522 
Q 1259 2794 1537 2939 
Q 1816 3084 2150 3084 
Q 2853 3084 3261 2657 
Q 3669 2231 3669 1497 
Q 3669 778 3244 343 
Q 2819 -91 2113 -91 
Q 1303 -91 875 529 
Q 447 1150 447 2328 
Q 447 3434 972 4092 
Q 1497 4750 2381 4750 
Q 2619 4750 2861 4703 
Q 3103 4656 3366 4563 
z
" transform="scale(0.015625)"/>
       </defs>
       <use xlink:href="#DejaVuSans-31"/>
       <use xlink:href="#DejaVuSans-36" x="63.623047"/>
       <use xlink:href="#DejaVuSans-30" x="127.246094"/>
       <use xlink:href="#DejaVuSans-30" x="190.869141"/>
      </g>
     </g>
    </g>
    <g id="ytick_4">
     <g id="line2d_27">
      <path d="M 108 216.381884 
L 777.6 216.381884 
" clip-path="url(#pe884a96e7a)" style="fill: none; stroke-dasharray: 5.12,1.28,0.8,1.28; stroke-dashoffset: 0; stroke: #b0b0b0; stroke-width: 0.8"/>
     </g>
     <g id="line2d_28">
      <g>
       <use xlink:href="#mf9518975f5" x="108" y="216.381884" style="fill: #a9a9a9; stroke: #a9a9a9; stroke-width: 0.8"/>
      </g>
     </g>
     <g id="text_14">
      <!-- 2400 -->
      <g style="fill: #a9a9a9" transform="translate(75.55 220.181103) scale(0.1 -0.1)">
       <use xlink:href="#DejaVuSans-32"/>
       <use xlink:href="#DejaVuSans-34" x="63.623047"/>
       <use xlink:href="#DejaVuSans-30" x="127.246094"/>
       <use xlink:href="#DejaVuSans-30" x="190.869141"/>
      </g>
     </g>
    </g>
    <g id="ytick_5">
     <g id="line2d_29">
      <path d="M 108 185.896477 
L 777.6 185.896477 
" clip-path="url(#pe884a96e7a)" style="fill: none; stroke-dasharray: 5.12,1.28,0.8,1.28; stroke-dashoffset: 0; stroke: #b0b0b0; stroke-width: 0.8"/>
     </g>
     <g id="line2d_30">
      <g>
       <use xlink:href="#mf9518975f5" x="108" y="185.896477" style="fill: #a9a9a9; stroke: #a9a9a9; stroke-width: 0.8"/>
      </g>
     </g>
     <g id="text_15">
      <!-- 3200 -->
      <g style="fill: #a9a9a9" transform="translate(75.55 189.695695) scale(0.1 -0.1)">
       <use xlink:href="#DejaVuSans-33"/>
       <use xlink:href="#DejaVuSans-32" x="63.623047"/>
       <use xlink:href="#DejaVuSans-30" x="127.246094"/>
       <use xlink:href="#DejaVuSans-30" x="190.869141"/>
      </g>
     </g>
    </g>
    <g id="ytick_6">
     <g id="line2d_31">
      <path d="M 108 155.411069 
L 777.6 155.411069 
" clip-path="url(#pe884a96e7a)" style="fill: none; stroke-dasharray: 5.12,1.28,0.8,1.28; stroke-dashoffset: 0; stroke: #b0b0b0; stroke-width: 0.8"/>
     </g>
     <g id="line2d_32">
      <g>
       <use xlink:href="#mf9518975f5" x="108" y="155.411069" style="fill: #a9a9a9; stroke: #a9a9a9; stroke-width: 0.8"/>
      </g>
     </g>
     <g id="text_16">
      <!-- 4000 -->
      <g style="fill: #a9a9a9" transform="translate(75.55 159.210288) scale(0.1 -0.1)">
       <use xlink:href="#DejaVuSans-34"/>
       <use xlink:href="#DejaVuSans-30" x="63.623047"/>
       <use xlink:href="#DejaVuSans-30" x="127.246094"/>
       <use xlink:href="#DejaVuSans-30" x="190.869141"/>
      </g>
     </g>
    </g>
    <g id="ytick_7">
     <g id="line2d_33">
      <path d="M 108 124.925662 
L 777.6 124.925662 
" clip-path="url(#pe884a96e7a)" style="fill: none; stroke-dasharray: 5.12,1.28,0.8,1.28; stroke-dashoffset: 0; stroke: #b0b0b0; stroke-width: 0.8"/>
     </g>
     <g id="line2d_34">
      <g>
       <use xlink:href="#mf9518975f5" x="108" y="124.925662" style="fill: #a9a9a9; stroke: #a9a9a9; stroke-width: 0.8"/>
      </g>
     </g>
     <g id="text_17">
      <!-- 4800 -->
      <g style="fill: #a9a9a9" transform="translate(75.55 128.72488) scale(0.1 -0.1)">
       <use xlink:href="#DejaVuSans-34"/>
       <use xlink:href="#DejaVuSans-38" x="63.623047"/>
       <use xlink:href="#DejaVuSans-30" x="127.246094"/>
       <use xlink:href="#DejaVuSans-30" x="190.869141"/>
      </g>
     </g>
    </g>
    <g id="ytick_8">
     <g id="line2d_35">
      <path d="M 108 94.440254 
L 777.6 94.440254 
" clip-path="url(#pe884a96e7a)" style="fill: none; stroke-dasharray: 5.12,1.28,0.8,1.28; stroke-dashoffset: 0; stroke: #b0b0b0; stroke-width: 0.8"/>
     </g>
     <g id="line2d_36">
      <g>
       <use xlink:href="#mf9518975f5" x="108" y="94.440254" style="fill: #a9a9a9; stroke: #a9a9a9; stroke-width: 0.8"/>
      </g>
     </g>
     <g id="text_18">
      <!-- 5600 -->
      <g style="fill: #a9a9a9" transform="translate(75.55 98.239473) scale(0.1 -0.1)">
       <use xlink:href="#DejaVuSans-35"/>
       <use xlink:href="#DejaVuSans-36" x="63.623047"/>
       <use xlink:href="#DejaVuSans-30" x="127.246094"/>
       <use xlink:href="#DejaVuSans-30" x="190.869141"/>
      </g>
     </g>
    </g>
    <g id="ytick_9">
     <g id="line2d_37">
      <path d="M 108 63.954847 
L 777.6 63.954847 
" clip-path="url(#pe884a96e7a)" style="fill: none; stroke-dasharray: 5.12,1.28,0.8,1.28; stroke-dashoffset: 0; stroke: #b0b0b0; stroke-width: 0.8"/>
     </g>
     <g id="line2d_38">
      <g>
       <use xlink:href="#mf9518975f5" x="108" y="63.954847" style="fill: #a9a9a9; stroke: #a9a9a9; stroke-width: 0.8"/>
      </g>
     </g>
     <g id="text_19">
      <!-- 6400 -->
      <g style="fill: #a9a9a9" transform="translate(75.55 67.754065) scale(0.1 -0.1)">
       <use xlink:href="#DejaVuSans-36"/>
       <use xlink:href="#DejaVuSans-34" x="63.623047"/>
       <use xlink:href="#DejaVuSans-30" x="127.246094"/>
       <use xlink:href="#DejaVuSans-30" x="190.869141"/>
      </g>
     </g>
    </g>
   </g>
   <g id="line2d_39">
    <path d="M 138.436364 307.723786 
L 141.645822 307.457039 
L 142.180732 307.228399 
L 143.785461 307.075972 
L 146.994919 306.428157 
L 150.204378 306.161409 
L 151.274197 305.742235 
L 151.809107 305.056313 
L 152.344017 304.675246 
L 152.878926 303.493936 
L 153.413836 303.417723 
L 153.948746 302.998548 
L 155.018565 302.465054 
L 157.158204 300.788356 
L 159.297843 299.759474 
L 160.902572 299.035445 
L 161.437482 298.197097 
L 162.507301 297.434961 
L 163.042211 297.206321 
L 168.391309 296.444186 
L 168.926218 296.177438 
L 172.670586 295.872584 
L 174.810225 295.377196 
L 179.089503 294.805595 
L 179.624413 294.500741 
L 180.159323 294.424527 
L 181.229142 294.081567 
L 184.97351 293.471858 
L 186.04333 293.167004 
L 187.648059 293.014577 
L 188.717878 292.900257 
L 191.392427 292.214335 
L 192.462246 292.138122 
L 193.532066 291.985695 
L 194.601885 291.757054 
L 195.136795 291.604627 
L 195.671705 290.880599 
L 197.276434 290.270891 
L 198.881163 289.851716 
L 199.416073 289.584969 
L 199.950983 289.546862 
L 202.625531 288.784727 
L 203.695351 288.708514 
L 204.23026 288.6323 
L 205.83499 288.136912 
L 207.974629 287.603418 
L 208.509538 287.374777 
L 209.044448 287.298563 
L 209.579358 287.031816 
L 214.928455 286.231574 
L 217.603004 285.469439 
L 218.137913 285.126478 
L 220.812462 284.250023 
L 221.882282 283.525994 
L 223.487011 283.22114 
L 233.650296 280.28692 
L 234.720115 279.867745 
L 235.789934 279.791532 
L 237.394664 279.334251 
L 237.929573 279.334251 
L 238.464483 279.10561 
L 239.534303 278.99129 
L 240.069212 278.800756 
L 241.139032 278.762649 
L 243.278671 278.495902 
L 244.34849 277.962407 
L 250.767407 275.1044 
L 251.302317 274.532799 
L 252.372136 272.932315 
L 252.907046 272.779888 
L 253.441956 272.779888 
L 254.511775 271.979646 
L 256.116504 271.446152 
L 256.651414 270.950764 
L 257.721233 270.531589 
L 258.791053 270.036201 
L 259.860872 268.511931 
L 260.395782 268.16897 
L 260.930692 267.254408 
L 261.465602 266.682807 
L 264.67506 265.006109 
L 265.744879 264.16776 
L 266.279789 263.8248 
L 266.814699 263.024558 
L 267.349609 261.843248 
L 267.884518 261.043006 
L 268.419428 260.623832 
L 268.954338 260.395191 
L 270.559067 258.985241 
L 272.698706 257.23233 
L 273.233616 256.508302 
L 274.303435 255.555633 
L 276.443074 254.145683 
L 276.977984 253.688402 
L 277.512893 253.574081 
L 278.582713 253.00248 
L 280.722352 251.897384 
L 281.792171 250.868501 
L 282.327081 250.220687 
L 283.3969 249.458551 
L 284.46672 249.039377 
L 285.536539 248.315349 
L 286.071449 248.010494 
L 286.606359 247.934281 
L 290.350727 245.609769 
L 292.490366 244.466566 
L 293.025276 243.971178 
L 301.583831 240.998851 
L 302.653651 240.046182 
L 303.72347 239.550794 
L 304.79329 238.979192 
L 305.328199 238.674338 
L 306.398019 238.369484 
L 306.932929 238.026524 
L 307.467838 237.874096 
L 309.072568 236.845214 
L 311.747116 236.235506 
L 313.351845 235.320944 
L 313.886755 235.24473 
L 314.956575 234.977983 
L 315.491484 234.825556 
L 317.096213 233.606139 
L 318.700943 233.225072 
L 319.235852 233.034538 
L 319.770762 232.615364 
L 322.98022 231.548374 
L 323.51513 231.510268 
L 324.58495 231.091093 
L 328.864228 229.566823 
L 329.934047 229.414396 
L 331.538776 228.880901 
L 334.213325 227.623378 
L 336.352964 226.480175 
L 340.632242 224.765371 
L 341.167151 224.689158 
L 342.236971 224.041343 
L 342.77188 223.965129 
L 344.911519 223.088674 
L 347.051158 222.78382 
L 348.120978 222.250325 
L 348.655888 221.793044 
L 349.190797 220.840375 
L 350.795526 220.535521 
L 352.935165 219.468532 
L 353.470075 219.354211 
L 357.749353 217.334553 
L 359.354082 216.991592 
L 360.423902 216.458098 
L 360.958811 216.229457 
L 361.493721 216.153244 
L 363.63336 215.200575 
L 365.238089 214.209799 
L 365.772999 214.133585 
L 366.307909 213.943052 
L 366.842818 213.904945 
L 369.517367 213.25713 
L 370.052277 212.837956 
L 370.587186 212.723635 
L 372.191916 212.113927 
L 372.726825 211.9615 
L 373.261735 211.618539 
L 373.796645 211.466112 
L 374.331555 211.085045 
L 374.866464 210.894511 
L 375.936284 210.322909 
L 378.610832 209.446454 
L 380.215562 208.188931 
L 380.750471 208.074611 
L 381.820291 207.236262 
L 382.355201 207.160048 
L 382.89011 206.3217 
L 383.42502 206.093059 
L 383.95993 205.673885 
L 384.494839 205.597671 
L 385.564659 204.949856 
L 386.099569 204.835536 
L 386.634478 204.606896 
L 387.169388 204.187721 
L 387.704298 203.997187 
L 389.309027 202.892091 
L 391.448666 201.786995 
L 391.983576 201.710782 
L 393.588305 200.91054 
L 394.123215 200.034084 
L 394.658124 199.576803 
L 395.193034 199.271949 
L 395.727944 199.157629 
L 396.797763 198.471707 
L 397.332673 198.357387 
L 398.402492 197.823892 
L 400.007222 197.137971 
L 401.077041 196.375835 
L 402.68177 194.927779 
L 403.75159 194.31807 
L 404.286499 193.746469 
L 406.426138 192.298412 
L 406.961048 191.688704 
L 407.495958 191.26953 
L 408.565777 190.888462 
L 409.635597 190.164434 
L 411.240326 189.364192 
L 411.775236 189.287978 
L 413.379965 188.411523 
L 414.449784 187.763708 
L 419.798882 185.85837 
L 420.333791 185.439196 
L 422.47343 184.638954 
L 423.00834 184.486527 
L 423.54325 184.067352 
L 426.217798 182.619295 
L 427.287618 180.523424 
L 428.357437 179.304007 
L 429.427257 178.656192 
L 431.031986 178.008377 
L 431.566896 177.932164 
L 432.101805 177.62731 
L 434.776354 176.788961 
L 435.311264 176.560321 
L 436.381083 175.836292 
L 437.985812 175.15037 
L 439.055632 174.578769 
L 439.590542 174.197701 
L 440.125451 173.969061 
L 440.660361 173.587993 
L 441.195271 173.016392 
L 442.26509 172.444791 
L 444.939639 171.03484 
L 448.149097 169.472463 
L 448.684007 169.358143 
L 450.288736 168.786542 
L 451.358556 168.367367 
L 451.893465 167.9863 
L 452.963285 167.681446 
L 454.033104 167.262271 
L 454.568014 166.843097 
L 455.637834 166.500136 
L 458.847292 164.861545 
L 459.917111 164.023197 
L 460.986931 163.642129 
L 461.521841 163.184848 
L 462.05675 163.108635 
L 463.12657 162.308393 
L 464.196389 161.774898 
L 464.731299 161.546257 
L 465.266209 161.012763 
L 469.010577 159.564706 
L 470.080396 159.107425 
L 471.685125 158.612037 
L 472.754945 158.45961 
L 473.289855 158.230969 
L 473.824764 158.154756 
L 474.894584 157.697475 
L 475.429494 157.659368 
L 477.569132 156.859126 
L 479.173862 155.75403 
L 481.84841 154.496507 
L 484.522959 153.04845 
L 485.057869 152.93413 
L 486.662598 152.019568 
L 488.267327 151.486073 
L 489.337147 151.143112 
L 491.476785 150.45719 
L 492.546605 150.11423 
L 494.151334 149.847482 
L 496.290973 149.161561 
L 496.825883 148.93292 
L 497.360792 148.856706 
L 497.895702 148.589959 
L 498.965522 148.399425 
L 500.570251 147.827824 
L 501.64007 147.713504 
L 503.244799 147.370543 
L 504.314619 147.180009 
L 505.384438 146.989475 
L 506.454258 146.760835 
L 506.989168 146.646514 
L 507.524077 146.417874 
L 508.058987 146.379767 
L 510.733536 145.503312 
L 511.268445 145.312778 
L 511.803355 145.312778 
L 517.687362 143.597974 
L 518.222272 143.331226 
L 518.757182 143.331226 
L 519.827001 142.950159 
L 520.361911 142.416664 
L 521.43173 141.99749 
L 524.641189 140.854287 
L 525.176098 140.511326 
L 525.711008 140.397006 
L 526.245918 140.092152 
L 527.315737 139.901618 
L 528.385557 139.482444 
L 528.920467 139.368123 
L 529.455376 139.025163 
L 529.990286 138.910842 
L 530.525196 138.453561 
L 532.129925 138.148707 
L 533.199744 137.653319 
L 533.734654 137.081718 
L 535.874293 136.58633 
L 539.618661 135.824195 
L 540.153571 135.824195 
L 540.688481 135.595554 
L 542.82812 135.214487 
L 543.363029 134.985846 
L 545.502668 134.604778 
L 546.572488 134.147497 
L 547.107397 134.109391 
L 556.200863 131.403811 
L 556.735772 131.17517 
L 557.270682 130.794103 
L 558.340502 130.489248 
L 559.410321 130.146288 
L 560.480141 129.727113 
L 562.08487 129.003085 
L 563.689599 128.888765 
L 565.829238 128.279056 
L 566.364148 127.936096 
L 567.433967 127.631241 
L 570.108516 126.449932 
L 570.643425 126.411825 
L 576.527432 124.392167 
L 578.667071 123.858672 
L 579.736891 123.439498 
L 580.271801 123.210857 
L 581.34162 122.982217 
L 581.87653 122.867897 
L 582.41144 122.448722 
L 582.946349 122.181975 
L 583.481259 121.53416 
L 584.016169 121.153092 
L 585.085988 120.848238 
L 585.620898 120.429064 
L 588.295447 119.323968 
L 588.830356 119.209648 
L 589.365266 118.866687 
L 590.435085 118.561833 
L 590.969995 118.218872 
L 593.644544 117.342416 
L 595.249273 116.427854 
L 595.784183 116.313534 
L 596.854002 115.703826 
L 597.388912 115.475185 
L 598.458731 114.82737 
L 600.063461 114.065235 
L 600.59837 113.684168 
L 601.66819 113.341207 
L 602.738009 112.731499 
L 603.272919 112.540965 
L 603.807829 112.159897 
L 610.761655 109.759171 
L 611.296565 109.644851 
L 611.831475 109.30189 
L 612.366384 109.225677 
L 613.436204 108.958929 
L 614.506023 108.730289 
L 618.250391 106.901164 
L 618.785301 106.824951 
L 620.39003 105.948495 
L 623.599489 104.690972 
L 625.739128 103.852624 
L 626.274037 103.700197 
L 626.808947 103.357236 
L 627.878767 103.204809 
L 628.413676 102.861848 
L 628.948586 102.823741 
L 630.018405 102.48078 
L 631.088225 101.947286 
L 631.623135 101.871072 
L 634.297683 100.804083 
L 634.832593 100.689763 
L 635.902413 100.346802 
L 636.972232 100.080054 
L 638.042051 99.813307 
L 639.646781 99.203599 
L 641.78642 98.022289 
L 642.856239 97.603115 
L 643.391149 97.260154 
L 644.460968 97.031514 
L 644.995878 96.72666 
L 645.530788 96.612339 
L 647.135517 95.773991 
L 648.205336 95.354816 
L 649.810066 94.630788 
L 651.414795 94.211613 
L 654.624253 92.95409 
L 656.228982 92.420596 
L 664.252628 88.990987 
L 664.787538 88.914774 
L 666.927177 88.076425 
L 668.531906 87.19997 
L 669.066816 87.085649 
L 670.136635 86.666475 
L 670.671545 86.666475 
L 671.741364 86.209194 
L 672.811184 85.256525 
L 673.346094 84.799244 
L 674.950823 84.037109 
L 675.485733 83.922788 
L 676.020642 83.656041 
L 676.555552 83.579828 
L 677.090462 83.19876 
L 677.625371 83.08444 
L 678.695191 82.436625 
L 680.29992 81.636383 
L 681.36974 81.217209 
L 681.904649 80.950461 
L 683.509378 80.569394 
L 686.183927 79.692938 
L 686.718837 79.578618 
L 688.858476 78.549735 
L 689.928295 78.054347 
L 690.998115 77.7876 
L 694.742483 76.034689 
L 697.417031 75.08202 
L 699.021761 74.129351 
L 699.55667 74.015031 
L 700.62649 73.481536 
L 701.696309 73.100469 
L 702.231219 72.643188 
L 702.766129 72.338334 
L 704.370858 71.842946 
L 705.440677 71.118917 
L 705.975587 71.080811 
L 707.045407 70.775956 
L 707.580316 70.661636 
L 709.719955 69.861394 
L 711.324684 69.366006 
L 711.859594 69.289793 
L 712.929414 68.718191 
L 713.464323 68.527658 
L 713.999233 68.108483 
L 715.603962 67.689309 
L 716.138872 67.384455 
L 717.208691 67.117708 
L 718.813421 66.241252 
L 719.34833 66.203145 
L 720.95306 65.707757 
L 722.022879 65.593437 
L 723.092699 65.174263 
L 726.302157 64.259701 
L 727.371976 64.221594 
L 730.581435 63.192711 
L 731.116344 63.116498 
L 732.721074 62.278149 
L 733.255983 61.820868 
L 733.790893 61.554121 
L 735.395622 60.372811 
L 737.000351 59.686889 
L 738.070171 59.382035 
L 738.605081 59.077181 
L 739.13999 58.962861 
L 739.6749 58.543687 
L 741.279629 57.819658 
L 741.814539 57.705338 
L 742.884359 57.20995 
L 744.489088 56.790776 
L 746.093817 56.104854 
L 746.628727 55.8 
L 747.163636 55.8 
L 747.163636 55.8 
" clip-path="url(#pe884a96e7a)" style="fill: none; stroke: #1f77b4; stroke-width: 1.5; stroke-linecap: square"/>
   </g>
   <g id="line2d_40">
    <path d="M 138.971273 307.8 
L 140.576003 307.723786 
L 142.180732 307.68568 
L 145.39019 307.609466 
L 148.064739 307.495146 
L 150.204378 307.495146 
L 150.739287 307.342719 
L 152.878926 307.266505 
L 154.483656 307.075972 
L 156.088385 306.923545 
L 159.297843 306.771117 
L 159.832753 306.771117 
L 160.367663 306.656797 
L 162.507301 306.580584 
L 163.577121 306.50437 
L 167.856399 306.428157 
L 170.530947 306.313836 
L 176.949864 306.237623 
L 179.624413 306.123303 
L 182.833871 306.047089 
L 184.97351 305.970876 
L 189.787698 305.894662 
L 191.392427 305.856555 
L 192.997156 305.818449 
L 194.601885 305.627915 
L 197.811344 305.589808 
L 198.881163 305.513594 
L 202.625531 305.437381 
L 208.509538 305.09442 
L 212.253906 305.018207 
L 213.323726 304.941993 
L 214.928455 304.86578 
L 218.137913 304.713352 
L 220.277552 304.675246 
L 221.882282 304.522819 
L 228.836108 304.103644 
L 231.510657 304.027431 
L 236.324844 303.760684 
L 237.929573 303.68447 
L 243.278671 303.379616 
L 249.162678 303.303402 
L 251.302317 303.074762 
L 252.372136 302.998548 
L 259.325963 302.426947 
L 262.535421 302.007773 
L 264.67506 301.931559 
L 268.954338 301.359958 
L 272.163796 301.283744 
L 273.768525 301.131317 
L 274.838345 301.09321 
L 275.908164 300.97889 
L 277.512893 300.902677 
L 278.582713 300.75025 
L 281.257262 300.445395 
L 283.3969 300.369182 
L 284.46672 300.292968 
L 286.606359 300.216755 
L 287.676178 300.140541 
L 290.350727 299.873794 
L 291.420546 299.68326 
L 293.025276 299.645153 
L 294.095095 299.56894 
L 296.769644 299.492726 
L 303.72347 299.073552 
L 305.328199 298.997339 
L 312.282026 298.578164 
L 316.026394 298.501951 
L 316.561304 298.38763 
L 320.840582 298.311417 
L 324.58495 298.120883 
L 330.468957 298.04467 
L 334.213325 297.854136 
L 338.492603 297.777922 
L 342.77188 297.549282 
L 346.516249 297.473068 
L 356.679533 296.825253 
L 362.028631 296.74904 
L 364.16827 296.520399 
L 365.772999 296.482292 
L 367.377728 296.444186 
L 369.517367 296.215545 
L 374.866464 295.910691 
L 378.075923 295.834478 
L 379.680652 295.796371 
L 381.285381 295.758264 
L 382.89011 295.605837 
L 387.169388 295.529623 
L 388.239208 295.377196 
L 389.309027 295.300983 
L 391.983576 295.186663 
L 393.053395 295.110449 
L 394.123215 295.034236 
L 398.937402 294.958022 
L 400.007222 294.843702 
L 402.146861 294.805595 
L 402.68177 294.691275 
L 403.75159 294.615061 
L 404.286499 294.500741 
L 405.891229 294.424527 
L 410.705416 294.15778 
L 411.775236 294.119673 
L 413.379965 293.967246 
L 414.984694 293.92914 
L 416.589423 293.852926 
L 419.263972 293.738606 
L 426.752708 293.662392 
L 430.497076 293.471858 
L 434.776354 293.395645 
L 436.915993 293.319431 
L 439.055632 293.281325 
L 440.125451 293.167004 
L 442.26509 293.090791 
L 447.614188 292.785937 
L 450.823646 292.74783 
L 452.428375 292.595403 
L 454.033104 292.557296 
L 457.777472 292.481083 
L 459.917111 292.404869 
L 466.336028 292.328656 
L 469.010577 292.214335 
L 472.220035 292.138122 
L 473.824764 291.947588 
L 477.034223 291.909481 
L 478.638952 291.757054 
L 480.778591 291.680841 
L 487.197508 291.604627 
L 489.872056 291.490307 
L 498.965522 291.4522 
L 500.035341 291.375987 
L 501.64007 291.33788 
L 508.593897 291.261666 
L 509.663716 291.185453 
L 515.547723 291.109239 
L 517.687362 291.033026 
L 527.850647 290.956812 
L 529.455376 290.918706 
L 534.269564 290.842492 
L 535.339383 290.766279 
L 548.177217 290.690065 
L 549.781946 290.651958 
L 564.224509 290.575745 
L 565.829238 290.537638 
L 575.457613 290.461424 
L 576.527432 290.385211 
L 579.201981 290.308997 
L 580.80671 290.15657 
L 583.481259 290.080357 
L 586.690717 289.92793 
L 590.969995 289.851716 
L 592.039815 289.775503 
L 596.319093 289.699289 
L 599.528551 289.546862 
L 602.2031 289.470649 
L 606.482377 289.242008 
L 609.691836 289.165795 
L 611.831475 289.089581 
L 618.785301 289.013368 
L 620.92494 288.937154 
L 625.204218 288.860941 
L 628.948586 288.670407 
L 633.762774 288.594193 
L 634.832593 288.51798 
L 644.460968 288.441766 
L 646.065697 288.403659 
L 648.740246 288.365553 
L 650.879885 288.136912 
L 652.484614 288.098805 
L 655.694073 288.022592 
L 661.04317 287.717738 
L 663.717718 287.641524 
L 665.857357 287.565311 
L 671.741364 287.489097 
L 674.415913 287.184243 
L 676.555552 287.10803 
L 680.29992 287.031816 
L 680.83483 286.917496 
L 685.649017 286.841282 
L 688.323566 286.726962 
L 695.277393 286.688855 
L 695.812302 286.574535 
L 700.09158 286.498321 
L 701.696309 286.460215 
L 704.370858 286.384001 
L 705.975587 286.345894 
L 715.069053 286.269681 
L 717.743601 286.155361 
L 725.232337 286.079147 
L 727.371976 286.002934 
L 733.255983 285.92672 
L 733.790893 285.8124 
L 739.13999 285.774293 
L 740.20981 285.69808 
L 742.884359 285.621866 
L 744.489088 285.583759 
L 747.163636 285.545653 
L 747.163636 285.545653 
" clip-path="url(#pe884a96e7a)" style="fill: none; stroke: #ff7f0e; stroke-width: 1.5; stroke-linecap: square"/>
   </g>
   <g id="patch_3">
    <path d="M 108 320.4 
L 108 43.2 
" style="fill: none; stroke: #a9a9a9; stroke-width: 0.8; stroke-linejoin: miter; stroke-linecap: square"/>
   </g>
   <g id="patch_4">
    <path d="M 777.6 320.4 
L 777.6 43.2 
" style="fill: none"/>
   </g>
   <g id="patch_5">
    <path d="M 108 320.4 
L 777.6 320.4 
" style="fill: none; stroke: #a9a9a9; stroke-width: 0.8; stroke-linejoin: miter; stroke-linecap: square"/>
   </g>
   <g id="patch_6">
    <path d="M 108 43.2 
L 777.6 43.2 
" style="fill: none"/>
   </g>
   <g id="text_20">
    <!-- get_subscribe history -->
    <g style="fill: #a9a9a9" transform="translate(378.6075 37.2) scale(0.12 -0.12)">
     <defs>
      <path id="DejaVuSans-67" d="M 2906 1791 
Q 2906 2416 2648 2759 
Q 2391 3103 1925 3103 
Q 1463 3103 1205 2759 
Q 947 2416 947 1791 
Q 947 1169 1205 825 
Q 1463 481 1925 481 
Q 2391 481 2648 825 
Q 2906 1169 2906 1791 
z
M 3481 434 
Q 3481 -459 3084 -895 
Q 2688 -1331 1869 -1331 
Q 1566 -1331 1297 -1286 
Q 1028 -1241 775 -1147 
L 775 -588 
Q 1028 -725 1275 -790 
Q 1522 -856 1778 -856 
Q 2344 -856 2625 -561 
Q 2906 -266 2906 331 
L 2906 616 
Q 2728 306 2450 153 
Q 2172 0 1784 0 
Q 1141 0 747 490 
Q 353 981 353 1791 
Q 353 2603 747 3093 
Q 1141 3584 1784 3584 
Q 2172 3584 2450 3431 
Q 2728 3278 2906 2969 
L 2906 3500 
L 3481 3500 
L 3481 434 
z
" transform="scale(0.015625)"/>
      <path id="DejaVuSans-65" d="M 3597 1894 
L 3597 1613 
L 953 1613 
Q 991 1019 1311 708 
Q 1631 397 2203 397 
Q 2534 397 2845 478 
Q 3156 559 3463 722 
L 3463 178 
Q 3153 47 2828 -22 
Q 2503 -91 2169 -91 
Q 1331 -91 842 396 
Q 353 884 353 1716 
Q 353 2575 817 3079 
Q 1281 3584 2069 3584 
Q 2775 3584 3186 3129 
Q 3597 2675 3597 1894 
z
M 3022 2063 
Q 3016 2534 2758 2815 
Q 2500 3097 2075 3097 
Q 1594 3097 1305 2825 
Q 1016 2553 972 2059 
L 3022 2063 
z
" transform="scale(0.015625)"/>
      <path id="DejaVuSans-74" d="M 1172 4494 
L 1172 3500 
L 2356 3500 
L 2356 3053 
L 1172 3053 
L 1172 1153 
Q 1172 725 1289 603 
Q 1406 481 1766 481 
L 2356 481 
L 2356 0 
L 1766 0 
Q 1100 0 847 248 
Q 594 497 594 1153 
L 594 3053 
L 172 3053 
L 172 3500 
L 594 3500 
L 594 4494 
L 1172 4494 
z
" transform="scale(0.015625)"/>
      <path id="DejaVuSans-5f" d="M 3263 -1063 
L 3263 -1509 
L -63 -1509 
L -63 -1063 
L 3263 -1063 
z
" transform="scale(0.015625)"/>
      <path id="DejaVuSans-73" d="M 2834 3397 
L 2834 2853 
Q 2591 2978 2328 3040 
Q 2066 3103 1784 3103 
Q 1356 3103 1142 2972 
Q 928 2841 928 2578 
Q 928 2378 1081 2264 
Q 1234 2150 1697 2047 
L 1894 2003 
Q 2506 1872 2764 1633 
Q 3022 1394 3022 966 
Q 3022 478 2636 193 
Q 2250 -91 1575 -91 
Q 1294 -91 989 -36 
Q 684 19 347 128 
L 347 722 
Q 666 556 975 473 
Q 1284 391 1588 391 
Q 1994 391 2212 530 
Q 2431 669 2431 922 
Q 2431 1156 2273 1281 
Q 2116 1406 1581 1522 
L 1381 1569 
Q 847 1681 609 1914 
Q 372 2147 372 2553 
Q 372 3047 722 3315 
Q 1072 3584 1716 3584 
Q 2034 3584 2315 3537 
Q 2597 3491 2834 3397 
z
" transform="scale(0.015625)"/>
      <path id="DejaVuSans-75" d="M 544 1381 
L 544 3500 
L 1119 3500 
L 1119 1403 
Q 1119 906 1312 657 
Q 1506 409 1894 409 
Q 2359 409 2629 706 
Q 2900 1003 2900 1516 
L 2900 3500 
L 3475 3500 
L 3475 0 
L 2900 0 
L 2900 538 
Q 2691 219 2414 64 
Q 2138 -91 1772 -91 
Q 1169 -91 856 284 
Q 544 659 544 1381 
z
M 1991 3584 
L 1991 3584 
z
" transform="scale(0.015625)"/>
      <path id="DejaVuSans-62" d="M 3116 1747 
Q 3116 2381 2855 2742 
Q 2594 3103 2138 3103 
Q 1681 3103 1420 2742 
Q 1159 2381 1159 1747 
Q 1159 1113 1420 752 
Q 1681 391 2138 391 
Q 2594 391 2855 752 
Q 3116 1113 3116 1747 
z
M 1159 2969 
Q 1341 3281 1617 3432 
Q 1894 3584 2278 3584 
Q 2916 3584 3314 3078 
Q 3713 2572 3713 1747 
Q 3713 922 3314 415 
Q 2916 -91 2278 -91 
Q 1894 -91 1617 61 
Q 1341 213 1159 525 
L 1159 0 
L 581 0 
L 581 4863 
L 1159 4863 
L 1159 2969 
z
" transform="scale(0.015625)"/>
      <path id="DejaVuSans-63" d="M 3122 3366 
L 3122 2828 
Q 2878 2963 2633 3030 
Q 2388 3097 2138 3097 
Q 1578 3097 1268 2742 
Q 959 2388 959 1747 
Q 959 1106 1268 751 
Q 1578 397 2138 397 
Q 2388 397 2633 464 
Q 2878 531 3122 666 
L 3122 134 
Q 2881 22 2623 -34 
Q 2366 -91 2075 -91 
Q 1284 -91 818 406 
Q 353 903 353 1747 
Q 353 2603 823 3093 
Q 1294 3584 2113 3584 
Q 2378 3584 2631 3529 
Q 2884 3475 3122 3366 
z
" transform="scale(0.015625)"/>
      <path id="DejaVuSans-72" d="M 2631 2963 
Q 2534 3019 2420 3045 
Q 2306 3072 2169 3072 
Q 1681 3072 1420 2755 
Q 1159 2438 1159 1844 
L 1159 0 
L 581 0 
L 581 3500 
L 1159 3500 
L 1159 2956 
Q 1341 3275 1631 3429 
Q 1922 3584 2338 3584 
Q 2397 3584 2469 3576 
Q 2541 3569 2628 3553 
L 2631 2963 
z
" transform="scale(0.015625)"/>
      <path id="DejaVuSans-69" d="M 603 3500 
L 1178 3500 
L 1178 0 
L 603 0 
L 603 3500 
z
M 603 4863 
L 1178 4863 
L 1178 4134 
L 603 4134 
L 603 4863 
z
" transform="scale(0.015625)"/>
      <path id="DejaVuSans-20" transform="scale(0.015625)"/>
      <path id="DejaVuSans-68" d="M 3513 2113 
L 3513 0 
L 2938 0 
L 2938 2094 
Q 2938 2591 2744 2837 
Q 2550 3084 2163 3084 
Q 1697 3084 1428 2787 
Q 1159 2491 1159 1978 
L 1159 0 
L 581 0 
L 581 4863 
L 1159 4863 
L 1159 2956 
Q 1366 3272 1645 3428 
Q 1925 3584 2291 3584 
Q 2894 3584 3203 3211 
Q 3513 2838 3513 2113 
z
" transform="scale(0.015625)"/>
      <path id="DejaVuSans-6f" d="M 1959 3097 
Q 1497 3097 1228 2736 
Q 959 2375 959 1747 
Q 959 1119 1226 758 
Q 1494 397 1959 397 
Q 2419 397 2687 759 
Q 2956 1122 2956 1747 
Q 2956 2369 2687 2733 
Q 2419 3097 1959 3097 
z
M 1959 3584 
Q 2709 3584 3137 3096 
Q 3566 2609 3566 1747 
Q 3566 888 3137 398 
Q 2709 -91 1959 -91 
Q 1206 -91 779 398 
Q 353 888 353 1747 
Q 353 2609 779 3096 
Q 1206 3584 1959 3584 
z
" transform="scale(0.015625)"/>
      <path id="DejaVuSans-79" d="M 2059 -325 
Q 1816 -950 1584 -1140 
Q 1353 -1331 966 -1331 
L 506 -1331 
L 506 -850 
L 844 -850 
Q 1081 -850 1212 -737 
Q 1344 -625 1503 -206 
L 1606 56 
L 191 3500 
L 800 3500 
L 1894 763 
L 2988 3500 
L 3597 3500 
L 2059 -325 
z
" transform="scale(0.015625)"/>
     </defs>
     <use xlink:href="#DejaVuSans-67"/>
     <use xlink:href="#DejaVuSans-65" x="63.476562"/>
     <use xlink:href="#DejaVuSans-74" x="125"/>
     <use xlink:href="#DejaVuSans-5f" x="164.208984"/>
     <use xlink:href="#DejaVuSans-73" x="214.208984"/>
     <use xlink:href="#DejaVuSans-75" x="266.308594"/>
     <use xlink:href="#DejaVuSans-62" x="329.6875"/>
     <use xlink:href="#DejaVuSans-73" x="393.164062"/>
     <use xlink:href="#DejaVuSans-63" x="445.263672"/>
     <use xlink:href="#DejaVuSans-72" x="500.244141"/>
     <use xlink:href="#DejaVuSans-69" x="541.357422"/>
     <use xlink:href="#DejaVuSans-62" x="569.140625"/>
     <use xlink:href="#DejaVuSans-65" x="632.617188"/>
     <use xlink:href="#DejaVuSans-20" x="694.140625"/>
     <use xlink:href="#DejaVuSans-68" x="725.927734"/>
     <use xlink:href="#DejaVuSans-69" x="789.306641"/>
     <use xlink:href="#DejaVuSans-73" x="817.089844"/>
     <use xlink:href="#DejaVuSans-74" x="869.189453"/>
     <use xlink:href="#DejaVuSans-6f" x="908.398438"/>
     <use xlink:href="#DejaVuSans-72" x="969.580078"/>
     <use xlink:href="#DejaVuSans-79" x="1010.693359"/>
    </g>
   </g>
   <g id="legend_1">
    <g id="line2d_41">
     <path d="M 815.08 328.498438 
L 825.08 328.498438 
L 835.08 328.498438 
" style="fill: none; stroke: #1f77b4; stroke-width: 1.5; stroke-linecap: square"/>
    </g>
    <g id="text_21">
     <!-- star -->
     <g style="fill: #a9a9a9" transform="translate(843.08 331.998438) scale(0.1 -0.1)">
      <defs>
       <path id="DejaVuSans-61" d="M 2194 1759 
Q 1497 1759 1228 1600 
Q 959 1441 959 1056 
Q 959 750 1161 570 
Q 1363 391 1709 391 
Q 2188 391 2477 730 
Q 2766 1069 2766 1631 
L 2766 1759 
L 2194 1759 
z
M 3341 1997 
L 3341 0 
L 2766 0 
L 2766 531 
Q 2569 213 2275 61 
Q 1981 -91 1556 -91 
Q 1019 -91 701 211 
Q 384 513 384 1019 
Q 384 1609 779 1909 
Q 1175 2209 1959 2209 
L 2766 2209 
L 2766 2266 
Q 2766 2663 2505 2880 
Q 2244 3097 1772 3097 
Q 1472 3097 1187 3025 
Q 903 2953 641 2809 
L 641 3341 
Q 956 3463 1253 3523 
Q 1550 3584 1831 3584 
Q 2591 3584 2966 3190 
Q 3341 2797 3341 1997 
z
" transform="scale(0.015625)"/>
      </defs>
      <use xlink:href="#DejaVuSans-73"/>
      <use xlink:href="#DejaVuSans-74" x="52.099609"/>
      <use xlink:href="#DejaVuSans-61" x="91.308594"/>
      <use xlink:href="#DejaVuSans-72" x="152.587891"/>
     </g>
    </g>
    <g id="line2d_42">
     <path d="M 815.08 343.176562 
L 825.08 343.176562 
L 835.08 343.176562 
" style="fill: none; stroke: #ff7f0e; stroke-width: 1.5; stroke-linecap: square"/>
    </g>
    <g id="text_22">
     <!-- fork -->
     <g style="fill: #a9a9a9" transform="translate(843.08 346.676562) scale(0.1 -0.1)">
      <defs>
       <path id="DejaVuSans-66" d="M 2375 4863 
L 2375 4384 
L 1825 4384 
Q 1516 4384 1395 4259 
Q 1275 4134 1275 3809 
L 1275 3500 
L 2222 3500 
L 2222 3053 
L 1275 3053 
L 1275 0 
L 697 0 
L 697 3053 
L 147 3053 
L 147 3500 
L 697 3500 
L 697 3744 
Q 697 4328 969 4595 
Q 1241 4863 1831 4863 
L 2375 4863 
z
" transform="scale(0.015625)"/>
       <path id="DejaVuSans-6b" d="M 581 4863 
L 1159 4863 
L 1159 1991 
L 2875 3500 
L 3609 3500 
L 1753 1863 
L 3688 0 
L 2938 0 
L 1159 1709 
L 1159 0 
L 581 0 
L 581 4863 
z
" transform="scale(0.015625)"/>
      </defs>
      <use xlink:href="#DejaVuSans-66"/>
      <use xlink:href="#DejaVuSans-6f" x="35.205078"/>
      <use xlink:href="#DejaVuSans-72" x="96.386719"/>
      <use xlink:href="#DejaVuSans-6b" x="137.5"/>
     </g>
    </g>
   </g>
  </g>
 </g>
 <defs>
  <clipPath id="pe884a96e7a">
   <rect x="108" y="43.2" width="669.6" height="277.2"/>
  </clipPath>
 </defs>
</svg>
