<?xml version="1.0" encoding="utf-8" standalone="no"?>
<!DOCTYPE svg PUBLIC "-//W3C//DTD SVG 1.1//EN"
  "http://www.w3.org/Graphics/SVG/1.1/DTD/svg11.dtd">
<svg xmlns:xlink="http://www.w3.org/1999/xlink" width="864pt" height="360pt" viewBox="0 0 864 360" xmlns="http://www.w3.org/2000/svg" version="1.1">
 <metadata>
  <rdf:RDF xmlns:dc="http://purl.org/dc/elements/1.1/" xmlns:cc="http://creativecommons.org/ns#" xmlns:rdf="http://www.w3.org/1999/02/22-rdf-syntax-ns#">
   <cc:Work>
    <dc:type rdf:resource="http://purl.org/dc/dcmitype/StillImage"/>
    <dc:date>2024-09-04T20:06:05.204987</dc:date>
    <dc:format>image/svg+xml</dc:format>
    <dc:creator>
     <cc:Agent>
      <dc:title>Matplotlib v3.9.2, https://matplotlib.org/</dc:title>
     </cc:Agent>
    </dc:creator>
   </cc:Work>
  </rdf:RDF>
 </metadata>
 <defs>
  <style type="text/css">*{stroke-linejoin: round; stroke-linecap: butt}</style>
 </defs>
 <g id="figure_1">
  <g id="patch_1">
   <path d="M 0 360 
L 864 360 
L 864 0 
L 0 0 
L 0 360 
z
" style="fill: none; opacity: 0"/>
  </g>
  <g id="axes_1">
   <g id="patch_2">
    <path d="M 108 320.4 
L 777.6 320.4 
L 777.6 43.2 
L 108 43.2 
L 108 320.4 
z
" style="fill: none; opacity: 0"/>
   </g>
   <g id="matplotlib.axis_1">
    <g id="xtick_1">
     <g id="line2d_1">
      <path d="M 159.297843 320.4 
L 159.297843 43.2 
" clip-path="url(#p9061247343)" style="fill: none; stroke-dasharray: 5.12,1.28,0.8,1.28; stroke-dashoffset: 0; stroke: #b0b0b0; stroke-width: 0.8"/>
     </g>
     <g id="line2d_2">
      <defs>
       <path id="m304642d657" d="M 0 0 
L 0 3.5 
" style="stroke: #a9a9a9; stroke-width: 0.8"/>
      </defs>
      <g>
       <use xlink:href="#m304642d657" x="159.297843" y="320.4" style="fill: #a9a9a9; stroke: #a9a9a9; stroke-width: 0.8"/>
      </g>
     </g>
     <g id="text_1">
      <!-- 2021-09 -->
      <g style="fill: #a9a9a9" transform="translate(138.406437 334.998438) scale(0.1 -0.1)">
       <defs>
        <path id="DejaVuSans-32" d="M 1228 531 
L 3431 531 
L 3431 0 
L 469 0 
L 469 531 
Q 828 903 1448 1529 
Q 2069 2156 2228 2338 
Q 2531 2678 2651 2914 
Q 2772 3150 2772 3378 
Q 2772 3750 2511 3984 
Q 2250 4219 1831 4219 
Q 1534 4219 1204 4116 
Q 875 4013 500 3803 
L 500 4441 
Q 881 4594 1212 4672 
Q 1544 4750 1819 4750 
Q 2544 4750 2975 4387 
Q 3406 4025 3406 3419 
Q 3406 3131 3298 2873 
Q 3191 2616 2906 2266 
Q 2828 2175 2409 1742 
Q 1991 1309 1228 531 
z
" transform="scale(0.015625)"/>
        <path id="DejaVuSans-30" d="M 2034 4250 
Q 1547 4250 1301 3770 
Q 1056 3291 1056 2328 
Q 1056 1369 1301 889 
Q 1547 409 2034 409 
Q 2525 409 2770 889 
Q 3016 1369 3016 2328 
Q 3016 3291 2770 3770 
Q 2525 4250 2034 4250 
z
M 2034 4750 
Q 2819 4750 3233 4129 
Q 3647 3509 3647 2328 
Q 3647 1150 3233 529 
Q 2819 -91 2034 -91 
Q 1250 -91 836 529 
Q 422 1150 422 2328 
Q 422 3509 836 4129 
Q 1250 4750 2034 4750 
z
" transform="scale(0.015625)"/>
        <path id="DejaVuSans-31" d="M 794 531 
L 1825 531 
L 1825 4091 
L 703 3866 
L 703 4441 
L 1819 4666 
L 2450 4666 
L 2450 531 
L 3481 531 
L 3481 0 
L 794 0 
L 794 531 
z
" transform="scale(0.015625)"/>
        <path id="DejaVuSans-2d" d="M 313 2009 
L 1997 2009 
L 1997 1497 
L 313 1497 
L 313 2009 
z
" transform="scale(0.015625)"/>
        <path id="DejaVuSans-39" d="M 703 97 
L 703 672 
Q 941 559 1184 500 
Q 1428 441 1663 441 
Q 2288 441 2617 861 
Q 2947 1281 2994 2138 
Q 2813 1869 2534 1725 
Q 2256 1581 1919 1581 
Q 1219 1581 811 2004 
Q 403 2428 403 3163 
Q 403 3881 828 4315 
Q 1253 4750 1959 4750 
Q 2769 4750 3195 4129 
Q 3622 3509 3622 2328 
Q 3622 1225 3098 567 
Q 2575 -91 1691 -91 
Q 1453 -91 1209 -44 
Q 966 3 703 97 
z
M 1959 2075 
Q 2384 2075 2632 2365 
Q 2881 2656 2881 3163 
Q 2881 3666 2632 3958 
Q 2384 4250 1959 4250 
Q 1534 4250 1286 3958 
Q 1038 3666 1038 3163 
Q 1038 2656 1286 2365 
Q 1534 2075 1959 2075 
z
" transform="scale(0.015625)"/>
       </defs>
       <use xlink:href="#DejaVuSans-32"/>
       <use xlink:href="#DejaVuSans-30" x="63.623047"/>
       <use xlink:href="#DejaVuSans-32" x="127.246094"/>
       <use xlink:href="#DejaVuSans-31" x="190.869141"/>
       <use xlink:href="#DejaVuSans-2d" x="254.492188"/>
       <use xlink:href="#DejaVuSans-30" x="290.576172"/>
       <use xlink:href="#DejaVuSans-39" x="354.199219"/>
      </g>
     </g>
    </g>
    <g id="xtick_2">
     <g id="line2d_3">
      <path d="M 224.55683 320.4 
L 224.55683 43.2 
" clip-path="url(#p9061247343)" style="fill: none; stroke-dasharray: 5.12,1.28,0.8,1.28; stroke-dashoffset: 0; stroke: #b0b0b0; stroke-width: 0.8"/>
     </g>
     <g id="line2d_4">
      <g>
       <use xlink:href="#m304642d657" x="224.55683" y="320.4" style="fill: #a9a9a9; stroke: #a9a9a9; stroke-width: 0.8"/>
      </g>
     </g>
     <g id="text_2">
      <!-- 2022-01 -->
      <g style="fill: #a9a9a9" transform="translate(203.665424 334.998438) scale(0.1 -0.1)">
       <use xlink:href="#DejaVuSans-32"/>
       <use xlink:href="#DejaVuSans-30" x="63.623047"/>
       <use xlink:href="#DejaVuSans-32" x="127.246094"/>
       <use xlink:href="#DejaVuSans-32" x="190.869141"/>
       <use xlink:href="#DejaVuSans-2d" x="254.492188"/>
       <use xlink:href="#DejaVuSans-30" x="290.576172"/>
       <use xlink:href="#DejaVuSans-31" x="354.199219"/>
      </g>
     </g>
    </g>
    <g id="xtick_3">
     <g id="line2d_5">
      <path d="M 288.745998 320.4 
L 288.745998 43.2 
" clip-path="url(#p9061247343)" style="fill: none; stroke-dasharray: 5.12,1.28,0.8,1.28; stroke-dashoffset: 0; stroke: #b0b0b0; stroke-width: 0.8"/>
     </g>
     <g id="line2d_6">
      <g>
       <use xlink:href="#m304642d657" x="288.745998" y="320.4" style="fill: #a9a9a9; stroke: #a9a9a9; stroke-width: 0.8"/>
      </g>
     </g>
     <g id="text_3">
      <!-- 2022-05 -->
      <g style="fill: #a9a9a9" transform="translate(267.854592 334.998438) scale(0.1 -0.1)">
       <defs>
        <path id="DejaVuSans-35" d="M 691 4666 
L 3169 4666 
L 3169 4134 
L 1269 4134 
L 1269 2991 
Q 1406 3038 1543 3061 
Q 1681 3084 1819 3084 
Q 2600 3084 3056 2656 
Q 3513 2228 3513 1497 
Q 3513 744 3044 326 
Q 2575 -91 1722 -91 
Q 1428 -91 1123 -41 
Q 819 9 494 109 
L 494 744 
Q 775 591 1075 516 
Q 1375 441 1709 441 
Q 2250 441 2565 725 
Q 2881 1009 2881 1497 
Q 2881 1984 2565 2268 
Q 2250 2553 1709 2553 
Q 1456 2553 1204 2497 
Q 953 2441 691 2322 
L 691 4666 
z
" transform="scale(0.015625)"/>
       </defs>
       <use xlink:href="#DejaVuSans-32"/>
       <use xlink:href="#DejaVuSans-30" x="63.623047"/>
       <use xlink:href="#DejaVuSans-32" x="127.246094"/>
       <use xlink:href="#DejaVuSans-32" x="190.869141"/>
       <use xlink:href="#DejaVuSans-2d" x="254.492188"/>
       <use xlink:href="#DejaVuSans-30" x="290.576172"/>
       <use xlink:href="#DejaVuSans-35" x="354.199219"/>
      </g>
     </g>
    </g>
    <g id="xtick_4">
     <g id="line2d_7">
      <path d="M 354.539895 320.4 
L 354.539895 43.2 
" clip-path="url(#p9061247343)" style="fill: none; stroke-dasharray: 5.12,1.28,0.8,1.28; stroke-dashoffset: 0; stroke: #b0b0b0; stroke-width: 0.8"/>
     </g>
     <g id="line2d_8">
      <g>
       <use xlink:href="#m304642d657" x="354.539895" y="320.4" style="fill: #a9a9a9; stroke: #a9a9a9; stroke-width: 0.8"/>
      </g>
     </g>
     <g id="text_4">
      <!-- 2022-09 -->
      <g style="fill: #a9a9a9" transform="translate(333.648488 334.998438) scale(0.1 -0.1)">
       <use xlink:href="#DejaVuSans-32"/>
       <use xlink:href="#DejaVuSans-30" x="63.623047"/>
       <use xlink:href="#DejaVuSans-32" x="127.246094"/>
       <use xlink:href="#DejaVuSans-32" x="190.869141"/>
       <use xlink:href="#DejaVuSans-2d" x="254.492188"/>
       <use xlink:href="#DejaVuSans-30" x="290.576172"/>
       <use xlink:href="#DejaVuSans-39" x="354.199219"/>
      </g>
     </g>
    </g>
    <g id="xtick_5">
     <g id="line2d_9">
      <path d="M 419.798882 320.4 
L 419.798882 43.2 
" clip-path="url(#p9061247343)" style="fill: none; stroke-dasharray: 5.12,1.28,0.8,1.28; stroke-dashoffset: 0; stroke: #b0b0b0; stroke-width: 0.8"/>
     </g>
     <g id="line2d_10">
      <g>
       <use xlink:href="#m304642d657" x="419.798882" y="320.4" style="fill: #a9a9a9; stroke: #a9a9a9; stroke-width: 0.8"/>
      </g>
     </g>
     <g id="text_5">
      <!-- 2023-01 -->
      <g style="fill: #a9a9a9" transform="translate(398.907475 334.998438) scale(0.1 -0.1)">
       <defs>
        <path id="DejaVuSans-33" d="M 2597 2516 
Q 3050 2419 3304 2112 
Q 3559 1806 3559 1356 
Q 3559 666 3084 287 
Q 2609 -91 1734 -91 
Q 1441 -91 1130 -33 
Q 819 25 488 141 
L 488 750 
Q 750 597 1062 519 
Q 1375 441 1716 441 
Q 2309 441 2620 675 
Q 2931 909 2931 1356 
Q 2931 1769 2642 2001 
Q 2353 2234 1838 2234 
L 1294 2234 
L 1294 2753 
L 1863 2753 
Q 2328 2753 2575 2939 
Q 2822 3125 2822 3475 
Q 2822 3834 2567 4026 
Q 2313 4219 1838 4219 
Q 1578 4219 1281 4162 
Q 984 4106 628 3988 
L 628 4550 
Q 988 4650 1302 4700 
Q 1616 4750 1894 4750 
Q 2613 4750 3031 4423 
Q 3450 4097 3450 3541 
Q 3450 3153 3228 2886 
Q 3006 2619 2597 2516 
z
" transform="scale(0.015625)"/>
       </defs>
       <use xlink:href="#DejaVuSans-32"/>
       <use xlink:href="#DejaVuSans-30" x="63.623047"/>
       <use xlink:href="#DejaVuSans-32" x="127.246094"/>
       <use xlink:href="#DejaVuSans-33" x="190.869141"/>
       <use xlink:href="#DejaVuSans-2d" x="254.492188"/>
       <use xlink:href="#DejaVuSans-30" x="290.576172"/>
       <use xlink:href="#DejaVuSans-31" x="354.199219"/>
      </g>
     </g>
    </g>
    <g id="xtick_6">
     <g id="line2d_11">
      <path d="M 483.988049 320.4 
L 483.988049 43.2 
" clip-path="url(#p9061247343)" style="fill: none; stroke-dasharray: 5.12,1.28,0.8,1.28; stroke-dashoffset: 0; stroke: #b0b0b0; stroke-width: 0.8"/>
     </g>
     <g id="line2d_12">
      <g>
       <use xlink:href="#m304642d657" x="483.988049" y="320.4" style="fill: #a9a9a9; stroke: #a9a9a9; stroke-width: 0.8"/>
      </g>
     </g>
     <g id="text_6">
      <!-- 2023-05 -->
      <g style="fill: #a9a9a9" transform="translate(463.096643 334.998438) scale(0.1 -0.1)">
       <use xlink:href="#DejaVuSans-32"/>
       <use xlink:href="#DejaVuSans-30" x="63.623047"/>
       <use xlink:href="#DejaVuSans-32" x="127.246094"/>
       <use xlink:href="#DejaVuSans-33" x="190.869141"/>
       <use xlink:href="#DejaVuSans-2d" x="254.492188"/>
       <use xlink:href="#DejaVuSans-30" x="290.576172"/>
       <use xlink:href="#DejaVuSans-35" x="354.199219"/>
      </g>
     </g>
    </g>
    <g id="xtick_7">
     <g id="line2d_13">
      <path d="M 549.781946 320.4 
L 549.781946 43.2 
" clip-path="url(#p9061247343)" style="fill: none; stroke-dasharray: 5.12,1.28,0.8,1.28; stroke-dashoffset: 0; stroke: #b0b0b0; stroke-width: 0.8"/>
     </g>
     <g id="line2d_14">
      <g>
       <use xlink:href="#m304642d657" x="549.781946" y="320.4" style="fill: #a9a9a9; stroke: #a9a9a9; stroke-width: 0.8"/>
      </g>
     </g>
     <g id="text_7">
      <!-- 2023-09 -->
      <g style="fill: #a9a9a9" transform="translate(528.89054 334.998438) scale(0.1 -0.1)">
       <use xlink:href="#DejaVuSans-32"/>
       <use xlink:href="#DejaVuSans-30" x="63.623047"/>
       <use xlink:href="#DejaVuSans-32" x="127.246094"/>
       <use xlink:href="#DejaVuSans-33" x="190.869141"/>
       <use xlink:href="#DejaVuSans-2d" x="254.492188"/>
       <use xlink:href="#DejaVuSans-30" x="290.576172"/>
       <use xlink:href="#DejaVuSans-39" x="354.199219"/>
      </g>
     </g>
    </g>
    <g id="xtick_8">
     <g id="line2d_15">
      <path d="M 615.040933 320.4 
L 615.040933 43.2 
" clip-path="url(#p9061247343)" style="fill: none; stroke-dasharray: 5.12,1.28,0.8,1.28; stroke-dashoffset: 0; stroke: #b0b0b0; stroke-width: 0.8"/>
     </g>
     <g id="line2d_16">
      <g>
       <use xlink:href="#m304642d657" x="615.040933" y="320.4" style="fill: #a9a9a9; stroke: #a9a9a9; stroke-width: 0.8"/>
      </g>
     </g>
     <g id="text_8">
      <!-- 2024-01 -->
      <g style="fill: #a9a9a9" transform="translate(594.149527 334.998438) scale(0.1 -0.1)">
       <defs>
        <path id="DejaVuSans-34" d="M 2419 4116 
L 825 1625 
L 2419 1625 
L 2419 4116 
z
M 2253 4666 
L 3047 4666 
L 3047 1625 
L 3713 1625 
L 3713 1100 
L 3047 1100 
L 3047 0 
L 2419 0 
L 2419 1100 
L 313 1100 
L 313 1709 
L 2253 4666 
z
" transform="scale(0.015625)"/>
       </defs>
       <use xlink:href="#DejaVuSans-32"/>
       <use xlink:href="#DejaVuSans-30" x="63.623047"/>
       <use xlink:href="#DejaVuSans-32" x="127.246094"/>
       <use xlink:href="#DejaVuSans-34" x="190.869141"/>
       <use xlink:href="#DejaVuSans-2d" x="254.492188"/>
       <use xlink:href="#DejaVuSans-30" x="290.576172"/>
       <use xlink:href="#DejaVuSans-31" x="354.199219"/>
      </g>
     </g>
    </g>
    <g id="xtick_9">
     <g id="line2d_17">
      <path d="M 679.76501 320.4 
L 679.76501 43.2 
" clip-path="url(#p9061247343)" style="fill: none; stroke-dasharray: 5.12,1.28,0.8,1.28; stroke-dashoffset: 0; stroke: #b0b0b0; stroke-width: 0.8"/>
     </g>
     <g id="line2d_18">
      <g>
       <use xlink:href="#m304642d657" x="679.76501" y="320.4" style="fill: #a9a9a9; stroke: #a9a9a9; stroke-width: 0.8"/>
      </g>
     </g>
     <g id="text_9">
      <!-- 2024-05 -->
      <g style="fill: #a9a9a9" transform="translate(658.873604 334.998438) scale(0.1 -0.1)">
       <use xlink:href="#DejaVuSans-32"/>
       <use xlink:href="#DejaVuSans-30" x="63.623047"/>
       <use xlink:href="#DejaVuSans-32" x="127.246094"/>
       <use xlink:href="#DejaVuSans-34" x="190.869141"/>
       <use xlink:href="#DejaVuSans-2d" x="254.492188"/>
       <use xlink:href="#DejaVuSans-30" x="290.576172"/>
       <use xlink:href="#DejaVuSans-35" x="354.199219"/>
      </g>
     </g>
    </g>
    <g id="xtick_10">
     <g id="line2d_19">
      <path d="M 745.558907 320.4 
L 745.558907 43.2 
" clip-path="url(#p9061247343)" style="fill: none; stroke-dasharray: 5.12,1.28,0.8,1.28; stroke-dashoffset: 0; stroke: #b0b0b0; stroke-width: 0.8"/>
     </g>
     <g id="line2d_20">
      <g>
       <use xlink:href="#m304642d657" x="745.558907" y="320.4" style="fill: #a9a9a9; stroke: #a9a9a9; stroke-width: 0.8"/>
      </g>
     </g>
     <g id="text_10">
      <!-- 2024-09 -->
      <g style="fill: #a9a9a9" transform="translate(724.667501 334.998438) scale(0.1 -0.1)">
       <use xlink:href="#DejaVuSans-32"/>
       <use xlink:href="#DejaVuSans-30" x="63.623047"/>
       <use xlink:href="#DejaVuSans-32" x="127.246094"/>
       <use xlink:href="#DejaVuSans-34" x="190.869141"/>
       <use xlink:href="#DejaVuSans-2d" x="254.492188"/>
       <use xlink:href="#DejaVuSans-30" x="290.576172"/>
       <use xlink:href="#DejaVuSans-39" x="354.199219"/>
      </g>
     </g>
    </g>
   </g>
   <g id="matplotlib.axis_2">
    <g id="ytick_1">
     <g id="line2d_21">
      <path d="M 108 307.838084 
L 777.6 307.838084 
" clip-path="url(#p9061247343)" style="fill: none; stroke-dasharray: 5.12,1.28,0.8,1.28; stroke-dashoffset: 0; stroke: #b0b0b0; stroke-width: 0.8"/>
     </g>
     <g id="line2d_22">
      <defs>
       <path id="m7306c47b9d" d="M 0 0 
L -3.5 0 
" style="stroke: #a9a9a9; stroke-width: 0.8"/>
      </defs>
      <g>
       <use xlink:href="#m7306c47b9d" x="108" y="307.838084" style="fill: #a9a9a9; stroke: #a9a9a9; stroke-width: 0.8"/>
      </g>
     </g>
     <g id="text_11">
      <!-- 0 -->
      <g style="fill: #a9a9a9" transform="translate(94.6375 311.637302) scale(0.1 -0.1)">
       <use xlink:href="#DejaVuSans-30"/>
      </g>
     </g>
    </g>
    <g id="ytick_2">
     <g id="line2d_23">
      <path d="M 108 277.371105 
L 777.6 277.371105 
" clip-path="url(#p9061247343)" style="fill: none; stroke-dasharray: 5.12,1.28,0.8,1.28; stroke-dashoffset: 0; stroke: #b0b0b0; stroke-width: 0.8"/>
     </g>
     <g id="line2d_24">
      <g>
       <use xlink:href="#m7306c47b9d" x="108" y="277.371105" style="fill: #a9a9a9; stroke: #a9a9a9; stroke-width: 0.8"/>
      </g>
     </g>
     <g id="text_12">
      <!-- 800 -->
      <g style="fill: #a9a9a9" transform="translate(81.9125 281.170323) scale(0.1 -0.1)">
       <defs>
        <path id="DejaVuSans-38" d="M 2034 2216 
Q 1584 2216 1326 1975 
Q 1069 1734 1069 1313 
Q 1069 891 1326 650 
Q 1584 409 2034 409 
Q 2484 409 2743 651 
Q 3003 894 3003 1313 
Q 3003 1734 2745 1975 
Q 2488 2216 2034 2216 
z
M 1403 2484 
Q 997 2584 770 2862 
Q 544 3141 544 3541 
Q 544 4100 942 4425 
Q 1341 4750 2034 4750 
Q 2731 4750 3128 4425 
Q 3525 4100 3525 3541 
Q 3525 3141 3298 2862 
Q 3072 2584 2669 2484 
Q 3125 2378 3379 2068 
Q 3634 1759 3634 1313 
Q 3634 634 3220 271 
Q 2806 -91 2034 -91 
Q 1263 -91 848 271 
Q 434 634 434 1313 
Q 434 1759 690 2068 
Q 947 2378 1403 2484 
z
M 1172 3481 
Q 1172 3119 1398 2916 
Q 1625 2713 2034 2713 
Q 2441 2713 2670 2916 
Q 2900 3119 2900 3481 
Q 2900 3844 2670 4047 
Q 2441 4250 2034 4250 
Q 1625 4250 1398 4047 
Q 1172 3844 1172 3481 
z
" transform="scale(0.015625)"/>
       </defs>
       <use xlink:href="#DejaVuSans-38"/>
       <use xlink:href="#DejaVuSans-30" x="63.623047"/>
       <use xlink:href="#DejaVuSans-30" x="127.246094"/>
      </g>
     </g>
    </g>
    <g id="ytick_3">
     <g id="line2d_25">
      <path d="M 108 246.904126 
L 777.6 246.904126 
" clip-path="url(#p9061247343)" style="fill: none; stroke-dasharray: 5.12,1.28,0.8,1.28; stroke-dashoffset: 0; stroke: #b0b0b0; stroke-width: 0.8"/>
     </g>
     <g id="line2d_26">
      <g>
       <use xlink:href="#m7306c47b9d" x="108" y="246.904126" style="fill: #a9a9a9; stroke: #a9a9a9; stroke-width: 0.8"/>
      </g>
     </g>
     <g id="text_13">
      <!-- 1600 -->
      <g style="fill: #a9a9a9" transform="translate(75.55 250.703344) scale(0.1 -0.1)">
       <defs>
        <path id="DejaVuSans-36" d="M 2113 2584 
Q 1688 2584 1439 2293 
Q 1191 2003 1191 1497 
Q 1191 994 1439 701 
Q 1688 409 2113 409 
Q 2538 409 2786 701 
Q 3034 994 3034 1497 
Q 3034 2003 2786 2293 
Q 2538 2584 2113 2584 
z
M 3366 4563 
L 3366 3988 
Q 3128 4100 2886 4159 
Q 2644 4219 2406 4219 
Q 1781 4219 1451 3797 
Q 1122 3375 1075 2522 
Q 1259 2794 1537 2939 
Q 1816 3084 2150 3084 
Q 2853 3084 3261 2657 
Q 3669 2231 3669 1497 
Q 3669 778 3244 343 
Q 2819 -91 2113 -91 
Q 1303 -91 875 529 
Q 447 1150 447 2328 
Q 447 3434 972 4092 
Q 1497 4750 2381 4750 
Q 2619 4750 2861 4703 
Q 3103 4656 3366 4563 
z
" transform="scale(0.015625)"/>
       </defs>
       <use xlink:href="#DejaVuSans-31"/>
       <use xlink:href="#DejaVuSans-36" x="63.623047"/>
       <use xlink:href="#DejaVuSans-30" x="127.246094"/>
       <use xlink:href="#DejaVuSans-30" x="190.869141"/>
      </g>
     </g>
    </g>
    <g id="ytick_4">
     <g id="line2d_27">
      <path d="M 108 216.437147 
L 777.6 216.437147 
" clip-path="url(#p9061247343)" style="fill: none; stroke-dasharray: 5.12,1.28,0.8,1.28; stroke-dashoffset: 0; stroke: #b0b0b0; stroke-width: 0.8"/>
     </g>
     <g id="line2d_28">
      <g>
       <use xlink:href="#m7306c47b9d" x="108" y="216.437147" style="fill: #a9a9a9; stroke: #a9a9a9; stroke-width: 0.8"/>
      </g>
     </g>
     <g id="text_14">
      <!-- 2400 -->
      <g style="fill: #a9a9a9" transform="translate(75.55 220.236365) scale(0.1 -0.1)">
       <use xlink:href="#DejaVuSans-32"/>
       <use xlink:href="#DejaVuSans-34" x="63.623047"/>
       <use xlink:href="#DejaVuSans-30" x="127.246094"/>
       <use xlink:href="#DejaVuSans-30" x="190.869141"/>
      </g>
     </g>
    </g>
    <g id="ytick_5">
     <g id="line2d_29">
      <path d="M 108 185.970168 
L 777.6 185.970168 
" clip-path="url(#p9061247343)" style="fill: none; stroke-dasharray: 5.12,1.28,0.8,1.28; stroke-dashoffset: 0; stroke: #b0b0b0; stroke-width: 0.8"/>
     </g>
     <g id="line2d_30">
      <g>
       <use xlink:href="#m7306c47b9d" x="108" y="185.970168" style="fill: #a9a9a9; stroke: #a9a9a9; stroke-width: 0.8"/>
      </g>
     </g>
     <g id="text_15">
      <!-- 3200 -->
      <g style="fill: #a9a9a9" transform="translate(75.55 189.769386) scale(0.1 -0.1)">
       <use xlink:href="#DejaVuSans-33"/>
       <use xlink:href="#DejaVuSans-32" x="63.623047"/>
       <use xlink:href="#DejaVuSans-30" x="127.246094"/>
       <use xlink:href="#DejaVuSans-30" x="190.869141"/>
      </g>
     </g>
    </g>
    <g id="ytick_6">
     <g id="line2d_31">
      <path d="M 108 155.503189 
L 777.6 155.503189 
" clip-path="url(#p9061247343)" style="fill: none; stroke-dasharray: 5.12,1.28,0.8,1.28; stroke-dashoffset: 0; stroke: #b0b0b0; stroke-width: 0.8"/>
     </g>
     <g id="line2d_32">
      <g>
       <use xlink:href="#m7306c47b9d" x="108" y="155.503189" style="fill: #a9a9a9; stroke: #a9a9a9; stroke-width: 0.8"/>
      </g>
     </g>
     <g id="text_16">
      <!-- 4000 -->
      <g style="fill: #a9a9a9" transform="translate(75.55 159.302408) scale(0.1 -0.1)">
       <use xlink:href="#DejaVuSans-34"/>
       <use xlink:href="#DejaVuSans-30" x="63.623047"/>
       <use xlink:href="#DejaVuSans-30" x="127.246094"/>
       <use xlink:href="#DejaVuSans-30" x="190.869141"/>
      </g>
     </g>
    </g>
    <g id="ytick_7">
     <g id="line2d_33">
      <path d="M 108 125.03621 
L 777.6 125.03621 
" clip-path="url(#p9061247343)" style="fill: none; stroke-dasharray: 5.12,1.28,0.8,1.28; stroke-dashoffset: 0; stroke: #b0b0b0; stroke-width: 0.8"/>
     </g>
     <g id="line2d_34">
      <g>
       <use xlink:href="#m7306c47b9d" x="108" y="125.03621" style="fill: #a9a9a9; stroke: #a9a9a9; stroke-width: 0.8"/>
      </g>
     </g>
     <g id="text_17">
      <!-- 4800 -->
      <g style="fill: #a9a9a9" transform="translate(75.55 128.835429) scale(0.1 -0.1)">
       <use xlink:href="#DejaVuSans-34"/>
       <use xlink:href="#DejaVuSans-38" x="63.623047"/>
       <use xlink:href="#DejaVuSans-30" x="127.246094"/>
       <use xlink:href="#DejaVuSans-30" x="190.869141"/>
      </g>
     </g>
    </g>
    <g id="ytick_8">
     <g id="line2d_35">
      <path d="M 108 94.569231 
L 777.6 94.569231 
" clip-path="url(#p9061247343)" style="fill: none; stroke-dasharray: 5.12,1.28,0.8,1.28; stroke-dashoffset: 0; stroke: #b0b0b0; stroke-width: 0.8"/>
     </g>
     <g id="line2d_36">
      <g>
       <use xlink:href="#m7306c47b9d" x="108" y="94.569231" style="fill: #a9a9a9; stroke: #a9a9a9; stroke-width: 0.8"/>
      </g>
     </g>
     <g id="text_18">
      <!-- 5600 -->
      <g style="fill: #a9a9a9" transform="translate(75.55 98.36845) scale(0.1 -0.1)">
       <use xlink:href="#DejaVuSans-35"/>
       <use xlink:href="#DejaVuSans-36" x="63.623047"/>
       <use xlink:href="#DejaVuSans-30" x="127.246094"/>
       <use xlink:href="#DejaVuSans-30" x="190.869141"/>
      </g>
     </g>
    </g>
    <g id="ytick_9">
     <g id="line2d_37">
      <path d="M 108 64.102252 
L 777.6 64.102252 
" clip-path="url(#p9061247343)" style="fill: none; stroke-dasharray: 5.12,1.28,0.8,1.28; stroke-dashoffset: 0; stroke: #b0b0b0; stroke-width: 0.8"/>
     </g>
     <g id="line2d_38">
      <g>
       <use xlink:href="#m7306c47b9d" x="108" y="64.102252" style="fill: #a9a9a9; stroke: #a9a9a9; stroke-width: 0.8"/>
      </g>
     </g>
     <g id="text_19">
      <!-- 6400 -->
      <g style="fill: #a9a9a9" transform="translate(75.55 67.901471) scale(0.1 -0.1)">
       <use xlink:href="#DejaVuSans-36"/>
       <use xlink:href="#DejaVuSans-34" x="63.623047"/>
       <use xlink:href="#DejaVuSans-30" x="127.246094"/>
       <use xlink:href="#DejaVuSans-30" x="190.869141"/>
      </g>
     </g>
    </g>
   </g>
   <g id="line2d_39">
    <path d="M 138.436364 307.723833 
L 141.645822 307.457246 
L 142.180732 307.228744 
L 143.785461 307.076409 
L 146.994919 306.428986 
L 150.204378 306.1624 
L 151.274197 305.743479 
L 151.809107 305.057972 
L 152.344017 304.677135 
L 152.878926 303.496539 
L 153.413836 303.420372 
L 153.948746 303.001451 
L 155.018565 302.468279 
L 157.158204 300.792595 
L 159.297843 299.764334 
L 160.902572 299.040744 
L 161.437482 298.202902 
L 162.507301 297.441227 
L 163.042211 297.212725 
L 168.391309 296.45105 
L 168.926218 296.184464 
L 172.670586 295.879794 
L 174.810225 295.384706 
L 179.089503 294.81345 
L 179.624413 294.50878 
L 180.159323 294.432613 
L 181.229142 294.089859 
L 184.97351 293.48052 
L 186.04333 293.17585 
L 187.648059 293.023515 
L 188.717878 292.909264 
L 191.392427 292.223757 
L 192.462246 292.14759 
L 193.532066 291.995255 
L 194.601885 291.766752 
L 195.136795 291.614417 
L 195.671705 290.890827 
L 197.276434 290.281487 
L 198.881163 289.862566 
L 199.416073 289.59598 
L 199.950983 289.557896 
L 202.625531 288.796222 
L 203.695351 288.720054 
L 204.23026 288.643887 
L 205.83499 288.148799 
L 207.974629 287.615626 
L 208.509538 287.387124 
L 209.044448 287.310957 
L 209.579358 287.044371 
L 214.928455 286.244612 
L 217.603004 285.482938 
L 218.137913 285.140184 
L 220.812462 284.264259 
L 221.882282 283.540668 
L 223.487011 283.235998 
L 233.650296 280.303551 
L 234.720115 279.88463 
L 235.789934 279.808463 
L 237.394664 279.351458 
L 237.929573 279.351458 
L 238.464483 279.122956 
L 239.534303 279.008705 
L 240.069212 278.818286 
L 241.139032 278.780203 
L 243.278671 278.513616 
L 244.34849 277.980444 
L 250.767407 275.124165 
L 251.302317 274.552909 
L 252.372136 272.953393 
L 252.907046 272.801058 
L 253.441956 272.801058 
L 254.511775 272.0013 
L 256.116504 271.468128 
L 256.651414 270.973039 
L 257.721233 270.554118 
L 258.791053 270.05903 
L 259.860872 268.535681 
L 260.395782 268.192927 
L 260.930692 267.278918 
L 261.465602 266.707662 
L 264.67506 265.031978 
L 265.744879 264.194136 
L 266.279789 263.851383 
L 266.814699 263.051625 
L 267.349609 261.871029 
L 267.884518 261.071271 
L 268.419428 260.65235 
L 268.954338 260.423848 
L 270.559067 259.01475 
L 272.698706 257.262899 
L 273.233616 256.539308 
L 274.303435 255.587215 
L 276.443074 254.178117 
L 276.977984 253.721112 
L 277.512893 253.606861 
L 278.582713 253.035605 
L 280.722352 251.931177 
L 281.792171 250.902917 
L 282.327081 250.255493 
L 283.3969 249.493819 
L 284.46672 249.074898 
L 285.536539 248.351307 
L 286.071449 248.046637 
L 286.606359 247.97047 
L 290.350727 245.647363 
L 292.490366 244.504851 
L 293.025276 244.009763 
L 301.583831 241.039232 
L 302.653651 240.087139 
L 303.72347 239.592051 
L 304.79329 239.020795 
L 305.328199 238.716125 
L 306.398019 238.411455 
L 306.932929 238.068702 
L 307.467838 237.916367 
L 309.072568 236.888106 
L 311.747116 236.278767 
L 313.351845 235.364757 
L 313.886755 235.28859 
L 314.956575 235.022004 
L 315.491484 234.869669 
L 317.096213 233.65099 
L 318.700943 233.270153 
L 319.235852 233.079734 
L 319.770762 232.660813 
L 322.98022 231.594469 
L 323.51513 231.556385 
L 324.58495 231.137464 
L 328.864228 229.614115 
L 329.934047 229.46178 
L 331.538776 228.928608 
L 334.213325 227.671845 
L 336.352964 226.529334 
L 340.632242 224.815566 
L 341.167151 224.739399 
L 342.236971 224.091975 
L 342.77188 224.015808 
L 344.911519 223.139882 
L 347.051158 222.835212 
L 348.120978 222.30204 
L 348.655888 221.845036 
L 349.190797 220.892942 
L 350.795526 220.588273 
L 352.935165 219.521928 
L 353.470075 219.407677 
L 357.749353 217.38924 
L 359.354082 217.046486 
L 360.423902 216.513314 
L 360.958811 216.284812 
L 361.493721 216.208644 
L 363.63336 215.256551 
L 365.238089 214.266374 
L 365.772999 214.190207 
L 366.307909 213.999788 
L 366.842818 213.961705 
L 369.517367 213.314281 
L 370.052277 212.89536 
L 371.657006 212.324105 
L 373.796645 211.486263 
L 374.331555 211.105425 
L 374.866464 210.915007 
L 375.936284 210.343751 
L 378.610832 209.467825 
L 380.215562 208.211062 
L 380.750471 208.096811 
L 381.820291 207.258969 
L 382.355201 207.182802 
L 382.89011 206.34496 
L 383.42502 206.116458 
L 383.95993 205.697537 
L 384.494839 205.621369 
L 385.564659 204.973946 
L 386.099569 204.859695 
L 386.634478 204.631192 
L 387.169388 204.212271 
L 387.704298 204.021853 
L 389.309027 202.917425 
L 391.448666 201.812997 
L 391.983576 201.736829 
L 393.588305 200.937071 
L 394.123215 200.061146 
L 394.658124 199.604141 
L 395.193034 199.299471 
L 395.727944 199.18522 
L 396.797763 198.499713 
L 397.332673 198.385462 
L 398.402492 197.85229 
L 400.007222 197.166783 
L 401.077041 196.405108 
L 402.68177 194.957927 
L 403.75159 194.348587 
L 404.286499 193.777331 
L 406.426138 192.33015 
L 406.961048 191.72081 
L 407.495958 191.301889 
L 408.565777 190.921052 
L 409.635597 190.197461 
L 411.240326 189.397703 
L 411.775236 189.321535 
L 413.379965 188.44561 
L 414.449784 187.798186 
L 419.798882 185.894 
L 420.333791 185.475079 
L 422.47343 184.675321 
L 423.00834 184.522986 
L 423.54325 184.104065 
L 426.217798 182.656884 
L 427.287618 180.562279 
L 428.357437 179.3436 
L 429.427257 178.696177 
L 431.031986 178.048753 
L 431.566896 177.972586 
L 432.101805 177.667916 
L 434.776354 176.830074 
L 435.311264 176.601572 
L 436.381083 175.877981 
L 437.985812 175.192474 
L 439.055632 174.621218 
L 439.590542 174.240381 
L 440.125451 174.011878 
L 440.660361 173.631041 
L 441.195271 173.059785 
L 442.26509 172.48853 
L 444.939639 171.079432 
L 448.149097 169.517999 
L 448.684007 169.403748 
L 450.288736 168.832492 
L 451.358556 168.413571 
L 451.893465 168.032734 
L 452.963285 167.728064 
L 454.033104 167.309143 
L 454.568014 166.890222 
L 455.637834 166.547469 
L 458.847292 164.909869 
L 459.917111 164.072027 
L 460.986931 163.691189 
L 461.521841 163.234185 
L 462.05675 163.158017 
L 463.12657 162.358259 
L 464.196389 161.825087 
L 464.731299 161.596585 
L 465.266209 161.063412 
L 469.010577 159.616231 
L 470.080396 159.159226 
L 471.685125 158.664138 
L 472.754945 158.511803 
L 473.289855 158.283301 
L 473.824764 158.207133 
L 474.894584 157.750128 
L 475.429494 157.712045 
L 477.569132 156.912287 
L 479.173862 155.807859 
L 481.84841 154.551096 
L 484.522959 153.103914 
L 485.057869 152.989663 
L 486.662598 152.075654 
L 488.267327 151.542481 
L 489.337147 151.199728 
L 491.476785 150.514221 
L 492.546605 150.171467 
L 494.151334 149.904881 
L 496.290973 149.219374 
L 496.825883 148.990872 
L 497.360792 148.914705 
L 497.895702 148.648118 
L 498.965522 148.4577 
L 500.570251 147.886444 
L 501.64007 147.772193 
L 503.244799 147.429439 
L 504.314619 147.239021 
L 505.384438 147.048602 
L 506.454258 146.8201 
L 506.989168 146.705849 
L 507.524077 146.477346 
L 508.058987 146.439263 
L 510.733536 145.563337 
L 511.268445 145.372918 
L 511.803355 145.372918 
L 517.687362 143.659151 
L 518.222272 143.392565 
L 518.757182 143.392565 
L 519.827001 143.011727 
L 520.361911 142.478555 
L 521.43173 142.059634 
L 524.641189 140.917123 
L 525.176098 140.574369 
L 525.711008 140.460118 
L 526.245918 140.155448 
L 527.315737 139.965029 
L 528.385557 139.546109 
L 528.920467 139.431857 
L 529.455376 139.089104 
L 529.990286 138.974853 
L 530.525196 138.517848 
L 532.129925 138.213178 
L 533.199744 137.71809 
L 533.734654 137.146834 
L 535.874293 136.651746 
L 539.618661 135.890071 
L 540.153571 135.890071 
L 540.688481 135.661569 
L 542.82812 135.280731 
L 543.363029 135.052229 
L 545.502668 134.671392 
L 546.572488 134.214387 
L 547.107397 134.176303 
L 556.200863 131.472359 
L 556.735772 131.243857 
L 557.270682 130.863019 
L 558.340502 130.55835 
L 559.410321 130.215596 
L 560.480141 129.796675 
L 562.08487 129.073084 
L 563.689599 128.958833 
L 565.829238 128.349494 
L 566.364148 128.00674 
L 567.433967 127.70207 
L 570.108516 126.521475 
L 570.643425 126.483391 
L 576.527432 124.464954 
L 578.667071 123.931782 
L 579.736891 123.512861 
L 580.271801 123.284358 
L 581.34162 123.055856 
L 581.87653 122.941605 
L 582.41144 122.522684 
L 582.946349 122.256098 
L 583.481259 121.608675 
L 584.016169 121.227837 
L 585.085988 120.923168 
L 585.620898 120.504247 
L 588.295447 119.399819 
L 588.830356 119.285567 
L 589.365266 118.942814 
L 590.435085 118.638144 
L 590.969995 118.295391 
L 593.644544 117.419465 
L 595.249273 116.505456 
L 595.784183 116.391204 
L 596.854002 115.781865 
L 597.388912 115.553363 
L 598.458731 114.905939 
L 600.063461 114.144265 
L 600.59837 113.763428 
L 601.66819 113.420674 
L 602.738009 112.811334 
L 603.272919 112.620916 
L 603.807829 112.240079 
L 610.761655 109.840804 
L 611.296565 109.726553 
L 611.831475 109.383799 
L 612.366384 109.307632 
L 613.436204 109.041046 
L 614.506023 108.812543 
L 618.250391 106.984525 
L 618.785301 106.908357 
L 620.39003 106.032432 
L 623.599489 104.775669 
L 625.739128 103.937827 
L 626.274037 103.785492 
L 626.808947 103.442738 
L 627.878767 103.290404 
L 628.413676 102.94765 
L 628.948586 102.909566 
L 630.018405 102.566813 
L 631.088225 102.033641 
L 631.623135 101.957473 
L 634.297683 100.891129 
L 634.832593 100.776878 
L 635.902413 100.434124 
L 636.972232 100.167538 
L 638.042051 99.900952 
L 639.646781 99.291613 
L 641.78642 98.111017 
L 642.856239 97.692096 
L 643.391149 97.349343 
L 644.460968 97.12084 
L 644.995878 96.81617 
L 645.530788 96.701919 
L 647.135517 95.864077 
L 648.205336 95.445156 
L 649.810066 94.721566 
L 651.414795 94.302645 
L 654.624253 93.045882 
L 656.228982 92.51271 
L 664.252628 89.085175 
L 664.787538 89.009007 
L 666.927177 88.171165 
L 668.531906 87.29524 
L 669.066816 87.180988 
L 670.136635 86.762067 
L 670.671545 86.762067 
L 671.741364 86.305063 
L 672.811184 85.35297 
L 673.346094 84.895965 
L 674.950823 84.13429 
L 675.485733 84.020039 
L 676.020642 83.753453 
L 676.555552 83.677286 
L 677.090462 83.296449 
L 677.625371 83.182197 
L 678.695191 82.534774 
L 680.29992 81.735016 
L 681.36974 81.316095 
L 681.904649 81.049509 
L 683.509378 80.668672 
L 686.183927 79.792746 
L 686.718837 79.678495 
L 688.858476 78.650234 
L 689.928295 78.155146 
L 690.998115 77.88856 
L 694.742483 76.136708 
L 697.417031 75.184615 
L 699.021761 74.232522 
L 699.55667 74.118271 
L 700.62649 73.585099 
L 701.696309 73.204262 
L 702.231219 72.747257 
L 702.766129 72.442587 
L 704.370858 71.947499 
L 705.440677 71.223908 
L 705.975587 71.185824 
L 707.045407 70.881155 
L 707.580316 70.766903 
L 709.719955 69.967145 
L 711.324684 69.472057 
L 711.859594 69.395889 
L 712.929414 68.824634 
L 713.464323 68.634215 
L 713.999233 68.215294 
L 715.603962 67.796373 
L 716.138872 67.491703 
L 717.208691 67.225117 
L 718.813421 66.349191 
L 719.34833 66.311108 
L 720.95306 65.816019 
L 722.022879 65.701768 
L 723.092699 65.282847 
L 726.302157 64.368838 
L 727.371976 64.330754 
L 730.581435 63.302494 
L 731.116344 63.226326 
L 732.721074 62.388484 
L 733.255983 61.93148 
L 733.790893 61.664893 
L 735.395622 60.484298 
L 737.000351 59.798791 
L 738.070171 59.494121 
L 738.605081 59.189451 
L 739.13999 59.0752 
L 739.6749 58.656279 
L 741.279629 57.932689 
L 741.814539 57.818437 
L 742.884359 57.323349 
L 744.489088 56.904428 
L 746.093817 56.218921 
L 746.628727 55.914251 
L 747.163636 55.8 
L 747.163636 55.8 
" clip-path="url(#p9061247343)" style="fill: none; stroke: #1f77b4; stroke-width: 1.5; stroke-linecap: square"/>
   </g>
   <g id="line2d_40">
    <path d="M 138.971273 307.8 
L 140.576003 307.723833 
L 142.180732 307.685749 
L 145.39019 307.609581 
L 148.064739 307.49533 
L 150.204378 307.49533 
L 150.739287 307.342995 
L 152.878926 307.266828 
L 154.483656 307.076409 
L 156.088385 306.924074 
L 159.297843 306.771739 
L 159.832753 306.771739 
L 160.367663 306.657488 
L 162.507301 306.581321 
L 163.577121 306.505153 
L 167.856399 306.428986 
L 170.530947 306.314735 
L 176.949864 306.238567 
L 179.624413 306.124316 
L 182.833871 306.048149 
L 184.97351 305.971981 
L 189.787698 305.895814 
L 191.392427 305.85773 
L 192.997156 305.819646 
L 194.601885 305.629228 
L 197.811344 305.591144 
L 198.881163 305.514977 
L 202.625531 305.438809 
L 208.509538 305.096056 
L 212.253906 305.019888 
L 213.323726 304.943721 
L 214.928455 304.867553 
L 218.137913 304.715218 
L 220.277552 304.677135 
L 221.882282 304.5248 
L 228.836108 304.105879 
L 231.510657 304.029711 
L 236.324844 303.763125 
L 237.929573 303.686958 
L 243.278671 303.382288 
L 249.162678 303.306121 
L 251.302317 303.077618 
L 252.372136 303.001451 
L 259.325963 302.430195 
L 262.535421 302.011274 
L 264.67506 301.935107 
L 268.954338 301.363851 
L 272.163796 301.287683 
L 273.768525 301.135348 
L 274.838345 301.097265 
L 275.908164 300.983013 
L 277.512893 300.906846 
L 278.582713 300.754511 
L 281.257262 300.449841 
L 283.3969 300.373674 
L 284.46672 300.297506 
L 286.606359 300.221339 
L 287.676178 300.145172 
L 290.350727 299.878585 
L 291.420546 299.688167 
L 293.025276 299.650083 
L 294.095095 299.573916 
L 296.769644 299.497748 
L 303.72347 299.078827 
L 305.328199 299.00266 
L 312.282026 298.583739 
L 316.026394 298.507571 
L 316.561304 298.39332 
L 320.840582 298.317153 
L 324.58495 298.126734 
L 330.468957 298.050567 
L 334.213325 297.860148 
L 338.492603 297.783981 
L 342.77188 297.555478 
L 346.516249 297.479311 
L 356.679533 296.831888 
L 362.028631 296.75572 
L 364.16827 296.527218 
L 365.772999 296.489134 
L 367.377728 296.45105 
L 369.517367 296.222548 
L 374.866464 295.917878 
L 378.075923 295.841711 
L 379.680652 295.803627 
L 381.285381 295.765543 
L 382.89011 295.613208 
L 387.169388 295.537041 
L 388.239208 295.384706 
L 389.309027 295.308539 
L 391.983576 295.194287 
L 393.053395 295.11812 
L 394.123215 295.041953 
L 398.937402 294.965785 
L 400.007222 294.851534 
L 402.146861 294.81345 
L 402.68177 294.699199 
L 403.75159 294.623032 
L 404.286499 294.50878 
L 405.891229 294.432613 
L 410.705416 294.166027 
L 411.775236 294.127943 
L 413.379965 293.975608 
L 414.984694 293.937525 
L 416.589423 293.861357 
L 419.263972 293.747106 
L 426.752708 293.670938 
L 430.497076 293.48052 
L 434.776354 293.404352 
L 436.915993 293.328185 
L 439.055632 293.290101 
L 440.125451 293.17585 
L 442.26509 293.099683 
L 447.614188 292.795013 
L 450.823646 292.756929 
L 452.428375 292.604594 
L 454.033104 292.566511 
L 457.777472 292.490343 
L 459.917111 292.414176 
L 466.336028 292.338008 
L 469.010577 292.223757 
L 472.220035 292.14759 
L 473.824764 291.957171 
L 477.034223 291.919087 
L 478.638952 291.766752 
L 480.778591 291.690585 
L 487.197508 291.614417 
L 489.872056 291.500166 
L 498.965522 291.462083 
L 500.035341 291.385915 
L 501.64007 291.347831 
L 508.593897 291.271664 
L 509.663716 291.195496 
L 515.547723 291.119329 
L 517.687362 291.043162 
L 527.850647 290.966994 
L 529.455376 290.92891 
L 534.269564 290.852743 
L 535.339383 290.776575 
L 548.177217 290.700408 
L 549.781946 290.662324 
L 564.224509 290.586157 
L 565.829238 290.548073 
L 575.457613 290.471906 
L 576.527432 290.395738 
L 579.201981 290.319571 
L 580.80671 290.167236 
L 583.481259 290.091068 
L 586.690717 289.938734 
L 590.969995 289.862566 
L 592.039815 289.786399 
L 596.319093 289.710231 
L 599.528551 289.557896 
L 602.2031 289.481729 
L 606.482377 289.253227 
L 609.691836 289.177059 
L 611.831475 289.100892 
L 618.785301 289.024724 
L 620.92494 288.948557 
L 625.204218 288.872389 
L 628.948586 288.681971 
L 633.762774 288.605803 
L 634.832593 288.529636 
L 644.460968 288.453468 
L 646.065697 288.415385 
L 648.740246 288.377301 
L 650.879885 288.148799 
L 652.484614 288.110715 
L 655.694073 288.034547 
L 661.04317 287.729878 
L 663.717718 287.65371 
L 665.857357 287.577543 
L 671.741364 287.501375 
L 674.415913 287.196705 
L 676.555552 287.120538 
L 680.29992 287.044371 
L 680.83483 286.930119 
L 685.649017 286.853952 
L 688.323566 286.739701 
L 695.277393 286.701617 
L 695.812302 286.587366 
L 700.09158 286.511198 
L 701.696309 286.473115 
L 704.370858 286.396947 
L 705.975587 286.358864 
L 715.069053 286.282696 
L 717.743601 286.168445 
L 725.232337 286.092277 
L 727.371976 286.01611 
L 733.255983 285.939943 
L 733.790893 285.825691 
L 739.13999 285.787608 
L 740.20981 285.71144 
L 742.884359 285.635273 
L 744.489088 285.597189 
L 747.163636 285.559105 
L 747.163636 285.559105 
" clip-path="url(#p9061247343)" style="fill: none; stroke: #ff7f0e; stroke-width: 1.5; stroke-linecap: square"/>
   </g>
   <g id="patch_3">
    <path d="M 108 320.4 
L 108 43.2 
" style="fill: none; stroke: #a9a9a9; stroke-width: 0.8; stroke-linejoin: miter; stroke-linecap: square"/>
   </g>
   <g id="patch_4">
    <path d="M 777.6 320.4 
L 777.6 43.2 
" style="fill: none"/>
   </g>
   <g id="patch_5">
    <path d="M 108 320.4 
L 777.6 320.4 
" style="fill: none; stroke: #a9a9a9; stroke-width: 0.8; stroke-linejoin: miter; stroke-linecap: square"/>
   </g>
   <g id="patch_6">
    <path d="M 108 43.2 
L 777.6 43.2 
" style="fill: none"/>
   </g>
   <g id="text_20">
    <!-- get_subscribe history -->
    <g style="fill: #a9a9a9" transform="translate(378.6075 37.2) scale(0.12 -0.12)">
     <defs>
      <path id="DejaVuSans-67" d="M 2906 1791 
Q 2906 2416 2648 2759 
Q 2391 3103 1925 3103 
Q 1463 3103 1205 2759 
Q 947 2416 947 1791 
Q 947 1169 1205 825 
Q 1463 481 1925 481 
Q 2391 481 2648 825 
Q 2906 1169 2906 1791 
z
M 3481 434 
Q 3481 -459 3084 -895 
Q 2688 -1331 1869 -1331 
Q 1566 -1331 1297 -1286 
Q 1028 -1241 775 -1147 
L 775 -588 
Q 1028 -725 1275 -790 
Q 1522 -856 1778 -856 
Q 2344 -856 2625 -561 
Q 2906 -266 2906 331 
L 2906 616 
Q 2728 306 2450 153 
Q 2172 0 1784 0 
Q 1141 0 747 490 
Q 353 981 353 1791 
Q 353 2603 747 3093 
Q 1141 3584 1784 3584 
Q 2172 3584 2450 3431 
Q 2728 3278 2906 2969 
L 2906 3500 
L 3481 3500 
L 3481 434 
z
" transform="scale(0.015625)"/>
      <path id="DejaVuSans-65" d="M 3597 1894 
L 3597 1613 
L 953 1613 
Q 991 1019 1311 708 
Q 1631 397 2203 397 
Q 2534 397 2845 478 
Q 3156 559 3463 722 
L 3463 178 
Q 3153 47 2828 -22 
Q 2503 -91 2169 -91 
Q 1331 -91 842 396 
Q 353 884 353 1716 
Q 353 2575 817 3079 
Q 1281 3584 2069 3584 
Q 2775 3584 3186 3129 
Q 3597 2675 3597 1894 
z
M 3022 2063 
Q 3016 2534 2758 2815 
Q 2500 3097 2075 3097 
Q 1594 3097 1305 2825 
Q 1016 2553 972 2059 
L 3022 2063 
z
" transform="scale(0.015625)"/>
      <path id="DejaVuSans-74" d="M 1172 4494 
L 1172 3500 
L 2356 3500 
L 2356 3053 
L 1172 3053 
L 1172 1153 
Q 1172 725 1289 603 
Q 1406 481 1766 481 
L 2356 481 
L 2356 0 
L 1766 0 
Q 1100 0 847 248 
Q 594 497 594 1153 
L 594 3053 
L 172 3053 
L 172 3500 
L 594 3500 
L 594 4494 
L 1172 4494 
z
" transform="scale(0.015625)"/>
      <path id="DejaVuSans-5f" d="M 3263 -1063 
L 3263 -1509 
L -63 -1509 
L -63 -1063 
L 3263 -1063 
z
" transform="scale(0.015625)"/>
      <path id="DejaVuSans-73" d="M 2834 3397 
L 2834 2853 
Q 2591 2978 2328 3040 
Q 2066 3103 1784 3103 
Q 1356 3103 1142 2972 
Q 928 2841 928 2578 
Q 928 2378 1081 2264 
Q 1234 2150 1697 2047 
L 1894 2003 
Q 2506 1872 2764 1633 
Q 3022 1394 3022 966 
Q 3022 478 2636 193 
Q 2250 -91 1575 -91 
Q 1294 -91 989 -36 
Q 684 19 347 128 
L 347 722 
Q 666 556 975 473 
Q 1284 391 1588 391 
Q 1994 391 2212 530 
Q 2431 669 2431 922 
Q 2431 1156 2273 1281 
Q 2116 1406 1581 1522 
L 1381 1569 
Q 847 1681 609 1914 
Q 372 2147 372 2553 
Q 372 3047 722 3315 
Q 1072 3584 1716 3584 
Q 2034 3584 2315 3537 
Q 2597 3491 2834 3397 
z
" transform="scale(0.015625)"/>
      <path id="DejaVuSans-75" d="M 544 1381 
L 544 3500 
L 1119 3500 
L 1119 1403 
Q 1119 906 1312 657 
Q 1506 409 1894 409 
Q 2359 409 2629 706 
Q 2900 1003 2900 1516 
L 2900 3500 
L 3475 3500 
L 3475 0 
L 2900 0 
L 2900 538 
Q 2691 219 2414 64 
Q 2138 -91 1772 -91 
Q 1169 -91 856 284 
Q 544 659 544 1381 
z
M 1991 3584 
L 1991 3584 
z
" transform="scale(0.015625)"/>
      <path id="DejaVuSans-62" d="M 3116 1747 
Q 3116 2381 2855 2742 
Q 2594 3103 2138 3103 
Q 1681 3103 1420 2742 
Q 1159 2381 1159 1747 
Q 1159 1113 1420 752 
Q 1681 391 2138 391 
Q 2594 391 2855 752 
Q 3116 1113 3116 1747 
z
M 1159 2969 
Q 1341 3281 1617 3432 
Q 1894 3584 2278 3584 
Q 2916 3584 3314 3078 
Q 3713 2572 3713 1747 
Q 3713 922 3314 415 
Q 2916 -91 2278 -91 
Q 1894 -91 1617 61 
Q 1341 213 1159 525 
L 1159 0 
L 581 0 
L 581 4863 
L 1159 4863 
L 1159 2969 
z
" transform="scale(0.015625)"/>
      <path id="DejaVuSans-63" d="M 3122 3366 
L 3122 2828 
Q 2878 2963 2633 3030 
Q 2388 3097 2138 3097 
Q 1578 3097 1268 2742 
Q 959 2388 959 1747 
Q 959 1106 1268 751 
Q 1578 397 2138 397 
Q 2388 397 2633 464 
Q 2878 531 3122 666 
L 3122 134 
Q 2881 22 2623 -34 
Q 2366 -91 2075 -91 
Q 1284 -91 818 406 
Q 353 903 353 1747 
Q 353 2603 823 3093 
Q 1294 3584 2113 3584 
Q 2378 3584 2631 3529 
Q 2884 3475 3122 3366 
z
" transform="scale(0.015625)"/>
      <path id="DejaVuSans-72" d="M 2631 2963 
Q 2534 3019 2420 3045 
Q 2306 3072 2169 3072 
Q 1681 3072 1420 2755 
Q 1159 2438 1159 1844 
L 1159 0 
L 581 0 
L 581 3500 
L 1159 3500 
L 1159 2956 
Q 1341 3275 1631 3429 
Q 1922 3584 2338 3584 
Q 2397 3584 2469 3576 
Q 2541 3569 2628 3553 
L 2631 2963 
z
" transform="scale(0.015625)"/>
      <path id="DejaVuSans-69" d="M 603 3500 
L 1178 3500 
L 1178 0 
L 603 0 
L 603 3500 
z
M 603 4863 
L 1178 4863 
L 1178 4134 
L 603 4134 
L 603 4863 
z
" transform="scale(0.015625)"/>
      <path id="DejaVuSans-20" transform="scale(0.015625)"/>
      <path id="DejaVuSans-68" d="M 3513 2113 
L 3513 0 
L 2938 0 
L 2938 2094 
Q 2938 2591 2744 2837 
Q 2550 3084 2163 3084 
Q 1697 3084 1428 2787 
Q 1159 2491 1159 1978 
L 1159 0 
L 581 0 
L 581 4863 
L 1159 4863 
L 1159 2956 
Q 1366 3272 1645 3428 
Q 1925 3584 2291 3584 
Q 2894 3584 3203 3211 
Q 3513 2838 3513 2113 
z
" transform="scale(0.015625)"/>
      <path id="DejaVuSans-6f" d="M 1959 3097 
Q 1497 3097 1228 2736 
Q 959 2375 959 1747 
Q 959 1119 1226 758 
Q 1494 397 1959 397 
Q 2419 397 2687 759 
Q 2956 1122 2956 1747 
Q 2956 2369 2687 2733 
Q 2419 3097 1959 3097 
z
M 1959 3584 
Q 2709 3584 3137 3096 
Q 3566 2609 3566 1747 
Q 3566 888 3137 398 
Q 2709 -91 1959 -91 
Q 1206 -91 779 398 
Q 353 888 353 1747 
Q 353 2609 779 3096 
Q 1206 3584 1959 3584 
z
" transform="scale(0.015625)"/>
      <path id="DejaVuSans-79" d="M 2059 -325 
Q 1816 -950 1584 -1140 
Q 1353 -1331 966 -1331 
L 506 -1331 
L 506 -850 
L 844 -850 
Q 1081 -850 1212 -737 
Q 1344 -625 1503 -206 
L 1606 56 
L 191 3500 
L 800 3500 
L 1894 763 
L 2988 3500 
L 3597 3500 
L 2059 -325 
z
" transform="scale(0.015625)"/>
     </defs>
     <use xlink:href="#DejaVuSans-67"/>
     <use xlink:href="#DejaVuSans-65" x="63.476562"/>
     <use xlink:href="#DejaVuSans-74" x="125"/>
     <use xlink:href="#DejaVuSans-5f" x="164.208984"/>
     <use xlink:href="#DejaVuSans-73" x="214.208984"/>
     <use xlink:href="#DejaVuSans-75" x="266.308594"/>
     <use xlink:href="#DejaVuSans-62" x="329.6875"/>
     <use xlink:href="#DejaVuSans-73" x="393.164062"/>
     <use xlink:href="#DejaVuSans-63" x="445.263672"/>
     <use xlink:href="#DejaVuSans-72" x="500.244141"/>
     <use xlink:href="#DejaVuSans-69" x="541.357422"/>
     <use xlink:href="#DejaVuSans-62" x="569.140625"/>
     <use xlink:href="#DejaVuSans-65" x="632.617188"/>
     <use xlink:href="#DejaVuSans-20" x="694.140625"/>
     <use xlink:href="#DejaVuSans-68" x="725.927734"/>
     <use xlink:href="#DejaVuSans-69" x="789.306641"/>
     <use xlink:href="#DejaVuSans-73" x="817.089844"/>
     <use xlink:href="#DejaVuSans-74" x="869.189453"/>
     <use xlink:href="#DejaVuSans-6f" x="908.398438"/>
     <use xlink:href="#DejaVuSans-72" x="969.580078"/>
     <use xlink:href="#DejaVuSans-79" x="1010.693359"/>
    </g>
   </g>
   <g id="legend_1">
    <g id="line2d_41">
     <path d="M 815.08 328.498438 
L 825.08 328.498438 
L 835.08 328.498438 
" style="fill: none; stroke: #1f77b4; stroke-width: 1.5; stroke-linecap: square"/>
    </g>
    <g id="text_21">
     <!-- star -->
     <g style="fill: #a9a9a9" transform="translate(843.08 331.998438) scale(0.1 -0.1)">
      <defs>
       <path id="DejaVuSans-61" d="M 2194 1759 
Q 1497 1759 1228 1600 
Q 959 1441 959 1056 
Q 959 750 1161 570 
Q 1363 391 1709 391 
Q 2188 391 2477 730 
Q 2766 1069 2766 1631 
L 2766 1759 
L 2194 1759 
z
M 3341 1997 
L 3341 0 
L 2766 0 
L 2766 531 
Q 2569 213 2275 61 
Q 1981 -91 1556 -91 
Q 1019 -91 701 211 
Q 384 513 384 1019 
Q 384 1609 779 1909 
Q 1175 2209 1959 2209 
L 2766 2209 
L 2766 2266 
Q 2766 2663 2505 2880 
Q 2244 3097 1772 3097 
Q 1472 3097 1187 3025 
Q 903 2953 641 2809 
L 641 3341 
Q 956 3463 1253 3523 
Q 1550 3584 1831 3584 
Q 2591 3584 2966 3190 
Q 3341 2797 3341 1997 
z
" transform="scale(0.015625)"/>
      </defs>
      <use xlink:href="#DejaVuSans-73"/>
      <use xlink:href="#DejaVuSans-74" x="52.099609"/>
      <use xlink:href="#DejaVuSans-61" x="91.308594"/>
      <use xlink:href="#DejaVuSans-72" x="152.587891"/>
     </g>
    </g>
    <g id="line2d_42">
     <path d="M 815.08 343.176562 
L 825.08 343.176562 
L 835.08 343.176562 
" style="fill: none; stroke: #ff7f0e; stroke-width: 1.5; stroke-linecap: square"/>
    </g>
    <g id="text_22">
     <!-- fork -->
     <g style="fill: #a9a9a9" transform="translate(843.08 346.676562) scale(0.1 -0.1)">
      <defs>
       <path id="DejaVuSans-66" d="M 2375 4863 
L 2375 4384 
L 1825 4384 
Q 1516 4384 1395 4259 
Q 1275 4134 1275 3809 
L 1275 3500 
L 2222 3500 
L 2222 3053 
L 1275 3053 
L 1275 0 
L 697 0 
L 697 3053 
L 147 3053 
L 147 3500 
L 697 3500 
L 697 3744 
Q 697 4328 969 4595 
Q 1241 4863 1831 4863 
L 2375 4863 
z
" transform="scale(0.015625)"/>
       <path id="DejaVuSans-6b" d="M 581 4863 
L 1159 4863 
L 1159 1991 
L 2875 3500 
L 3609 3500 
L 1753 1863 
L 3688 0 
L 2938 0 
L 1159 1709 
L 1159 0 
L 581 0 
L 581 4863 
z
" transform="scale(0.015625)"/>
      </defs>
      <use xlink:href="#DejaVuSans-66"/>
      <use xlink:href="#DejaVuSans-6f" x="35.205078"/>
      <use xlink:href="#DejaVuSans-72" x="96.386719"/>
      <use xlink:href="#DejaVuSans-6b" x="137.5"/>
     </g>
    </g>
   </g>
  </g>
 </g>
 <defs>
  <clipPath id="p9061247343">
   <rect x="108" y="43.2" width="669.6" height="277.2"/>
  </clipPath>
 </defs>
</svg>
