<?xml version="1.0" encoding="utf-8" standalone="no"?>
<!DOCTYPE svg PUBLIC "-//W3C//DTD SVG 1.1//EN"
  "http://www.w3.org/Graphics/SVG/1.1/DTD/svg11.dtd">
<svg xmlns:xlink="http://www.w3.org/1999/xlink" width="864pt" height="360pt" viewBox="0 0 864 360" xmlns="http://www.w3.org/2000/svg" version="1.1">
 <metadata>
  <rdf:RDF xmlns:dc="http://purl.org/dc/elements/1.1/" xmlns:cc="http://creativecommons.org/ns#" xmlns:rdf="http://www.w3.org/1999/02/22-rdf-syntax-ns#">
   <cc:Work>
    <dc:type rdf:resource="http://purl.org/dc/dcmitype/StillImage"/>
    <dc:date>2024-09-05T08:12:48.672269</dc:date>
    <dc:format>image/svg+xml</dc:format>
    <dc:creator>
     <cc:Agent>
      <dc:title>Matplotlib v3.9.2, https://matplotlib.org/</dc:title>
     </cc:Agent>
    </dc:creator>
   </cc:Work>
  </rdf:RDF>
 </metadata>
 <defs>
  <style type="text/css">*{stroke-linejoin: round; stroke-linecap: butt}</style>
 </defs>
 <g id="figure_1">
  <g id="patch_1">
   <path d="M 0 360 
L 864 360 
L 864 0 
L 0 0 
L 0 360 
z
" style="fill: none; opacity: 0"/>
  </g>
  <g id="axes_1">
   <g id="patch_2">
    <path d="M 108 320.4 
L 777.6 320.4 
L 777.6 43.2 
L 108 43.2 
L 108 320.4 
z
" style="fill: none; opacity: 0"/>
   </g>
   <g id="matplotlib.axis_1">
    <g id="xtick_1">
     <g id="line2d_1">
      <path d="M 159.279527 320.4 
L 159.279527 43.2 
" clip-path="url(#p9b8f315e10)" style="fill: none; stroke-dasharray: 5.12,1.28,0.8,1.28; stroke-dashoffset: 0; stroke: #b0b0b0; stroke-width: 0.8"/>
     </g>
     <g id="line2d_2">
      <defs>
       <path id="mc33cb8e7a1" d="M 0 0 
L 0 3.5 
" style="stroke: #a9a9a9; stroke-width: 0.8"/>
      </defs>
      <g>
       <use xlink:href="#mc33cb8e7a1" x="159.279527" y="320.4" style="fill: #a9a9a9; stroke: #a9a9a9; stroke-width: 0.8"/>
      </g>
     </g>
     <g id="text_1">
      <!-- 2021-09 -->
      <g style="fill: #a9a9a9" transform="translate(138.388121 334.998438) scale(0.1 -0.1)">
       <defs>
        <path id="DejaVuSans-32" d="M 1228 531 
L 3431 531 
L 3431 0 
L 469 0 
L 469 531 
Q 828 903 1448 1529 
Q 2069 2156 2228 2338 
Q 2531 2678 2651 2914 
Q 2772 3150 2772 3378 
Q 2772 3750 2511 3984 
Q 2250 4219 1831 4219 
Q 1534 4219 1204 4116 
Q 875 4013 500 3803 
L 500 4441 
Q 881 4594 1212 4672 
Q 1544 4750 1819 4750 
Q 2544 4750 2975 4387 
Q 3406 4025 3406 3419 
Q 3406 3131 3298 2873 
Q 3191 2616 2906 2266 
Q 2828 2175 2409 1742 
Q 1991 1309 1228 531 
z
" transform="scale(0.015625)"/>
        <path id="DejaVuSans-30" d="M 2034 4250 
Q 1547 4250 1301 3770 
Q 1056 3291 1056 2328 
Q 1056 1369 1301 889 
Q 1547 409 2034 409 
Q 2525 409 2770 889 
Q 3016 1369 3016 2328 
Q 3016 3291 2770 3770 
Q 2525 4250 2034 4250 
z
M 2034 4750 
Q 2819 4750 3233 4129 
Q 3647 3509 3647 2328 
Q 3647 1150 3233 529 
Q 2819 -91 2034 -91 
Q 1250 -91 836 529 
Q 422 1150 422 2328 
Q 422 3509 836 4129 
Q 1250 4750 2034 4750 
z
" transform="scale(0.015625)"/>
        <path id="DejaVuSans-31" d="M 794 531 
L 1825 531 
L 1825 4091 
L 703 3866 
L 703 4441 
L 1819 4666 
L 2450 4666 
L 2450 531 
L 3481 531 
L 3481 0 
L 794 0 
L 794 531 
z
" transform="scale(0.015625)"/>
        <path id="DejaVuSans-2d" d="M 313 2009 
L 1997 2009 
L 1997 1497 
L 313 1497 
L 313 2009 
z
" transform="scale(0.015625)"/>
        <path id="DejaVuSans-39" d="M 703 97 
L 703 672 
Q 941 559 1184 500 
Q 1428 441 1663 441 
Q 2288 441 2617 861 
Q 2947 1281 2994 2138 
Q 2813 1869 2534 1725 
Q 2256 1581 1919 1581 
Q 1219 1581 811 2004 
Q 403 2428 403 3163 
Q 403 3881 828 4315 
Q 1253 4750 1959 4750 
Q 2769 4750 3195 4129 
Q 3622 3509 3622 2328 
Q 3622 1225 3098 567 
Q 2575 -91 1691 -91 
Q 1453 -91 1209 -44 
Q 966 3 703 97 
z
M 1959 2075 
Q 2384 2075 2632 2365 
Q 2881 2656 2881 3163 
Q 2881 3666 2632 3958 
Q 2384 4250 1959 4250 
Q 1534 4250 1286 3958 
Q 1038 3666 1038 3163 
Q 1038 2656 1286 2365 
Q 1534 2075 1959 2075 
z
" transform="scale(0.015625)"/>
       </defs>
       <use xlink:href="#DejaVuSans-32"/>
       <use xlink:href="#DejaVuSans-30" x="63.623047"/>
       <use xlink:href="#DejaVuSans-32" x="127.246094"/>
       <use xlink:href="#DejaVuSans-31" x="190.869141"/>
       <use xlink:href="#DejaVuSans-2d" x="254.492188"/>
       <use xlink:href="#DejaVuSans-30" x="290.576172"/>
       <use xlink:href="#DejaVuSans-39" x="354.199219"/>
      </g>
     </g>
    </g>
    <g id="xtick_2">
     <g id="line2d_3">
      <path d="M 224.48122 320.4 
L 224.48122 43.2 
" clip-path="url(#p9b8f315e10)" style="fill: none; stroke-dasharray: 5.12,1.28,0.8,1.28; stroke-dashoffset: 0; stroke: #b0b0b0; stroke-width: 0.8"/>
     </g>
     <g id="line2d_4">
      <g>
       <use xlink:href="#mc33cb8e7a1" x="224.48122" y="320.4" style="fill: #a9a9a9; stroke: #a9a9a9; stroke-width: 0.8"/>
      </g>
     </g>
     <g id="text_2">
      <!-- 2022-01 -->
      <g style="fill: #a9a9a9" transform="translate(203.589813 334.998438) scale(0.1 -0.1)">
       <use xlink:href="#DejaVuSans-32"/>
       <use xlink:href="#DejaVuSans-30" x="63.623047"/>
       <use xlink:href="#DejaVuSans-32" x="127.246094"/>
       <use xlink:href="#DejaVuSans-32" x="190.869141"/>
       <use xlink:href="#DejaVuSans-2d" x="254.492188"/>
       <use xlink:href="#DejaVuSans-30" x="290.576172"/>
       <use xlink:href="#DejaVuSans-31" x="354.199219"/>
      </g>
     </g>
    </g>
    <g id="xtick_3">
     <g id="line2d_5">
      <path d="M 288.614031 320.4 
L 288.614031 43.2 
" clip-path="url(#p9b8f315e10)" style="fill: none; stroke-dasharray: 5.12,1.28,0.8,1.28; stroke-dashoffset: 0; stroke: #b0b0b0; stroke-width: 0.8"/>
     </g>
     <g id="line2d_6">
      <g>
       <use xlink:href="#mc33cb8e7a1" x="288.614031" y="320.4" style="fill: #a9a9a9; stroke: #a9a9a9; stroke-width: 0.8"/>
      </g>
     </g>
     <g id="text_3">
      <!-- 2022-05 -->
      <g style="fill: #a9a9a9" transform="translate(267.722625 334.998438) scale(0.1 -0.1)">
       <defs>
        <path id="DejaVuSans-35" d="M 691 4666 
L 3169 4666 
L 3169 4134 
L 1269 4134 
L 1269 2991 
Q 1406 3038 1543 3061 
Q 1681 3084 1819 3084 
Q 2600 3084 3056 2656 
Q 3513 2228 3513 1497 
Q 3513 744 3044 326 
Q 2575 -91 1722 -91 
Q 1428 -91 1123 -41 
Q 819 9 494 109 
L 494 744 
Q 775 591 1075 516 
Q 1375 441 1709 441 
Q 2250 441 2565 725 
Q 2881 1009 2881 1497 
Q 2881 1984 2565 2268 
Q 2250 2553 1709 2553 
Q 1456 2553 1204 2497 
Q 953 2441 691 2322 
L 691 4666 
z
" transform="scale(0.015625)"/>
       </defs>
       <use xlink:href="#DejaVuSans-32"/>
       <use xlink:href="#DejaVuSans-30" x="63.623047"/>
       <use xlink:href="#DejaVuSans-32" x="127.246094"/>
       <use xlink:href="#DejaVuSans-32" x="190.869141"/>
       <use xlink:href="#DejaVuSans-2d" x="254.492188"/>
       <use xlink:href="#DejaVuSans-30" x="290.576172"/>
       <use xlink:href="#DejaVuSans-35" x="354.199219"/>
      </g>
     </g>
    </g>
    <g id="xtick_4">
     <g id="line2d_7">
      <path d="M 354.350164 320.4 
L 354.350164 43.2 
" clip-path="url(#p9b8f315e10)" style="fill: none; stroke-dasharray: 5.12,1.28,0.8,1.28; stroke-dashoffset: 0; stroke: #b0b0b0; stroke-width: 0.8"/>
     </g>
     <g id="line2d_8">
      <g>
       <use xlink:href="#mc33cb8e7a1" x="354.350164" y="320.4" style="fill: #a9a9a9; stroke: #a9a9a9; stroke-width: 0.8"/>
      </g>
     </g>
     <g id="text_4">
      <!-- 2022-09 -->
      <g style="fill: #a9a9a9" transform="translate(333.458757 334.998438) scale(0.1 -0.1)">
       <use xlink:href="#DejaVuSans-32"/>
       <use xlink:href="#DejaVuSans-30" x="63.623047"/>
       <use xlink:href="#DejaVuSans-32" x="127.246094"/>
       <use xlink:href="#DejaVuSans-32" x="190.869141"/>
       <use xlink:href="#DejaVuSans-2d" x="254.492188"/>
       <use xlink:href="#DejaVuSans-30" x="290.576172"/>
       <use xlink:href="#DejaVuSans-39" x="354.199219"/>
      </g>
     </g>
    </g>
    <g id="xtick_5">
     <g id="line2d_9">
      <path d="M 419.551856 320.4 
L 419.551856 43.2 
" clip-path="url(#p9b8f315e10)" style="fill: none; stroke-dasharray: 5.12,1.28,0.8,1.28; stroke-dashoffset: 0; stroke: #b0b0b0; stroke-width: 0.8"/>
     </g>
     <g id="line2d_10">
      <g>
       <use xlink:href="#mc33cb8e7a1" x="419.551856" y="320.4" style="fill: #a9a9a9; stroke: #a9a9a9; stroke-width: 0.8"/>
      </g>
     </g>
     <g id="text_5">
      <!-- 2023-01 -->
      <g style="fill: #a9a9a9" transform="translate(398.660449 334.998438) scale(0.1 -0.1)">
       <defs>
        <path id="DejaVuSans-33" d="M 2597 2516 
Q 3050 2419 3304 2112 
Q 3559 1806 3559 1356 
Q 3559 666 3084 287 
Q 2609 -91 1734 -91 
Q 1441 -91 1130 -33 
Q 819 25 488 141 
L 488 750 
Q 750 597 1062 519 
Q 1375 441 1716 441 
Q 2309 441 2620 675 
Q 2931 909 2931 1356 
Q 2931 1769 2642 2001 
Q 2353 2234 1838 2234 
L 1294 2234 
L 1294 2753 
L 1863 2753 
Q 2328 2753 2575 2939 
Q 2822 3125 2822 3475 
Q 2822 3834 2567 4026 
Q 2313 4219 1838 4219 
Q 1578 4219 1281 4162 
Q 984 4106 628 3988 
L 628 4550 
Q 988 4650 1302 4700 
Q 1616 4750 1894 4750 
Q 2613 4750 3031 4423 
Q 3450 4097 3450 3541 
Q 3450 3153 3228 2886 
Q 3006 2619 2597 2516 
z
" transform="scale(0.015625)"/>
       </defs>
       <use xlink:href="#DejaVuSans-32"/>
       <use xlink:href="#DejaVuSans-30" x="63.623047"/>
       <use xlink:href="#DejaVuSans-32" x="127.246094"/>
       <use xlink:href="#DejaVuSans-33" x="190.869141"/>
       <use xlink:href="#DejaVuSans-2d" x="254.492188"/>
       <use xlink:href="#DejaVuSans-30" x="290.576172"/>
       <use xlink:href="#DejaVuSans-31" x="354.199219"/>
      </g>
     </g>
    </g>
    <g id="xtick_6">
     <g id="line2d_11">
      <path d="M 483.684668 320.4 
L 483.684668 43.2 
" clip-path="url(#p9b8f315e10)" style="fill: none; stroke-dasharray: 5.12,1.28,0.8,1.28; stroke-dashoffset: 0; stroke: #b0b0b0; stroke-width: 0.8"/>
     </g>
     <g id="line2d_12">
      <g>
       <use xlink:href="#mc33cb8e7a1" x="483.684668" y="320.4" style="fill: #a9a9a9; stroke: #a9a9a9; stroke-width: 0.8"/>
      </g>
     </g>
     <g id="text_6">
      <!-- 2023-05 -->
      <g style="fill: #a9a9a9" transform="translate(462.793261 334.998438) scale(0.1 -0.1)">
       <use xlink:href="#DejaVuSans-32"/>
       <use xlink:href="#DejaVuSans-30" x="63.623047"/>
       <use xlink:href="#DejaVuSans-32" x="127.246094"/>
       <use xlink:href="#DejaVuSans-33" x="190.869141"/>
       <use xlink:href="#DejaVuSans-2d" x="254.492188"/>
       <use xlink:href="#DejaVuSans-30" x="290.576172"/>
       <use xlink:href="#DejaVuSans-35" x="354.199219"/>
      </g>
     </g>
    </g>
    <g id="xtick_7">
     <g id="line2d_13">
      <path d="M 549.4208 320.4 
L 549.4208 43.2 
" clip-path="url(#p9b8f315e10)" style="fill: none; stroke-dasharray: 5.12,1.28,0.8,1.28; stroke-dashoffset: 0; stroke: #b0b0b0; stroke-width: 0.8"/>
     </g>
     <g id="line2d_14">
      <g>
       <use xlink:href="#mc33cb8e7a1" x="549.4208" y="320.4" style="fill: #a9a9a9; stroke: #a9a9a9; stroke-width: 0.8"/>
      </g>
     </g>
     <g id="text_7">
      <!-- 2023-09 -->
      <g style="fill: #a9a9a9" transform="translate(528.529393 334.998438) scale(0.1 -0.1)">
       <use xlink:href="#DejaVuSans-32"/>
       <use xlink:href="#DejaVuSans-30" x="63.623047"/>
       <use xlink:href="#DejaVuSans-32" x="127.246094"/>
       <use xlink:href="#DejaVuSans-33" x="190.869141"/>
       <use xlink:href="#DejaVuSans-2d" x="254.492188"/>
       <use xlink:href="#DejaVuSans-30" x="290.576172"/>
       <use xlink:href="#DejaVuSans-39" x="354.199219"/>
      </g>
     </g>
    </g>
    <g id="xtick_8">
     <g id="line2d_15">
      <path d="M 614.622492 320.4 
L 614.622492 43.2 
" clip-path="url(#p9b8f315e10)" style="fill: none; stroke-dasharray: 5.12,1.28,0.8,1.28; stroke-dashoffset: 0; stroke: #b0b0b0; stroke-width: 0.8"/>
     </g>
     <g id="line2d_16">
      <g>
       <use xlink:href="#mc33cb8e7a1" x="614.622492" y="320.4" style="fill: #a9a9a9; stroke: #a9a9a9; stroke-width: 0.8"/>
      </g>
     </g>
     <g id="text_8">
      <!-- 2024-01 -->
      <g style="fill: #a9a9a9" transform="translate(593.731086 334.998438) scale(0.1 -0.1)">
       <defs>
        <path id="DejaVuSans-34" d="M 2419 4116 
L 825 1625 
L 2419 1625 
L 2419 4116 
z
M 2253 4666 
L 3047 4666 
L 3047 1625 
L 3713 1625 
L 3713 1100 
L 3047 1100 
L 3047 0 
L 2419 0 
L 2419 1100 
L 313 1100 
L 313 1709 
L 2253 4666 
z
" transform="scale(0.015625)"/>
       </defs>
       <use xlink:href="#DejaVuSans-32"/>
       <use xlink:href="#DejaVuSans-30" x="63.623047"/>
       <use xlink:href="#DejaVuSans-32" x="127.246094"/>
       <use xlink:href="#DejaVuSans-34" x="190.869141"/>
       <use xlink:href="#DejaVuSans-2d" x="254.492188"/>
       <use xlink:href="#DejaVuSans-30" x="290.576172"/>
       <use xlink:href="#DejaVuSans-31" x="354.199219"/>
      </g>
     </g>
    </g>
    <g id="xtick_9">
     <g id="line2d_17">
      <path d="M 679.289744 320.4 
L 679.289744 43.2 
" clip-path="url(#p9b8f315e10)" style="fill: none; stroke-dasharray: 5.12,1.28,0.8,1.28; stroke-dashoffset: 0; stroke: #b0b0b0; stroke-width: 0.8"/>
     </g>
     <g id="line2d_18">
      <g>
       <use xlink:href="#mc33cb8e7a1" x="679.289744" y="320.4" style="fill: #a9a9a9; stroke: #a9a9a9; stroke-width: 0.8"/>
      </g>
     </g>
     <g id="text_9">
      <!-- 2024-05 -->
      <g style="fill: #a9a9a9" transform="translate(658.398338 334.998438) scale(0.1 -0.1)">
       <use xlink:href="#DejaVuSans-32"/>
       <use xlink:href="#DejaVuSans-30" x="63.623047"/>
       <use xlink:href="#DejaVuSans-32" x="127.246094"/>
       <use xlink:href="#DejaVuSans-34" x="190.869141"/>
       <use xlink:href="#DejaVuSans-2d" x="254.492188"/>
       <use xlink:href="#DejaVuSans-30" x="290.576172"/>
       <use xlink:href="#DejaVuSans-35" x="354.199219"/>
      </g>
     </g>
    </g>
    <g id="xtick_10">
     <g id="line2d_19">
      <path d="M 745.025876 320.4 
L 745.025876 43.2 
" clip-path="url(#p9b8f315e10)" style="fill: none; stroke-dasharray: 5.12,1.28,0.8,1.28; stroke-dashoffset: 0; stroke: #b0b0b0; stroke-width: 0.8"/>
     </g>
     <g id="line2d_20">
      <g>
       <use xlink:href="#mc33cb8e7a1" x="745.025876" y="320.4" style="fill: #a9a9a9; stroke: #a9a9a9; stroke-width: 0.8"/>
      </g>
     </g>
     <g id="text_10">
      <!-- 2024-09 -->
      <g style="fill: #a9a9a9" transform="translate(724.13447 334.998438) scale(0.1 -0.1)">
       <use xlink:href="#DejaVuSans-32"/>
       <use xlink:href="#DejaVuSans-30" x="63.623047"/>
       <use xlink:href="#DejaVuSans-32" x="127.246094"/>
       <use xlink:href="#DejaVuSans-34" x="190.869141"/>
       <use xlink:href="#DejaVuSans-2d" x="254.492188"/>
       <use xlink:href="#DejaVuSans-30" x="290.576172"/>
       <use xlink:href="#DejaVuSans-39" x="354.199219"/>
      </g>
     </g>
    </g>
   </g>
   <g id="matplotlib.axis_2">
    <g id="ytick_1">
     <g id="line2d_21">
      <path d="M 108 307.838072 
L 777.6 307.838072 
" clip-path="url(#p9b8f315e10)" style="fill: none; stroke-dasharray: 5.12,1.28,0.8,1.28; stroke-dashoffset: 0; stroke: #b0b0b0; stroke-width: 0.8"/>
     </g>
     <g id="line2d_22">
      <defs>
       <path id="m79f3b98426" d="M 0 0 
L -3.5 0 
" style="stroke: #a9a9a9; stroke-width: 0.8"/>
      </defs>
      <g>
       <use xlink:href="#m79f3b98426" x="108" y="307.838072" style="fill: #a9a9a9; stroke: #a9a9a9; stroke-width: 0.8"/>
      </g>
     </g>
     <g id="text_11">
      <!-- 0 -->
      <g style="fill: #a9a9a9" transform="translate(94.6375 311.637291) scale(0.1 -0.1)">
       <use xlink:href="#DejaVuSans-30"/>
      </g>
     </g>
    </g>
    <g id="ytick_2">
     <g id="line2d_23">
      <path d="M 108 277.380299 
L 777.6 277.380299 
" clip-path="url(#p9b8f315e10)" style="fill: none; stroke-dasharray: 5.12,1.28,0.8,1.28; stroke-dashoffset: 0; stroke: #b0b0b0; stroke-width: 0.8"/>
     </g>
     <g id="line2d_24">
      <g>
       <use xlink:href="#m79f3b98426" x="108" y="277.380299" style="fill: #a9a9a9; stroke: #a9a9a9; stroke-width: 0.8"/>
      </g>
     </g>
     <g id="text_12">
      <!-- 800 -->
      <g style="fill: #a9a9a9" transform="translate(81.9125 281.179518) scale(0.1 -0.1)">
       <defs>
        <path id="DejaVuSans-38" d="M 2034 2216 
Q 1584 2216 1326 1975 
Q 1069 1734 1069 1313 
Q 1069 891 1326 650 
Q 1584 409 2034 409 
Q 2484 409 2743 651 
Q 3003 894 3003 1313 
Q 3003 1734 2745 1975 
Q 2488 2216 2034 2216 
z
M 1403 2484 
Q 997 2584 770 2862 
Q 544 3141 544 3541 
Q 544 4100 942 4425 
Q 1341 4750 2034 4750 
Q 2731 4750 3128 4425 
Q 3525 4100 3525 3541 
Q 3525 3141 3298 2862 
Q 3072 2584 2669 2484 
Q 3125 2378 3379 2068 
Q 3634 1759 3634 1313 
Q 3634 634 3220 271 
Q 2806 -91 2034 -91 
Q 1263 -91 848 271 
Q 434 634 434 1313 
Q 434 1759 690 2068 
Q 947 2378 1403 2484 
z
M 1172 3481 
Q 1172 3119 1398 2916 
Q 1625 2713 2034 2713 
Q 2441 2713 2670 2916 
Q 2900 3119 2900 3481 
Q 2900 3844 2670 4047 
Q 2441 4250 2034 4250 
Q 1625 4250 1398 4047 
Q 1172 3844 1172 3481 
z
" transform="scale(0.015625)"/>
       </defs>
       <use xlink:href="#DejaVuSans-38"/>
       <use xlink:href="#DejaVuSans-30" x="63.623047"/>
       <use xlink:href="#DejaVuSans-30" x="127.246094"/>
      </g>
     </g>
    </g>
    <g id="ytick_3">
     <g id="line2d_25">
      <path d="M 108 246.922526 
L 777.6 246.922526 
" clip-path="url(#p9b8f315e10)" style="fill: none; stroke-dasharray: 5.12,1.28,0.8,1.28; stroke-dashoffset: 0; stroke: #b0b0b0; stroke-width: 0.8"/>
     </g>
     <g id="line2d_26">
      <g>
       <use xlink:href="#m79f3b98426" x="108" y="246.922526" style="fill: #a9a9a9; stroke: #a9a9a9; stroke-width: 0.8"/>
      </g>
     </g>
     <g id="text_13">
      <!-- 1600 -->
      <g style="fill: #a9a9a9" transform="translate(75.55 250.721745) scale(0.1 -0.1)">
       <defs>
        <path id="DejaVuSans-36" d="M 2113 2584 
Q 1688 2584 1439 2293 
Q 1191 2003 1191 1497 
Q 1191 994 1439 701 
Q 1688 409 2113 409 
Q 2538 409 2786 701 
Q 3034 994 3034 1497 
Q 3034 2003 2786 2293 
Q 2538 2584 2113 2584 
z
M 3366 4563 
L 3366 3988 
Q 3128 4100 2886 4159 
Q 2644 4219 2406 4219 
Q 1781 4219 1451 3797 
Q 1122 3375 1075 2522 
Q 1259 2794 1537 2939 
Q 1816 3084 2150 3084 
Q 2853 3084 3261 2657 
Q 3669 2231 3669 1497 
Q 3669 778 3244 343 
Q 2819 -91 2113 -91 
Q 1303 -91 875 529 
Q 447 1150 447 2328 
Q 447 3434 972 4092 
Q 1497 4750 2381 4750 
Q 2619 4750 2861 4703 
Q 3103 4656 3366 4563 
z
" transform="scale(0.015625)"/>
       </defs>
       <use xlink:href="#DejaVuSans-31"/>
       <use xlink:href="#DejaVuSans-36" x="63.623047"/>
       <use xlink:href="#DejaVuSans-30" x="127.246094"/>
       <use xlink:href="#DejaVuSans-30" x="190.869141"/>
      </g>
     </g>
    </g>
    <g id="ytick_4">
     <g id="line2d_27">
      <path d="M 108 216.464753 
L 777.6 216.464753 
" clip-path="url(#p9b8f315e10)" style="fill: none; stroke-dasharray: 5.12,1.28,0.8,1.28; stroke-dashoffset: 0; stroke: #b0b0b0; stroke-width: 0.8"/>
     </g>
     <g id="line2d_28">
      <g>
       <use xlink:href="#m79f3b98426" x="108" y="216.464753" style="fill: #a9a9a9; stroke: #a9a9a9; stroke-width: 0.8"/>
      </g>
     </g>
     <g id="text_14">
      <!-- 2400 -->
      <g style="fill: #a9a9a9" transform="translate(75.55 220.263972) scale(0.1 -0.1)">
       <use xlink:href="#DejaVuSans-32"/>
       <use xlink:href="#DejaVuSans-34" x="63.623047"/>
       <use xlink:href="#DejaVuSans-30" x="127.246094"/>
       <use xlink:href="#DejaVuSans-30" x="190.869141"/>
      </g>
     </g>
    </g>
    <g id="ytick_5">
     <g id="line2d_29">
      <path d="M 108 186.00698 
L 777.6 186.00698 
" clip-path="url(#p9b8f315e10)" style="fill: none; stroke-dasharray: 5.12,1.28,0.8,1.28; stroke-dashoffset: 0; stroke: #b0b0b0; stroke-width: 0.8"/>
     </g>
     <g id="line2d_30">
      <g>
       <use xlink:href="#m79f3b98426" x="108" y="186.00698" style="fill: #a9a9a9; stroke: #a9a9a9; stroke-width: 0.8"/>
      </g>
     </g>
     <g id="text_15">
      <!-- 3200 -->
      <g style="fill: #a9a9a9" transform="translate(75.55 189.806199) scale(0.1 -0.1)">
       <use xlink:href="#DejaVuSans-33"/>
       <use xlink:href="#DejaVuSans-32" x="63.623047"/>
       <use xlink:href="#DejaVuSans-30" x="127.246094"/>
       <use xlink:href="#DejaVuSans-30" x="190.869141"/>
      </g>
     </g>
    </g>
    <g id="ytick_6">
     <g id="line2d_31">
      <path d="M 108 155.549207 
L 777.6 155.549207 
" clip-path="url(#p9b8f315e10)" style="fill: none; stroke-dasharray: 5.12,1.28,0.8,1.28; stroke-dashoffset: 0; stroke: #b0b0b0; stroke-width: 0.8"/>
     </g>
     <g id="line2d_32">
      <g>
       <use xlink:href="#m79f3b98426" x="108" y="155.549207" style="fill: #a9a9a9; stroke: #a9a9a9; stroke-width: 0.8"/>
      </g>
     </g>
     <g id="text_16">
      <!-- 4000 -->
      <g style="fill: #a9a9a9" transform="translate(75.55 159.348426) scale(0.1 -0.1)">
       <use xlink:href="#DejaVuSans-34"/>
       <use xlink:href="#DejaVuSans-30" x="63.623047"/>
       <use xlink:href="#DejaVuSans-30" x="127.246094"/>
       <use xlink:href="#DejaVuSans-30" x="190.869141"/>
      </g>
     </g>
    </g>
    <g id="ytick_7">
     <g id="line2d_33">
      <path d="M 108 125.091434 
L 777.6 125.091434 
" clip-path="url(#p9b8f315e10)" style="fill: none; stroke-dasharray: 5.12,1.28,0.8,1.28; stroke-dashoffset: 0; stroke: #b0b0b0; stroke-width: 0.8"/>
     </g>
     <g id="line2d_34">
      <g>
       <use xlink:href="#m79f3b98426" x="108" y="125.091434" style="fill: #a9a9a9; stroke: #a9a9a9; stroke-width: 0.8"/>
      </g>
     </g>
     <g id="text_17">
      <!-- 4800 -->
      <g style="fill: #a9a9a9" transform="translate(75.55 128.890653) scale(0.1 -0.1)">
       <use xlink:href="#DejaVuSans-34"/>
       <use xlink:href="#DejaVuSans-38" x="63.623047"/>
       <use xlink:href="#DejaVuSans-30" x="127.246094"/>
       <use xlink:href="#DejaVuSans-30" x="190.869141"/>
      </g>
     </g>
    </g>
    <g id="ytick_8">
     <g id="line2d_35">
      <path d="M 108 94.633661 
L 777.6 94.633661 
" clip-path="url(#p9b8f315e10)" style="fill: none; stroke-dasharray: 5.12,1.28,0.8,1.28; stroke-dashoffset: 0; stroke: #b0b0b0; stroke-width: 0.8"/>
     </g>
     <g id="line2d_36">
      <g>
       <use xlink:href="#m79f3b98426" x="108" y="94.633661" style="fill: #a9a9a9; stroke: #a9a9a9; stroke-width: 0.8"/>
      </g>
     </g>
     <g id="text_18">
      <!-- 5600 -->
      <g style="fill: #a9a9a9" transform="translate(75.55 98.432879) scale(0.1 -0.1)">
       <use xlink:href="#DejaVuSans-35"/>
       <use xlink:href="#DejaVuSans-36" x="63.623047"/>
       <use xlink:href="#DejaVuSans-30" x="127.246094"/>
       <use xlink:href="#DejaVuSans-30" x="190.869141"/>
      </g>
     </g>
    </g>
    <g id="ytick_9">
     <g id="line2d_37">
      <path d="M 108 64.175888 
L 777.6 64.175888 
" clip-path="url(#p9b8f315e10)" style="fill: none; stroke-dasharray: 5.12,1.28,0.8,1.28; stroke-dashoffset: 0; stroke: #b0b0b0; stroke-width: 0.8"/>
     </g>
     <g id="line2d_38">
      <g>
       <use xlink:href="#m79f3b98426" x="108" y="64.175888" style="fill: #a9a9a9; stroke: #a9a9a9; stroke-width: 0.8"/>
      </g>
     </g>
     <g id="text_19">
      <!-- 6400 -->
      <g style="fill: #a9a9a9" transform="translate(75.55 67.975106) scale(0.1 -0.1)">
       <use xlink:href="#DejaVuSans-36"/>
       <use xlink:href="#DejaVuSans-34" x="63.623047"/>
       <use xlink:href="#DejaVuSans-30" x="127.246094"/>
       <use xlink:href="#DejaVuSans-30" x="190.869141"/>
      </g>
     </g>
    </g>
   </g>
   <g id="line2d_39">
    <path d="M 138.436364 307.723856 
L 141.643004 307.45735 
L 142.177444 307.228917 
L 143.780765 307.076628 
L 146.987405 306.4294 
L 150.194046 306.162895 
L 151.262926 305.7441 
L 151.797366 305.0588 
L 152.331806 304.678078 
L 152.866246 303.49784 
L 153.400686 303.421695 
L 153.935127 303.002901 
L 155.004007 302.46989 
L 157.141767 300.794712 
L 159.279527 299.766762 
L 160.882848 299.04339 
L 161.417288 298.205801 
L 162.486168 297.444357 
L 163.020608 297.215924 
L 168.365009 296.45448 
L 168.899449 296.187974 
L 172.64053 295.883396 
L 174.77829 295.388457 
L 179.053811 294.817374 
L 179.588251 294.512796 
L 180.122691 294.436652 
L 181.191572 294.094002 
L 184.932652 293.484847 
L 186.001532 293.180269 
L 187.604853 293.02798 
L 188.673733 292.913763 
L 191.345933 292.228464 
L 192.414814 292.152319 
L 193.483694 292.00003 
L 194.552574 291.771597 
L 195.087014 291.619308 
L 195.621454 290.895936 
L 197.224775 290.28678 
L 198.828095 289.867986 
L 199.362535 289.601481 
L 199.896975 289.563408 
L 202.569176 288.801964 
L 203.638056 288.72582 
L 204.172496 288.649675 
L 205.775816 288.154736 
L 207.913577 287.621725 
L 208.448017 287.393292 
L 208.982457 287.317148 
L 209.516897 287.050642 
L 214.861298 286.251126 
L 217.533498 285.489681 
L 218.067938 285.147031 
L 220.740139 284.27137 
L 221.809019 283.547998 
L 223.412339 283.24342 
L 233.566701 280.31186 
L 234.635581 279.893065 
L 235.704462 279.816921 
L 237.307782 279.360054 
L 237.842222 279.360054 
L 238.376662 279.131621 
L 239.445542 279.017404 
L 239.979982 278.827043 
L 241.048863 278.788971 
L 243.186623 278.522466 
L 244.255503 277.989455 
L 250.668784 275.134038 
L 251.203225 274.562955 
L 252.272105 272.963922 
L 252.806545 272.811633 
L 253.340985 272.811633 
L 254.409865 272.012117 
L 256.013185 271.479106 
L 256.547626 270.984167 
L 257.616506 270.565372 
L 258.685386 270.070434 
L 259.754266 268.547545 
L 260.288706 268.204895 
L 260.823146 267.291162 
L 261.357586 266.720079 
L 264.564227 265.044901 
L 265.633107 264.207312 
L 266.167547 263.864662 
L 266.701987 263.065146 
L 267.236427 261.884907 
L 267.770868 261.085391 
L 268.305308 260.666596 
L 268.839748 260.438163 
L 270.443068 259.029491 
L 272.580828 257.278169 
L 273.115269 256.554797 
L 274.184149 255.602991 
L 276.321909 254.194319 
L 276.856349 253.737453 
L 277.390789 253.623236 
L 278.45967 253.052153 
L 280.59743 251.948059 
L 281.66631 250.920109 
L 282.20075 250.272881 
L 283.26963 249.511437 
L 284.338511 249.092642 
L 285.407391 248.36927 
L 285.941831 248.064693 
L 286.476271 247.988548 
L 290.217352 245.666143 
L 292.355112 244.523976 
L 292.889552 244.029038 
L 301.440594 241.059405 
L 302.509474 240.107599 
L 303.578354 239.612661 
L 304.647234 239.041577 
L 305.181675 238.737 
L 306.250555 238.432422 
L 306.784995 238.089772 
L 307.319435 237.937483 
L 308.922755 236.909533 
L 311.594956 236.300378 
L 313.198276 235.386645 
L 313.732716 235.3105 
L 314.801596 235.043995 
L 315.336036 234.891706 
L 316.939357 233.673395 
L 318.542677 233.292673 
L 319.077117 233.102312 
L 319.611557 232.683517 
L 322.818198 231.617495 
L 323.352638 231.579423 
L 324.421518 231.160628 
L 328.697039 229.63774 
L 329.765919 229.485451 
L 331.369239 228.95244 
L 334.04144 227.696057 
L 336.1792 226.55389 
L 340.454721 224.840641 
L 340.989161 224.764496 
L 342.058041 224.117268 
L 342.592481 224.041124 
L 344.730242 223.165463 
L 346.868002 222.860885 
L 347.936882 222.327874 
L 348.471323 221.871008 
L 349.005763 220.919202 
L 350.609083 220.614625 
L 352.746843 219.548603 
L 353.281283 219.434386 
L 357.556804 217.416558 
L 359.160125 217.073908 
L 360.229005 216.540897 
L 360.763445 216.312464 
L 361.297885 216.23632 
L 363.435645 215.284514 
L 365.038966 214.294637 
L 365.573406 214.218492 
L 366.107846 214.028131 
L 366.642286 213.990059 
L 369.314486 213.342831 
L 369.848926 212.924037 
L 371.452247 212.352954 
L 373.590007 211.515365 
L 374.124447 211.134643 
L 374.658887 210.944282 
L 375.727768 210.373198 
L 378.399968 209.497537 
L 380.003288 208.241154 
L 380.537728 208.126938 
L 381.606609 207.289349 
L 382.141049 207.213204 
L 382.675489 206.375616 
L 383.209929 206.147182 
L 383.744369 205.728388 
L 384.278809 205.652244 
L 385.347689 205.005016 
L 385.882129 204.890799 
L 386.41657 204.662366 
L 386.95101 204.243572 
L 387.48545 204.05321 
L 389.08877 202.949116 
L 391.22653 201.845022 
L 391.760971 201.768877 
L 393.364291 200.969361 
L 393.898731 200.0937 
L 394.433171 199.636833 
L 394.967611 199.332256 
L 395.502051 199.218039 
L 396.570931 198.532739 
L 397.105372 198.418522 
L 398.174252 197.885511 
L 399.777572 197.200212 
L 400.846452 196.438767 
L 402.449773 194.992023 
L 403.518653 194.382868 
L 404.053093 193.811784 
L 406.190853 192.36504 
L 406.725293 191.755885 
L 407.259733 191.33709 
L 408.328614 190.956368 
L 409.397494 190.232996 
L 411.000814 189.433479 
L 411.535254 189.357335 
L 413.138575 188.481674 
L 414.207455 187.834446 
L 419.551856 185.930835 
L 420.086296 185.512041 
L 422.224056 184.712525 
L 422.758496 184.560236 
L 423.292936 184.141441 
L 425.965137 182.694697 
L 427.034017 180.600725 
L 428.102897 179.382414 
L 429.171777 178.735187 
L 430.775098 178.087959 
L 431.309538 178.011814 
L 431.843978 177.707237 
L 434.516178 176.869648 
L 435.050619 176.641215 
L 436.119499 175.917843 
L 437.722819 175.232543 
L 438.791699 174.661459 
L 439.326139 174.280737 
L 439.860579 174.052304 
L 440.39502 173.671582 
L 440.92946 173.100499 
L 441.99834 172.529415 
L 444.67054 171.120743 
L 447.877181 169.559782 
L 448.411621 169.445566 
L 450.014941 168.874483 
L 451.083822 168.455688 
L 451.618262 168.074966 
L 452.687142 167.770388 
L 453.756022 167.351594 
L 454.290462 166.9328 
L 455.359342 166.59015 
L 458.565983 164.953044 
L 459.634863 164.115456 
L 460.703743 163.734733 
L 461.238183 163.277867 
L 461.772624 163.201722 
L 462.841504 162.402206 
L 463.910384 161.869195 
L 464.444824 161.640761 
L 464.979264 161.10775 
L 468.720345 159.661006 
L 469.789225 159.20414 
L 471.392545 158.709201 
L 472.461425 158.556912 
L 472.995866 158.328479 
L 473.530306 158.252334 
L 474.599186 157.795468 
L 475.133626 157.757395 
L 477.271386 156.957879 
L 478.874707 155.853785 
L 481.546907 154.597401 
L 484.219108 153.150657 
L 484.753548 153.036441 
L 486.356868 152.122707 
L 487.960188 151.589696 
L 489.029069 151.247046 
L 491.166829 150.561746 
L 492.235709 150.219097 
L 493.839029 149.952591 
L 495.97679 149.267291 
L 496.51123 149.038858 
L 497.04567 148.962713 
L 497.58011 148.696208 
L 498.64899 148.505847 
L 500.252311 147.934764 
L 501.321191 147.820547 
L 502.924511 147.477897 
L 503.993391 147.287536 
L 505.062272 147.097175 
L 506.131152 146.868742 
L 506.665592 146.754525 
L 507.200032 146.526092 
L 507.734472 146.488019 
L 510.406673 145.612358 
L 510.941113 145.421997 
L 511.475553 145.421997 
L 517.354394 143.708748 
L 517.888834 143.442242 
L 518.423274 143.442242 
L 519.492154 143.06152 
L 520.026594 142.528509 
L 521.095474 142.109714 
L 524.302115 140.967548 
L 524.836555 140.624898 
L 525.370995 140.510681 
L 525.905435 140.206104 
L 526.974316 140.015743 
L 528.043196 139.596948 
L 528.577636 139.482732 
L 529.112076 139.140082 
L 529.646516 139.025865 
L 530.180956 138.568998 
L 531.784276 138.264421 
L 532.853157 137.769482 
L 533.387597 137.198399 
L 535.525357 136.70346 
L 539.266438 135.942015 
L 539.800878 135.942015 
L 540.335318 135.713582 
L 542.473078 135.33286 
L 543.007519 135.104427 
L 545.145279 134.723704 
L 546.214159 134.266838 
L 546.748599 134.228766 
L 555.834081 131.525638 
L 556.368521 131.297205 
L 556.902961 130.916483 
L 557.971841 130.611905 
L 559.040722 130.269255 
L 560.109602 129.850461 
L 561.712922 129.127089 
L 563.316242 129.012872 
L 565.454003 128.403717 
L 565.988443 128.061067 
L 567.057323 127.756489 
L 569.729524 126.57625 
L 570.263964 126.538178 
L 576.142805 124.520351 
L 578.280565 123.987339 
L 579.349445 123.568545 
L 579.883885 123.340112 
L 580.952766 123.111679 
L 581.487206 122.997462 
L 582.021646 122.578667 
L 582.556086 122.312162 
L 583.090526 121.664934 
L 583.624966 121.284212 
L 584.693846 120.979634 
L 585.228286 120.56084 
L 587.900487 119.456746 
L 588.434927 119.342529 
L 588.969367 118.999879 
L 590.038247 118.695301 
L 590.572687 118.352651 
L 593.244888 117.47699 
L 594.848208 116.563257 
L 595.382648 116.449041 
L 596.451528 115.839885 
L 596.985969 115.611452 
L 598.054849 114.964224 
L 599.658169 114.20278 
L 600.192609 113.822058 
L 601.261489 113.479408 
L 602.33037 112.870252 
L 602.86481 112.679891 
L 603.39925 112.299169 
L 610.346971 109.900619 
L 610.881411 109.786403 
L 611.415851 109.443753 
L 611.950291 109.367608 
L 613.019172 109.101103 
L 614.088052 108.87267 
L 617.829132 107.045203 
L 618.363573 106.969059 
L 619.966893 106.093398 
L 623.173533 104.837015 
L 625.311294 103.999426 
L 625.845734 103.847137 
L 626.380174 103.504487 
L 627.449054 103.352198 
L 627.983494 103.009548 
L 628.517934 102.971476 
L 629.586815 102.628826 
L 630.655695 102.095815 
L 631.190135 102.019671 
L 633.862335 100.953649 
L 634.396775 100.839432 
L 635.465656 100.496782 
L 636.534536 100.230276 
L 637.603416 99.963771 
L 639.206736 99.354616 
L 641.344497 98.174377 
L 642.413377 97.755582 
L 642.947817 97.412932 
L 644.016697 97.184499 
L 644.551137 96.879921 
L 645.085577 96.765705 
L 646.688898 95.928116 
L 647.757778 95.509322 
L 649.361098 94.78595 
L 650.964419 94.367155 
L 654.171059 93.110772 
L 655.774379 92.577761 
L 663.790981 89.151262 
L 664.325421 89.075117 
L 666.463181 88.237528 
L 668.066502 87.361867 
L 668.600942 87.247651 
L 669.669822 86.828856 
L 670.204262 86.828856 
L 671.273142 86.37199 
L 672.342023 85.420184 
L 672.876463 84.963318 
L 674.479783 84.201873 
L 675.014223 84.087657 
L 675.548663 83.821151 
L 676.083103 83.745007 
L 676.617543 83.364285 
L 677.151983 83.250068 
L 678.220864 82.60284 
L 679.824184 81.803324 
L 680.893064 81.384529 
L 681.427504 81.118024 
L 683.030824 80.737302 
L 685.703025 79.861641 
L 686.237465 79.747424 
L 688.375225 78.719474 
L 689.444106 78.224535 
L 690.512986 77.95803 
L 694.254067 76.206708 
L 696.926267 75.254903 
L 698.529587 74.303097 
L 699.064027 74.18888 
L 700.132908 73.655869 
L 701.201788 73.275147 
L 701.736228 72.818281 
L 702.270668 72.513703 
L 703.873988 72.018764 
L 704.942869 71.295392 
L 705.477309 71.25732 
L 706.546189 70.952742 
L 707.080629 70.838525 
L 709.218389 70.039009 
L 710.82171 69.54407 
L 711.35615 69.467926 
L 712.42503 68.896842 
L 712.95947 68.706481 
L 713.49391 68.287687 
L 715.09723 67.868893 
L 715.631671 67.564315 
L 716.700551 67.297809 
L 718.303871 66.422148 
L 718.838311 66.384076 
L 720.441631 65.889137 
L 721.510512 65.774921 
L 722.579392 65.356126 
L 725.786032 64.442393 
L 726.854913 64.404321 
L 730.061553 63.376371 
L 730.595993 63.300227 
L 732.199314 62.462638 
L 732.733754 62.005771 
L 733.268194 61.739266 
L 734.871514 60.559027 
L 736.474834 59.873727 
L 737.543715 59.569149 
L 738.078155 59.264572 
L 738.612595 59.150355 
L 739.147035 58.731561 
L 740.750355 58.008189 
L 741.284795 57.893972 
L 742.353675 57.399033 
L 743.956996 56.980239 
L 745.560316 56.294939 
L 746.629196 55.8 
L 747.163636 55.8 
L 747.163636 55.8 
" clip-path="url(#p9b8f315e10)" style="fill: none; stroke: #1f77b4; stroke-width: 1.5; stroke-linecap: square"/>
   </g>
   <g id="line2d_40">
    <path d="M 138.970804 307.8 
L 140.574124 307.723856 
L 142.177444 307.685783 
L 145.384085 307.609639 
L 148.056285 307.495422 
L 150.194046 307.495422 
L 150.728486 307.343133 
L 152.866246 307.266989 
L 154.469567 307.076628 
L 156.072887 306.924339 
L 159.279527 306.77205 
L 159.813968 306.77205 
L 160.348408 306.657834 
L 162.486168 306.581689 
L 163.555048 306.505545 
L 167.830569 306.4294 
L 170.50277 306.315184 
L 176.916051 306.239039 
L 179.588251 306.124822 
L 182.794892 306.048678 
L 184.932652 305.972534 
L 189.742613 305.896389 
L 191.345933 305.858317 
L 192.949254 305.820245 
L 194.552574 305.629884 
L 197.759215 305.591811 
L 198.828095 305.515667 
L 202.569176 305.439523 
L 208.448017 305.096873 
L 212.189097 305.020728 
L 213.257977 304.944584 
L 214.861298 304.868439 
L 218.067938 304.71615 
L 220.205699 304.678078 
L 221.809019 304.525789 
L 228.75674 304.106995 
L 231.428941 304.030851 
L 236.238902 303.764345 
L 237.842222 303.688201 
L 243.186623 303.383623 
L 249.065464 303.307478 
L 251.203225 303.079045 
L 252.272105 303.002901 
L 259.219826 302.431817 
L 262.426467 302.013023 
L 264.564227 301.936879 
L 268.839748 301.365795 
L 272.046388 301.289651 
L 273.649709 301.137362 
L 274.718589 301.09929 
L 275.787469 300.985073 
L 277.390789 300.908929 
L 278.45967 300.75664 
L 281.13187 300.452062 
L 283.26963 300.375918 
L 284.338511 300.299773 
L 286.476271 300.223629 
L 287.545151 300.147485 
L 290.217352 299.880979 
L 291.286232 299.690618 
L 292.889552 299.652546 
L 293.958432 299.576401 
L 296.630633 299.500257 
L 303.578354 299.081462 
L 305.181675 299.005318 
L 312.129396 298.586524 
L 315.870476 298.510379 
L 316.404917 298.396163 
L 320.680437 298.320018 
L 324.421518 298.129657 
L 330.300359 298.053513 
L 334.04144 297.863152 
L 338.316961 297.787007 
L 342.592481 297.558574 
L 346.333562 297.482429 
L 356.487924 296.835202 
L 361.832325 296.759057 
L 363.970085 296.530624 
L 365.573406 296.492552 
L 367.176726 296.45448 
L 369.314486 296.226046 
L 374.658887 295.921468 
L 377.865528 295.845324 
L 379.468848 295.807252 
L 381.072169 295.76918 
L 382.675489 295.616891 
L 386.95101 295.540746 
L 388.01989 295.388457 
L 389.08877 295.312313 
L 391.760971 295.198096 
L 392.829851 295.121952 
L 393.898731 295.045808 
L 398.708692 294.969663 
L 399.777572 294.855446 
L 401.915332 294.817374 
L 402.449773 294.703158 
L 403.518653 294.627013 
L 404.053093 294.512796 
L 405.656413 294.436652 
L 410.466374 294.170147 
L 411.535254 294.132074 
L 413.138575 293.979785 
L 414.741895 293.941713 
L 416.345215 293.865569 
L 419.017416 293.751352 
L 426.499577 293.675208 
L 430.240658 293.484847 
L 434.516178 293.408702 
L 436.653939 293.332558 
L 438.791699 293.294486 
L 439.860579 293.180269 
L 441.99834 293.104124 
L 447.342741 292.799547 
L 450.549381 292.761475 
L 452.152702 292.609186 
L 453.756022 292.571113 
L 457.497103 292.494969 
L 459.634863 292.418825 
L 466.048144 292.34268 
L 468.720345 292.228464 
L 471.926985 292.152319 
L 473.530306 291.961958 
L 476.736946 291.923886 
L 478.340267 291.771597 
L 480.478027 291.695452 
L 486.891308 291.619308 
L 489.563509 291.505091 
L 498.64899 291.467019 
L 499.717871 291.390875 
L 501.321191 291.352803 
L 508.268912 291.276658 
L 509.337792 291.200514 
L 515.216633 291.124369 
L 517.354394 291.048225 
L 527.508756 290.97208 
L 529.112076 290.934008 
L 533.922037 290.857864 
L 534.990917 290.781719 
L 547.817479 290.705575 
L 549.4208 290.667503 
L 563.850682 290.591358 
L 565.454003 290.553286 
L 575.073924 290.477142 
L 576.142805 290.400997 
L 578.815005 290.324853 
L 580.418325 290.172564 
L 583.090526 290.096419 
L 586.297167 289.944131 
L 590.572687 289.867986 
L 591.641568 289.791842 
L 595.917088 289.715697 
L 599.123729 289.563408 
L 601.795929 289.487264 
L 606.07145 289.258831 
L 609.278091 289.182686 
L 611.415851 289.106542 
L 618.363573 289.030397 
L 620.501333 288.954253 
L 624.776854 288.878108 
L 628.517934 288.687747 
L 633.327895 288.611603 
L 634.396775 288.535459 
L 644.016697 288.459314 
L 645.620018 288.421242 
L 648.292218 288.38317 
L 650.429978 288.154736 
L 652.033299 288.116664 
L 655.239939 288.04052 
L 660.58434 287.735942 
L 663.256541 287.659798 
L 665.394301 287.583653 
L 671.273142 287.507509 
L 673.945343 287.202931 
L 676.083103 287.126787 
L 679.824184 287.050642 
L 680.358624 286.936425 
L 685.168585 286.860281 
L 687.840785 286.746064 
L 694.788507 286.707992 
L 695.322947 286.593775 
L 699.598468 286.517631 
L 701.201788 286.479559 
L 703.873988 286.403414 
L 705.477309 286.365342 
L 714.56279 286.289198 
L 717.234991 286.174981 
L 724.717152 286.098837 
L 726.854913 286.022692 
L 732.733754 285.946548 
L 733.268194 285.832331 
L 738.612595 285.794259 
L 739.681475 285.718115 
L 742.353675 285.64197 
L 743.956996 285.603898 
L 747.163636 285.565826 
L 747.163636 285.565826 
" clip-path="url(#p9b8f315e10)" style="fill: none; stroke: #ff7f0e; stroke-width: 1.5; stroke-linecap: square"/>
   </g>
   <g id="patch_3">
    <path d="M 108 320.4 
L 108 43.2 
" style="fill: none; stroke: #a9a9a9; stroke-width: 0.8; stroke-linejoin: miter; stroke-linecap: square"/>
   </g>
   <g id="patch_4">
    <path d="M 777.6 320.4 
L 777.6 43.2 
" style="fill: none"/>
   </g>
   <g id="patch_5">
    <path d="M 108 320.4 
L 777.6 320.4 
" style="fill: none; stroke: #a9a9a9; stroke-width: 0.8; stroke-linejoin: miter; stroke-linecap: square"/>
   </g>
   <g id="patch_6">
    <path d="M 108 43.2 
L 777.6 43.2 
" style="fill: none"/>
   </g>
   <g id="text_20">
    <!-- get_subscribe history -->
    <g style="fill: #a9a9a9" transform="translate(378.6075 37.2) scale(0.12 -0.12)">
     <defs>
      <path id="DejaVuSans-67" d="M 2906 1791 
Q 2906 2416 2648 2759 
Q 2391 3103 1925 3103 
Q 1463 3103 1205 2759 
Q 947 2416 947 1791 
Q 947 1169 1205 825 
Q 1463 481 1925 481 
Q 2391 481 2648 825 
Q 2906 1169 2906 1791 
z
M 3481 434 
Q 3481 -459 3084 -895 
Q 2688 -1331 1869 -1331 
Q 1566 -1331 1297 -1286 
Q 1028 -1241 775 -1147 
L 775 -588 
Q 1028 -725 1275 -790 
Q 1522 -856 1778 -856 
Q 2344 -856 2625 -561 
Q 2906 -266 2906 331 
L 2906 616 
Q 2728 306 2450 153 
Q 2172 0 1784 0 
Q 1141 0 747 490 
Q 353 981 353 1791 
Q 353 2603 747 3093 
Q 1141 3584 1784 3584 
Q 2172 3584 2450 3431 
Q 2728 3278 2906 2969 
L 2906 3500 
L 3481 3500 
L 3481 434 
z
" transform="scale(0.015625)"/>
      <path id="DejaVuSans-65" d="M 3597 1894 
L 3597 1613 
L 953 1613 
Q 991 1019 1311 708 
Q 1631 397 2203 397 
Q 2534 397 2845 478 
Q 3156 559 3463 722 
L 3463 178 
Q 3153 47 2828 -22 
Q 2503 -91 2169 -91 
Q 1331 -91 842 396 
Q 353 884 353 1716 
Q 353 2575 817 3079 
Q 1281 3584 2069 3584 
Q 2775 3584 3186 3129 
Q 3597 2675 3597 1894 
z
M 3022 2063 
Q 3016 2534 2758 2815 
Q 2500 3097 2075 3097 
Q 1594 3097 1305 2825 
Q 1016 2553 972 2059 
L 3022 2063 
z
" transform="scale(0.015625)"/>
      <path id="DejaVuSans-74" d="M 1172 4494 
L 1172 3500 
L 2356 3500 
L 2356 3053 
L 1172 3053 
L 1172 1153 
Q 1172 725 1289 603 
Q 1406 481 1766 481 
L 2356 481 
L 2356 0 
L 1766 0 
Q 1100 0 847 248 
Q 594 497 594 1153 
L 594 3053 
L 172 3053 
L 172 3500 
L 594 3500 
L 594 4494 
L 1172 4494 
z
" transform="scale(0.015625)"/>
      <path id="DejaVuSans-5f" d="M 3263 -1063 
L 3263 -1509 
L -63 -1509 
L -63 -1063 
L 3263 -1063 
z
" transform="scale(0.015625)"/>
      <path id="DejaVuSans-73" d="M 2834 3397 
L 2834 2853 
Q 2591 2978 2328 3040 
Q 2066 3103 1784 3103 
Q 1356 3103 1142 2972 
Q 928 2841 928 2578 
Q 928 2378 1081 2264 
Q 1234 2150 1697 2047 
L 1894 2003 
Q 2506 1872 2764 1633 
Q 3022 1394 3022 966 
Q 3022 478 2636 193 
Q 2250 -91 1575 -91 
Q 1294 -91 989 -36 
Q 684 19 347 128 
L 347 722 
Q 666 556 975 473 
Q 1284 391 1588 391 
Q 1994 391 2212 530 
Q 2431 669 2431 922 
Q 2431 1156 2273 1281 
Q 2116 1406 1581 1522 
L 1381 1569 
Q 847 1681 609 1914 
Q 372 2147 372 2553 
Q 372 3047 722 3315 
Q 1072 3584 1716 3584 
Q 2034 3584 2315 3537 
Q 2597 3491 2834 3397 
z
" transform="scale(0.015625)"/>
      <path id="DejaVuSans-75" d="M 544 1381 
L 544 3500 
L 1119 3500 
L 1119 1403 
Q 1119 906 1312 657 
Q 1506 409 1894 409 
Q 2359 409 2629 706 
Q 2900 1003 2900 1516 
L 2900 3500 
L 3475 3500 
L 3475 0 
L 2900 0 
L 2900 538 
Q 2691 219 2414 64 
Q 2138 -91 1772 -91 
Q 1169 -91 856 284 
Q 544 659 544 1381 
z
M 1991 3584 
L 1991 3584 
z
" transform="scale(0.015625)"/>
      <path id="DejaVuSans-62" d="M 3116 1747 
Q 3116 2381 2855 2742 
Q 2594 3103 2138 3103 
Q 1681 3103 1420 2742 
Q 1159 2381 1159 1747 
Q 1159 1113 1420 752 
Q 1681 391 2138 391 
Q 2594 391 2855 752 
Q 3116 1113 3116 1747 
z
M 1159 2969 
Q 1341 3281 1617 3432 
Q 1894 3584 2278 3584 
Q 2916 3584 3314 3078 
Q 3713 2572 3713 1747 
Q 3713 922 3314 415 
Q 2916 -91 2278 -91 
Q 1894 -91 1617 61 
Q 1341 213 1159 525 
L 1159 0 
L 581 0 
L 581 4863 
L 1159 4863 
L 1159 2969 
z
" transform="scale(0.015625)"/>
      <path id="DejaVuSans-63" d="M 3122 3366 
L 3122 2828 
Q 2878 2963 2633 3030 
Q 2388 3097 2138 3097 
Q 1578 3097 1268 2742 
Q 959 2388 959 1747 
Q 959 1106 1268 751 
Q 1578 397 2138 397 
Q 2388 397 2633 464 
Q 2878 531 3122 666 
L 3122 134 
Q 2881 22 2623 -34 
Q 2366 -91 2075 -91 
Q 1284 -91 818 406 
Q 353 903 353 1747 
Q 353 2603 823 3093 
Q 1294 3584 2113 3584 
Q 2378 3584 2631 3529 
Q 2884 3475 3122 3366 
z
" transform="scale(0.015625)"/>
      <path id="DejaVuSans-72" d="M 2631 2963 
Q 2534 3019 2420 3045 
Q 2306 3072 2169 3072 
Q 1681 3072 1420 2755 
Q 1159 2438 1159 1844 
L 1159 0 
L 581 0 
L 581 3500 
L 1159 3500 
L 1159 2956 
Q 1341 3275 1631 3429 
Q 1922 3584 2338 3584 
Q 2397 3584 2469 3576 
Q 2541 3569 2628 3553 
L 2631 2963 
z
" transform="scale(0.015625)"/>
      <path id="DejaVuSans-69" d="M 603 3500 
L 1178 3500 
L 1178 0 
L 603 0 
L 603 3500 
z
M 603 4863 
L 1178 4863 
L 1178 4134 
L 603 4134 
L 603 4863 
z
" transform="scale(0.015625)"/>
      <path id="DejaVuSans-20" transform="scale(0.015625)"/>
      <path id="DejaVuSans-68" d="M 3513 2113 
L 3513 0 
L 2938 0 
L 2938 2094 
Q 2938 2591 2744 2837 
Q 2550 3084 2163 3084 
Q 1697 3084 1428 2787 
Q 1159 2491 1159 1978 
L 1159 0 
L 581 0 
L 581 4863 
L 1159 4863 
L 1159 2956 
Q 1366 3272 1645 3428 
Q 1925 3584 2291 3584 
Q 2894 3584 3203 3211 
Q 3513 2838 3513 2113 
z
" transform="scale(0.015625)"/>
      <path id="DejaVuSans-6f" d="M 1959 3097 
Q 1497 3097 1228 2736 
Q 959 2375 959 1747 
Q 959 1119 1226 758 
Q 1494 397 1959 397 
Q 2419 397 2687 759 
Q 2956 1122 2956 1747 
Q 2956 2369 2687 2733 
Q 2419 3097 1959 3097 
z
M 1959 3584 
Q 2709 3584 3137 3096 
Q 3566 2609 3566 1747 
Q 3566 888 3137 398 
Q 2709 -91 1959 -91 
Q 1206 -91 779 398 
Q 353 888 353 1747 
Q 353 2609 779 3096 
Q 1206 3584 1959 3584 
z
" transform="scale(0.015625)"/>
      <path id="DejaVuSans-79" d="M 2059 -325 
Q 1816 -950 1584 -1140 
Q 1353 -1331 966 -1331 
L 506 -1331 
L 506 -850 
L 844 -850 
Q 1081 -850 1212 -737 
Q 1344 -625 1503 -206 
L 1606 56 
L 191 3500 
L 800 3500 
L 1894 763 
L 2988 3500 
L 3597 3500 
L 2059 -325 
z
" transform="scale(0.015625)"/>
     </defs>
     <use xlink:href="#DejaVuSans-67"/>
     <use xlink:href="#DejaVuSans-65" x="63.476562"/>
     <use xlink:href="#DejaVuSans-74" x="125"/>
     <use xlink:href="#DejaVuSans-5f" x="164.208984"/>
     <use xlink:href="#DejaVuSans-73" x="214.208984"/>
     <use xlink:href="#DejaVuSans-75" x="266.308594"/>
     <use xlink:href="#DejaVuSans-62" x="329.6875"/>
     <use xlink:href="#DejaVuSans-73" x="393.164062"/>
     <use xlink:href="#DejaVuSans-63" x="445.263672"/>
     <use xlink:href="#DejaVuSans-72" x="500.244141"/>
     <use xlink:href="#DejaVuSans-69" x="541.357422"/>
     <use xlink:href="#DejaVuSans-62" x="569.140625"/>
     <use xlink:href="#DejaVuSans-65" x="632.617188"/>
     <use xlink:href="#DejaVuSans-20" x="694.140625"/>
     <use xlink:href="#DejaVuSans-68" x="725.927734"/>
     <use xlink:href="#DejaVuSans-69" x="789.306641"/>
     <use xlink:href="#DejaVuSans-73" x="817.089844"/>
     <use xlink:href="#DejaVuSans-74" x="869.189453"/>
     <use xlink:href="#DejaVuSans-6f" x="908.398438"/>
     <use xlink:href="#DejaVuSans-72" x="969.580078"/>
     <use xlink:href="#DejaVuSans-79" x="1010.693359"/>
    </g>
   </g>
   <g id="legend_1">
    <g id="line2d_41">
     <path d="M 815.08 328.498438 
L 825.08 328.498438 
L 835.08 328.498438 
" style="fill: none; stroke: #1f77b4; stroke-width: 1.5; stroke-linecap: square"/>
    </g>
    <g id="text_21">
     <!-- star -->
     <g style="fill: #a9a9a9" transform="translate(843.08 331.998438) scale(0.1 -0.1)">
      <defs>
       <path id="DejaVuSans-61" d="M 2194 1759 
Q 1497 1759 1228 1600 
Q 959 1441 959 1056 
Q 959 750 1161 570 
Q 1363 391 1709 391 
Q 2188 391 2477 730 
Q 2766 1069 2766 1631 
L 2766 1759 
L 2194 1759 
z
M 3341 1997 
L 3341 0 
L 2766 0 
L 2766 531 
Q 2569 213 2275 61 
Q 1981 -91 1556 -91 
Q 1019 -91 701 211 
Q 384 513 384 1019 
Q 384 1609 779 1909 
Q 1175 2209 1959 2209 
L 2766 2209 
L 2766 2266 
Q 2766 2663 2505 2880 
Q 2244 3097 1772 3097 
Q 1472 3097 1187 3025 
Q 903 2953 641 2809 
L 641 3341 
Q 956 3463 1253 3523 
Q 1550 3584 1831 3584 
Q 2591 3584 2966 3190 
Q 3341 2797 3341 1997 
z
" transform="scale(0.015625)"/>
      </defs>
      <use xlink:href="#DejaVuSans-73"/>
      <use xlink:href="#DejaVuSans-74" x="52.099609"/>
      <use xlink:href="#DejaVuSans-61" x="91.308594"/>
      <use xlink:href="#DejaVuSans-72" x="152.587891"/>
     </g>
    </g>
    <g id="line2d_42">
     <path d="M 815.08 343.176562 
L 825.08 343.176562 
L 835.08 343.176562 
" style="fill: none; stroke: #ff7f0e; stroke-width: 1.5; stroke-linecap: square"/>
    </g>
    <g id="text_22">
     <!-- fork -->
     <g style="fill: #a9a9a9" transform="translate(843.08 346.676562) scale(0.1 -0.1)">
      <defs>
       <path id="DejaVuSans-66" d="M 2375 4863 
L 2375 4384 
L 1825 4384 
Q 1516 4384 1395 4259 
Q 1275 4134 1275 3809 
L 1275 3500 
L 2222 3500 
L 2222 3053 
L 1275 3053 
L 1275 0 
L 697 0 
L 697 3053 
L 147 3053 
L 147 3500 
L 697 3500 
L 697 3744 
Q 697 4328 969 4595 
Q 1241 4863 1831 4863 
L 2375 4863 
z
" transform="scale(0.015625)"/>
       <path id="DejaVuSans-6b" d="M 581 4863 
L 1159 4863 
L 1159 1991 
L 2875 3500 
L 3609 3500 
L 1753 1863 
L 3688 0 
L 2938 0 
L 1159 1709 
L 1159 0 
L 581 0 
L 581 4863 
z
" transform="scale(0.015625)"/>
      </defs>
      <use xlink:href="#DejaVuSans-66"/>
      <use xlink:href="#DejaVuSans-6f" x="35.205078"/>
      <use xlink:href="#DejaVuSans-72" x="96.386719"/>
      <use xlink:href="#DejaVuSans-6b" x="137.5"/>
     </g>
    </g>
   </g>
  </g>
 </g>
 <defs>
  <clipPath id="p9b8f315e10">
   <rect x="108" y="43.2" width="669.6" height="277.2"/>
  </clipPath>
 </defs>
</svg>
