<?xml version="1.0" encoding="utf-8" standalone="no"?>
<!DOCTYPE svg PUBLIC "-//W3C//DTD SVG 1.1//EN"
  "http://www.w3.org/Graphics/SVG/1.1/DTD/svg11.dtd">
<svg xmlns:xlink="http://www.w3.org/1999/xlink" width="864pt" height="360pt" viewBox="0 0 864 360" xmlns="http://www.w3.org/2000/svg" version="1.1">
 <metadata>
  <rdf:RDF xmlns:dc="http://purl.org/dc/elements/1.1/" xmlns:cc="http://creativecommons.org/ns#" xmlns:rdf="http://www.w3.org/1999/02/22-rdf-syntax-ns#">
   <cc:Work>
    <dc:type rdf:resource="http://purl.org/dc/dcmitype/StillImage"/>
    <dc:date>2024-09-03T08:12:24.061019</dc:date>
    <dc:format>image/svg+xml</dc:format>
    <dc:creator>
     <cc:Agent>
      <dc:title>Matplotlib v3.9.2, https://matplotlib.org/</dc:title>
     </cc:Agent>
    </dc:creator>
   </cc:Work>
  </rdf:RDF>
 </metadata>
 <defs>
  <style type="text/css">*{stroke-linejoin: round; stroke-linecap: butt}</style>
 </defs>
 <g id="figure_1">
  <g id="patch_1">
   <path d="M 0 360 
L 864 360 
L 864 0 
L 0 0 
L 0 360 
z
" style="fill: none; opacity: 0"/>
  </g>
  <g id="axes_1">
   <g id="patch_2">
    <path d="M 108 320.4 
L 777.6 320.4 
L 777.6 43.2 
L 108 43.2 
L 108 320.4 
z
" style="fill: none; opacity: 0"/>
   </g>
   <g id="matplotlib.axis_1">
    <g id="xtick_1">
     <g id="line2d_1">
      <path d="M 159.316191 320.4 
L 159.316191 43.2 
" clip-path="url(#p3cf0232863)" style="fill: none; stroke-dasharray: 5.12,1.28,0.8,1.28; stroke-dashoffset: 0; stroke: #b0b0b0; stroke-width: 0.8"/>
     </g>
     <g id="line2d_2">
      <defs>
       <path id="mc95bf53d65" d="M 0 0 
L 0 3.5 
" style="stroke: #a9a9a9; stroke-width: 0.8"/>
      </defs>
      <g>
       <use xlink:href="#mc95bf53d65" x="159.316191" y="320.4" style="fill: #a9a9a9; stroke: #a9a9a9; stroke-width: 0.8"/>
      </g>
     </g>
     <g id="text_1">
      <!-- 2021-09 -->
      <g style="fill: #a9a9a9" transform="translate(138.424785 334.998438) scale(0.1 -0.1)">
       <defs>
        <path id="DejaVuSans-32" d="M 1228 531 
L 3431 531 
L 3431 0 
L 469 0 
L 469 531 
Q 828 903 1448 1529 
Q 2069 2156 2228 2338 
Q 2531 2678 2651 2914 
Q 2772 3150 2772 3378 
Q 2772 3750 2511 3984 
Q 2250 4219 1831 4219 
Q 1534 4219 1204 4116 
Q 875 4013 500 3803 
L 500 4441 
Q 881 4594 1212 4672 
Q 1544 4750 1819 4750 
Q 2544 4750 2975 4387 
Q 3406 4025 3406 3419 
Q 3406 3131 3298 2873 
Q 3191 2616 2906 2266 
Q 2828 2175 2409 1742 
Q 1991 1309 1228 531 
z
" transform="scale(0.015625)"/>
        <path id="DejaVuSans-30" d="M 2034 4250 
Q 1547 4250 1301 3770 
Q 1056 3291 1056 2328 
Q 1056 1369 1301 889 
Q 1547 409 2034 409 
Q 2525 409 2770 889 
Q 3016 1369 3016 2328 
Q 3016 3291 2770 3770 
Q 2525 4250 2034 4250 
z
M 2034 4750 
Q 2819 4750 3233 4129 
Q 3647 3509 3647 2328 
Q 3647 1150 3233 529 
Q 2819 -91 2034 -91 
Q 1250 -91 836 529 
Q 422 1150 422 2328 
Q 422 3509 836 4129 
Q 1250 4750 2034 4750 
z
" transform="scale(0.015625)"/>
        <path id="DejaVuSans-31" d="M 794 531 
L 1825 531 
L 1825 4091 
L 703 3866 
L 703 4441 
L 1819 4666 
L 2450 4666 
L 2450 531 
L 3481 531 
L 3481 0 
L 794 0 
L 794 531 
z
" transform="scale(0.015625)"/>
        <path id="DejaVuSans-2d" d="M 313 2009 
L 1997 2009 
L 1997 1497 
L 313 1497 
L 313 2009 
z
" transform="scale(0.015625)"/>
        <path id="DejaVuSans-39" d="M 703 97 
L 703 672 
Q 941 559 1184 500 
Q 1428 441 1663 441 
Q 2288 441 2617 861 
Q 2947 1281 2994 2138 
Q 2813 1869 2534 1725 
Q 2256 1581 1919 1581 
Q 1219 1581 811 2004 
Q 403 2428 403 3163 
Q 403 3881 828 4315 
Q 1253 4750 1959 4750 
Q 2769 4750 3195 4129 
Q 3622 3509 3622 2328 
Q 3622 1225 3098 567 
Q 2575 -91 1691 -91 
Q 1453 -91 1209 -44 
Q 966 3 703 97 
z
M 1959 2075 
Q 2384 2075 2632 2365 
Q 2881 2656 2881 3163 
Q 2881 3666 2632 3958 
Q 2384 4250 1959 4250 
Q 1534 4250 1286 3958 
Q 1038 3666 1038 3163 
Q 1038 2656 1286 2365 
Q 1534 2075 1959 2075 
z
" transform="scale(0.015625)"/>
       </defs>
       <use xlink:href="#DejaVuSans-32"/>
       <use xlink:href="#DejaVuSans-30" x="63.623047"/>
       <use xlink:href="#DejaVuSans-32" x="127.246094"/>
       <use xlink:href="#DejaVuSans-31" x="190.869141"/>
       <use xlink:href="#DejaVuSans-2d" x="254.492188"/>
       <use xlink:href="#DejaVuSans-30" x="290.576172"/>
       <use xlink:href="#DejaVuSans-39" x="354.199219"/>
      </g>
     </g>
    </g>
    <g id="xtick_2">
     <g id="line2d_3">
      <path d="M 224.632574 320.4 
L 224.632574 43.2 
" clip-path="url(#p3cf0232863)" style="fill: none; stroke-dasharray: 5.12,1.28,0.8,1.28; stroke-dashoffset: 0; stroke: #b0b0b0; stroke-width: 0.8"/>
     </g>
     <g id="line2d_4">
      <g>
       <use xlink:href="#mc95bf53d65" x="224.632574" y="320.4" style="fill: #a9a9a9; stroke: #a9a9a9; stroke-width: 0.8"/>
      </g>
     </g>
     <g id="text_2">
      <!-- 2022-01 -->
      <g style="fill: #a9a9a9" transform="translate(203.741168 334.998438) scale(0.1 -0.1)">
       <use xlink:href="#DejaVuSans-32"/>
       <use xlink:href="#DejaVuSans-30" x="63.623047"/>
       <use xlink:href="#DejaVuSans-32" x="127.246094"/>
       <use xlink:href="#DejaVuSans-32" x="190.869141"/>
       <use xlink:href="#DejaVuSans-2d" x="254.492188"/>
       <use xlink:href="#DejaVuSans-30" x="290.576172"/>
       <use xlink:href="#DejaVuSans-31" x="354.199219"/>
      </g>
     </g>
    </g>
    <g id="xtick_3">
     <g id="line2d_5">
      <path d="M 288.878196 320.4 
L 288.878196 43.2 
" clip-path="url(#p3cf0232863)" style="fill: none; stroke-dasharray: 5.12,1.28,0.8,1.28; stroke-dashoffset: 0; stroke: #b0b0b0; stroke-width: 0.8"/>
     </g>
     <g id="line2d_6">
      <g>
       <use xlink:href="#mc95bf53d65" x="288.878196" y="320.4" style="fill: #a9a9a9; stroke: #a9a9a9; stroke-width: 0.8"/>
      </g>
     </g>
     <g id="text_3">
      <!-- 2022-05 -->
      <g style="fill: #a9a9a9" transform="translate(267.98679 334.998438) scale(0.1 -0.1)">
       <defs>
        <path id="DejaVuSans-35" d="M 691 4666 
L 3169 4666 
L 3169 4134 
L 1269 4134 
L 1269 2991 
Q 1406 3038 1543 3061 
Q 1681 3084 1819 3084 
Q 2600 3084 3056 2656 
Q 3513 2228 3513 1497 
Q 3513 744 3044 326 
Q 2575 -91 1722 -91 
Q 1428 -91 1123 -41 
Q 819 9 494 109 
L 494 744 
Q 775 591 1075 516 
Q 1375 441 1709 441 
Q 2250 441 2565 725 
Q 2881 1009 2881 1497 
Q 2881 1984 2565 2268 
Q 2250 2553 1709 2553 
Q 1456 2553 1204 2497 
Q 953 2441 691 2322 
L 691 4666 
z
" transform="scale(0.015625)"/>
       </defs>
       <use xlink:href="#DejaVuSans-32"/>
       <use xlink:href="#DejaVuSans-30" x="63.623047"/>
       <use xlink:href="#DejaVuSans-32" x="127.246094"/>
       <use xlink:href="#DejaVuSans-32" x="190.869141"/>
       <use xlink:href="#DejaVuSans-2d" x="254.492188"/>
       <use xlink:href="#DejaVuSans-30" x="290.576172"/>
       <use xlink:href="#DejaVuSans-35" x="354.199219"/>
      </g>
     </g>
    </g>
    <g id="xtick_4">
     <g id="line2d_7">
      <path d="M 354.729959 320.4 
L 354.729959 43.2 
" clip-path="url(#p3cf0232863)" style="fill: none; stroke-dasharray: 5.12,1.28,0.8,1.28; stroke-dashoffset: 0; stroke: #b0b0b0; stroke-width: 0.8"/>
     </g>
     <g id="line2d_8">
      <g>
       <use xlink:href="#mc95bf53d65" x="354.729959" y="320.4" style="fill: #a9a9a9; stroke: #a9a9a9; stroke-width: 0.8"/>
      </g>
     </g>
     <g id="text_4">
      <!-- 2022-09 -->
      <g style="fill: #a9a9a9" transform="translate(333.838553 334.998438) scale(0.1 -0.1)">
       <use xlink:href="#DejaVuSans-32"/>
       <use xlink:href="#DejaVuSans-30" x="63.623047"/>
       <use xlink:href="#DejaVuSans-32" x="127.246094"/>
       <use xlink:href="#DejaVuSans-32" x="190.869141"/>
       <use xlink:href="#DejaVuSans-2d" x="254.492188"/>
       <use xlink:href="#DejaVuSans-30" x="290.576172"/>
       <use xlink:href="#DejaVuSans-39" x="354.199219"/>
      </g>
     </g>
    </g>
    <g id="xtick_5">
     <g id="line2d_9">
      <path d="M 420.046342 320.4 
L 420.046342 43.2 
" clip-path="url(#p3cf0232863)" style="fill: none; stroke-dasharray: 5.12,1.28,0.8,1.28; stroke-dashoffset: 0; stroke: #b0b0b0; stroke-width: 0.8"/>
     </g>
     <g id="line2d_10">
      <g>
       <use xlink:href="#mc95bf53d65" x="420.046342" y="320.4" style="fill: #a9a9a9; stroke: #a9a9a9; stroke-width: 0.8"/>
      </g>
     </g>
     <g id="text_5">
      <!-- 2023-01 -->
      <g style="fill: #a9a9a9" transform="translate(399.154936 334.998438) scale(0.1 -0.1)">
       <defs>
        <path id="DejaVuSans-33" d="M 2597 2516 
Q 3050 2419 3304 2112 
Q 3559 1806 3559 1356 
Q 3559 666 3084 287 
Q 2609 -91 1734 -91 
Q 1441 -91 1130 -33 
Q 819 25 488 141 
L 488 750 
Q 750 597 1062 519 
Q 1375 441 1716 441 
Q 2309 441 2620 675 
Q 2931 909 2931 1356 
Q 2931 1769 2642 2001 
Q 2353 2234 1838 2234 
L 1294 2234 
L 1294 2753 
L 1863 2753 
Q 2328 2753 2575 2939 
Q 2822 3125 2822 3475 
Q 2822 3834 2567 4026 
Q 2313 4219 1838 4219 
Q 1578 4219 1281 4162 
Q 984 4106 628 3988 
L 628 4550 
Q 988 4650 1302 4700 
Q 1616 4750 1894 4750 
Q 2613 4750 3031 4423 
Q 3450 4097 3450 3541 
Q 3450 3153 3228 2886 
Q 3006 2619 2597 2516 
z
" transform="scale(0.015625)"/>
       </defs>
       <use xlink:href="#DejaVuSans-32"/>
       <use xlink:href="#DejaVuSans-30" x="63.623047"/>
       <use xlink:href="#DejaVuSans-32" x="127.246094"/>
       <use xlink:href="#DejaVuSans-33" x="190.869141"/>
       <use xlink:href="#DejaVuSans-2d" x="254.492188"/>
       <use xlink:href="#DejaVuSans-30" x="290.576172"/>
       <use xlink:href="#DejaVuSans-31" x="354.199219"/>
      </g>
     </g>
    </g>
    <g id="xtick_6">
     <g id="line2d_11">
      <path d="M 484.291964 320.4 
L 484.291964 43.2 
" clip-path="url(#p3cf0232863)" style="fill: none; stroke-dasharray: 5.12,1.28,0.8,1.28; stroke-dashoffset: 0; stroke: #b0b0b0; stroke-width: 0.8"/>
     </g>
     <g id="line2d_12">
      <g>
       <use xlink:href="#mc95bf53d65" x="484.291964" y="320.4" style="fill: #a9a9a9; stroke: #a9a9a9; stroke-width: 0.8"/>
      </g>
     </g>
     <g id="text_6">
      <!-- 2023-05 -->
      <g style="fill: #a9a9a9" transform="translate(463.400558 334.998438) scale(0.1 -0.1)">
       <use xlink:href="#DejaVuSans-32"/>
       <use xlink:href="#DejaVuSans-30" x="63.623047"/>
       <use xlink:href="#DejaVuSans-32" x="127.246094"/>
       <use xlink:href="#DejaVuSans-33" x="190.869141"/>
       <use xlink:href="#DejaVuSans-2d" x="254.492188"/>
       <use xlink:href="#DejaVuSans-30" x="290.576172"/>
       <use xlink:href="#DejaVuSans-35" x="354.199219"/>
      </g>
     </g>
    </g>
    <g id="xtick_7">
     <g id="line2d_13">
      <path d="M 550.143728 320.4 
L 550.143728 43.2 
" clip-path="url(#p3cf0232863)" style="fill: none; stroke-dasharray: 5.12,1.28,0.8,1.28; stroke-dashoffset: 0; stroke: #b0b0b0; stroke-width: 0.8"/>
     </g>
     <g id="line2d_14">
      <g>
       <use xlink:href="#mc95bf53d65" x="550.143728" y="320.4" style="fill: #a9a9a9; stroke: #a9a9a9; stroke-width: 0.8"/>
      </g>
     </g>
     <g id="text_7">
      <!-- 2023-09 -->
      <g style="fill: #a9a9a9" transform="translate(529.252321 334.998438) scale(0.1 -0.1)">
       <use xlink:href="#DejaVuSans-32"/>
       <use xlink:href="#DejaVuSans-30" x="63.623047"/>
       <use xlink:href="#DejaVuSans-32" x="127.246094"/>
       <use xlink:href="#DejaVuSans-33" x="190.869141"/>
       <use xlink:href="#DejaVuSans-2d" x="254.492188"/>
       <use xlink:href="#DejaVuSans-30" x="290.576172"/>
       <use xlink:href="#DejaVuSans-39" x="354.199219"/>
      </g>
     </g>
    </g>
    <g id="xtick_8">
     <g id="line2d_15">
      <path d="M 615.46011 320.4 
L 615.46011 43.2 
" clip-path="url(#p3cf0232863)" style="fill: none; stroke-dasharray: 5.12,1.28,0.8,1.28; stroke-dashoffset: 0; stroke: #b0b0b0; stroke-width: 0.8"/>
     </g>
     <g id="line2d_16">
      <g>
       <use xlink:href="#mc95bf53d65" x="615.46011" y="320.4" style="fill: #a9a9a9; stroke: #a9a9a9; stroke-width: 0.8"/>
      </g>
     </g>
     <g id="text_8">
      <!-- 2024-01 -->
      <g style="fill: #a9a9a9" transform="translate(594.568704 334.998438) scale(0.1 -0.1)">
       <defs>
        <path id="DejaVuSans-34" d="M 2419 4116 
L 825 1625 
L 2419 1625 
L 2419 4116 
z
M 2253 4666 
L 3047 4666 
L 3047 1625 
L 3713 1625 
L 3713 1100 
L 3047 1100 
L 3047 0 
L 2419 0 
L 2419 1100 
L 313 1100 
L 313 1709 
L 2253 4666 
z
" transform="scale(0.015625)"/>
       </defs>
       <use xlink:href="#DejaVuSans-32"/>
       <use xlink:href="#DejaVuSans-30" x="63.623047"/>
       <use xlink:href="#DejaVuSans-32" x="127.246094"/>
       <use xlink:href="#DejaVuSans-34" x="190.869141"/>
       <use xlink:href="#DejaVuSans-2d" x="254.492188"/>
       <use xlink:href="#DejaVuSans-30" x="290.576172"/>
       <use xlink:href="#DejaVuSans-31" x="354.199219"/>
      </g>
     </g>
    </g>
    <g id="xtick_9">
     <g id="line2d_17">
      <path d="M 680.241113 320.4 
L 680.241113 43.2 
" clip-path="url(#p3cf0232863)" style="fill: none; stroke-dasharray: 5.12,1.28,0.8,1.28; stroke-dashoffset: 0; stroke: #b0b0b0; stroke-width: 0.8"/>
     </g>
     <g id="line2d_18">
      <g>
       <use xlink:href="#mc95bf53d65" x="680.241113" y="320.4" style="fill: #a9a9a9; stroke: #a9a9a9; stroke-width: 0.8"/>
      </g>
     </g>
     <g id="text_9">
      <!-- 2024-05 -->
      <g style="fill: #a9a9a9" transform="translate(659.349707 334.998438) scale(0.1 -0.1)">
       <use xlink:href="#DejaVuSans-32"/>
       <use xlink:href="#DejaVuSans-30" x="63.623047"/>
       <use xlink:href="#DejaVuSans-32" x="127.246094"/>
       <use xlink:href="#DejaVuSans-34" x="190.869141"/>
       <use xlink:href="#DejaVuSans-2d" x="254.492188"/>
       <use xlink:href="#DejaVuSans-30" x="290.576172"/>
       <use xlink:href="#DejaVuSans-35" x="354.199219"/>
      </g>
     </g>
    </g>
    <g id="xtick_10">
     <g id="line2d_19">
      <path d="M 746.092876 320.4 
L 746.092876 43.2 
" clip-path="url(#p3cf0232863)" style="fill: none; stroke-dasharray: 5.12,1.28,0.8,1.28; stroke-dashoffset: 0; stroke: #b0b0b0; stroke-width: 0.8"/>
     </g>
     <g id="line2d_20">
      <g>
       <use xlink:href="#mc95bf53d65" x="746.092876" y="320.4" style="fill: #a9a9a9; stroke: #a9a9a9; stroke-width: 0.8"/>
      </g>
     </g>
     <g id="text_10">
      <!-- 2024-09 -->
      <g style="fill: #a9a9a9" transform="translate(725.20147 334.998438) scale(0.1 -0.1)">
       <use xlink:href="#DejaVuSans-32"/>
       <use xlink:href="#DejaVuSans-30" x="63.623047"/>
       <use xlink:href="#DejaVuSans-32" x="127.246094"/>
       <use xlink:href="#DejaVuSans-34" x="190.869141"/>
       <use xlink:href="#DejaVuSans-2d" x="254.492188"/>
       <use xlink:href="#DejaVuSans-30" x="290.576172"/>
       <use xlink:href="#DejaVuSans-39" x="354.199219"/>
      </g>
     </g>
    </g>
   </g>
   <g id="matplotlib.axis_2">
    <g id="ytick_1">
     <g id="line2d_21">
      <path d="M 108 307.838153 
L 777.6 307.838153 
" clip-path="url(#p3cf0232863)" style="fill: none; stroke-dasharray: 5.12,1.28,0.8,1.28; stroke-dashoffset: 0; stroke: #b0b0b0; stroke-width: 0.8"/>
     </g>
     <g id="line2d_22">
      <defs>
       <path id="mebeb3dfb24" d="M 0 0 
L -3.5 0 
" style="stroke: #a9a9a9; stroke-width: 0.8"/>
      </defs>
      <g>
       <use xlink:href="#mebeb3dfb24" x="108" y="307.838153" style="fill: #a9a9a9; stroke: #a9a9a9; stroke-width: 0.8"/>
      </g>
     </g>
     <g id="text_11">
      <!-- 0 -->
      <g style="fill: #a9a9a9" transform="translate(94.6375 311.637372) scale(0.1 -0.1)">
       <use xlink:href="#DejaVuSans-30"/>
      </g>
     </g>
    </g>
    <g id="ytick_2">
     <g id="line2d_23">
      <path d="M 108 277.315821 
L 777.6 277.315821 
" clip-path="url(#p3cf0232863)" style="fill: none; stroke-dasharray: 5.12,1.28,0.8,1.28; stroke-dashoffset: 0; stroke: #b0b0b0; stroke-width: 0.8"/>
     </g>
     <g id="line2d_24">
      <g>
       <use xlink:href="#mebeb3dfb24" x="108" y="277.315821" style="fill: #a9a9a9; stroke: #a9a9a9; stroke-width: 0.8"/>
      </g>
     </g>
     <g id="text_12">
      <!-- 800 -->
      <g style="fill: #a9a9a9" transform="translate(81.9125 281.11504) scale(0.1 -0.1)">
       <defs>
        <path id="DejaVuSans-38" d="M 2034 2216 
Q 1584 2216 1326 1975 
Q 1069 1734 1069 1313 
Q 1069 891 1326 650 
Q 1584 409 2034 409 
Q 2484 409 2743 651 
Q 3003 894 3003 1313 
Q 3003 1734 2745 1975 
Q 2488 2216 2034 2216 
z
M 1403 2484 
Q 997 2584 770 2862 
Q 544 3141 544 3541 
Q 544 4100 942 4425 
Q 1341 4750 2034 4750 
Q 2731 4750 3128 4425 
Q 3525 4100 3525 3541 
Q 3525 3141 3298 2862 
Q 3072 2584 2669 2484 
Q 3125 2378 3379 2068 
Q 3634 1759 3634 1313 
Q 3634 634 3220 271 
Q 2806 -91 2034 -91 
Q 1263 -91 848 271 
Q 434 634 434 1313 
Q 434 1759 690 2068 
Q 947 2378 1403 2484 
z
M 1172 3481 
Q 1172 3119 1398 2916 
Q 1625 2713 2034 2713 
Q 2441 2713 2670 2916 
Q 2900 3119 2900 3481 
Q 2900 3844 2670 4047 
Q 2441 4250 2034 4250 
Q 1625 4250 1398 4047 
Q 1172 3844 1172 3481 
z
" transform="scale(0.015625)"/>
       </defs>
       <use xlink:href="#DejaVuSans-38"/>
       <use xlink:href="#DejaVuSans-30" x="63.623047"/>
       <use xlink:href="#DejaVuSans-30" x="127.246094"/>
      </g>
     </g>
    </g>
    <g id="ytick_3">
     <g id="line2d_25">
      <path d="M 108 246.79349 
L 777.6 246.79349 
" clip-path="url(#p3cf0232863)" style="fill: none; stroke-dasharray: 5.12,1.28,0.8,1.28; stroke-dashoffset: 0; stroke: #b0b0b0; stroke-width: 0.8"/>
     </g>
     <g id="line2d_26">
      <g>
       <use xlink:href="#mebeb3dfb24" x="108" y="246.79349" style="fill: #a9a9a9; stroke: #a9a9a9; stroke-width: 0.8"/>
      </g>
     </g>
     <g id="text_13">
      <!-- 1600 -->
      <g style="fill: #a9a9a9" transform="translate(75.55 250.592709) scale(0.1 -0.1)">
       <defs>
        <path id="DejaVuSans-36" d="M 2113 2584 
Q 1688 2584 1439 2293 
Q 1191 2003 1191 1497 
Q 1191 994 1439 701 
Q 1688 409 2113 409 
Q 2538 409 2786 701 
Q 3034 994 3034 1497 
Q 3034 2003 2786 2293 
Q 2538 2584 2113 2584 
z
M 3366 4563 
L 3366 3988 
Q 3128 4100 2886 4159 
Q 2644 4219 2406 4219 
Q 1781 4219 1451 3797 
Q 1122 3375 1075 2522 
Q 1259 2794 1537 2939 
Q 1816 3084 2150 3084 
Q 2853 3084 3261 2657 
Q 3669 2231 3669 1497 
Q 3669 778 3244 343 
Q 2819 -91 2113 -91 
Q 1303 -91 875 529 
Q 447 1150 447 2328 
Q 447 3434 972 4092 
Q 1497 4750 2381 4750 
Q 2619 4750 2861 4703 
Q 3103 4656 3366 4563 
z
" transform="scale(0.015625)"/>
       </defs>
       <use xlink:href="#DejaVuSans-31"/>
       <use xlink:href="#DejaVuSans-36" x="63.623047"/>
       <use xlink:href="#DejaVuSans-30" x="127.246094"/>
       <use xlink:href="#DejaVuSans-30" x="190.869141"/>
      </g>
     </g>
    </g>
    <g id="ytick_4">
     <g id="line2d_27">
      <path d="M 108 216.271158 
L 777.6 216.271158 
" clip-path="url(#p3cf0232863)" style="fill: none; stroke-dasharray: 5.12,1.28,0.8,1.28; stroke-dashoffset: 0; stroke: #b0b0b0; stroke-width: 0.8"/>
     </g>
     <g id="line2d_28">
      <g>
       <use xlink:href="#mebeb3dfb24" x="108" y="216.271158" style="fill: #a9a9a9; stroke: #a9a9a9; stroke-width: 0.8"/>
      </g>
     </g>
     <g id="text_14">
      <!-- 2400 -->
      <g style="fill: #a9a9a9" transform="translate(75.55 220.070377) scale(0.1 -0.1)">
       <use xlink:href="#DejaVuSans-32"/>
       <use xlink:href="#DejaVuSans-34" x="63.623047"/>
       <use xlink:href="#DejaVuSans-30" x="127.246094"/>
       <use xlink:href="#DejaVuSans-30" x="190.869141"/>
      </g>
     </g>
    </g>
    <g id="ytick_5">
     <g id="line2d_29">
      <path d="M 108 185.748827 
L 777.6 185.748827 
" clip-path="url(#p3cf0232863)" style="fill: none; stroke-dasharray: 5.12,1.28,0.8,1.28; stroke-dashoffset: 0; stroke: #b0b0b0; stroke-width: 0.8"/>
     </g>
     <g id="line2d_30">
      <g>
       <use xlink:href="#mebeb3dfb24" x="108" y="185.748827" style="fill: #a9a9a9; stroke: #a9a9a9; stroke-width: 0.8"/>
      </g>
     </g>
     <g id="text_15">
      <!-- 3200 -->
      <g style="fill: #a9a9a9" transform="translate(75.55 189.548045) scale(0.1 -0.1)">
       <use xlink:href="#DejaVuSans-33"/>
       <use xlink:href="#DejaVuSans-32" x="63.623047"/>
       <use xlink:href="#DejaVuSans-30" x="127.246094"/>
       <use xlink:href="#DejaVuSans-30" x="190.869141"/>
      </g>
     </g>
    </g>
    <g id="ytick_6">
     <g id="line2d_31">
      <path d="M 108 155.226495 
L 777.6 155.226495 
" clip-path="url(#p3cf0232863)" style="fill: none; stroke-dasharray: 5.12,1.28,0.8,1.28; stroke-dashoffset: 0; stroke: #b0b0b0; stroke-width: 0.8"/>
     </g>
     <g id="line2d_32">
      <g>
       <use xlink:href="#mebeb3dfb24" x="108" y="155.226495" style="fill: #a9a9a9; stroke: #a9a9a9; stroke-width: 0.8"/>
      </g>
     </g>
     <g id="text_16">
      <!-- 4000 -->
      <g style="fill: #a9a9a9" transform="translate(75.55 159.025714) scale(0.1 -0.1)">
       <use xlink:href="#DejaVuSans-34"/>
       <use xlink:href="#DejaVuSans-30" x="63.623047"/>
       <use xlink:href="#DejaVuSans-30" x="127.246094"/>
       <use xlink:href="#DejaVuSans-30" x="190.869141"/>
      </g>
     </g>
    </g>
    <g id="ytick_7">
     <g id="line2d_33">
      <path d="M 108 124.704164 
L 777.6 124.704164 
" clip-path="url(#p3cf0232863)" style="fill: none; stroke-dasharray: 5.12,1.28,0.8,1.28; stroke-dashoffset: 0; stroke: #b0b0b0; stroke-width: 0.8"/>
     </g>
     <g id="line2d_34">
      <g>
       <use xlink:href="#mebeb3dfb24" x="108" y="124.704164" style="fill: #a9a9a9; stroke: #a9a9a9; stroke-width: 0.8"/>
      </g>
     </g>
     <g id="text_17">
      <!-- 4800 -->
      <g style="fill: #a9a9a9" transform="translate(75.55 128.503382) scale(0.1 -0.1)">
       <use xlink:href="#DejaVuSans-34"/>
       <use xlink:href="#DejaVuSans-38" x="63.623047"/>
       <use xlink:href="#DejaVuSans-30" x="127.246094"/>
       <use xlink:href="#DejaVuSans-30" x="190.869141"/>
      </g>
     </g>
    </g>
    <g id="ytick_8">
     <g id="line2d_35">
      <path d="M 108 94.181832 
L 777.6 94.181832 
" clip-path="url(#p3cf0232863)" style="fill: none; stroke-dasharray: 5.12,1.28,0.8,1.28; stroke-dashoffset: 0; stroke: #b0b0b0; stroke-width: 0.8"/>
     </g>
     <g id="line2d_36">
      <g>
       <use xlink:href="#mebeb3dfb24" x="108" y="94.181832" style="fill: #a9a9a9; stroke: #a9a9a9; stroke-width: 0.8"/>
      </g>
     </g>
     <g id="text_18">
      <!-- 5600 -->
      <g style="fill: #a9a9a9" transform="translate(75.55 97.981051) scale(0.1 -0.1)">
       <use xlink:href="#DejaVuSans-35"/>
       <use xlink:href="#DejaVuSans-36" x="63.623047"/>
       <use xlink:href="#DejaVuSans-30" x="127.246094"/>
       <use xlink:href="#DejaVuSans-30" x="190.869141"/>
      </g>
     </g>
    </g>
    <g id="ytick_9">
     <g id="line2d_37">
      <path d="M 108 63.6595 
L 777.6 63.6595 
" clip-path="url(#p3cf0232863)" style="fill: none; stroke-dasharray: 5.12,1.28,0.8,1.28; stroke-dashoffset: 0; stroke: #b0b0b0; stroke-width: 0.8"/>
     </g>
     <g id="line2d_38">
      <g>
       <use xlink:href="#mebeb3dfb24" x="108" y="63.6595" style="fill: #a9a9a9; stroke: #a9a9a9; stroke-width: 0.8"/>
      </g>
     </g>
     <g id="text_19">
      <!-- 6400 -->
      <g style="fill: #a9a9a9" transform="translate(75.55 67.458719) scale(0.1 -0.1)">
       <use xlink:href="#DejaVuSans-36"/>
       <use xlink:href="#DejaVuSans-34" x="63.623047"/>
       <use xlink:href="#DejaVuSans-30" x="127.246094"/>
       <use xlink:href="#DejaVuSans-30" x="190.869141"/>
      </g>
     </g>
    </g>
   </g>
   <g id="line2d_39">
    <path d="M 138.436364 307.723694 
L 141.648645 307.456624 
L 142.184025 307.227706 
L 143.790166 307.075095 
L 147.002447 306.426495 
L 150.214728 306.159425 
L 151.285488 305.739743 
L 151.820868 305.05299 
L 152.356249 304.671461 
L 152.891629 303.488721 
L 153.427009 303.412415 
L 153.962389 302.992733 
L 155.033149 302.458592 
L 157.17467 300.779864 
L 159.316191 299.749735 
L 160.922331 299.02483 
L 161.457712 298.185466 
L 162.528472 297.422407 
L 163.063852 297.19349 
L 168.417654 296.430431 
L 168.953034 296.163361 
L 172.700696 295.858138 
L 174.842216 295.36215 
L 179.125258 294.789856 
L 179.660638 294.484633 
L 180.196018 294.408327 
L 181.266779 294.064951 
L 185.01444 293.454504 
L 186.0852 293.149281 
L 187.691341 292.996669 
L 188.762101 292.88221 
L 191.439002 292.195458 
L 192.509763 292.119152 
L 193.580523 291.96654 
L 194.651283 291.737623 
L 195.186663 291.585011 
L 195.722044 290.860106 
L 197.328184 290.249659 
L 198.934325 289.829977 
L 199.469705 289.562907 
L 200.005085 289.524754 
L 202.681986 288.761696 
L 203.752746 288.68539 
L 204.288127 288.609084 
L 205.894267 288.113096 
L 208.035788 287.578955 
L 208.571168 287.350038 
L 209.106548 287.273732 
L 209.641929 287.006662 
L 214.99573 286.20545 
L 217.672631 285.442392 
L 218.208012 285.099016 
L 220.884912 284.221499 
L 221.955673 283.496593 
L 223.561813 283.19137 
L 233.734037 280.253596 
L 234.804797 279.833914 
L 235.875558 279.757608 
L 237.481698 279.299773 
L 238.017078 279.299773 
L 238.552459 279.070855 
L 239.623219 278.956397 
L 240.158599 278.765632 
L 241.22936 278.727479 
L 243.37088 278.460409 
L 244.441641 277.926268 
L 250.866203 275.064799 
L 251.401583 274.492506 
L 252.472343 272.890083 
L 253.007724 272.737472 
L 253.543104 272.737472 
L 254.613864 271.93626 
L 256.220005 271.40212 
L 256.755385 270.906132 
L 257.826145 270.48645 
L 258.896906 269.990462 
L 259.967666 268.464345 
L 260.503046 268.120969 
L 261.038426 267.205299 
L 261.573807 266.633005 
L 264.786088 264.954277 
L 265.856848 264.114913 
L 266.392228 263.771537 
L 266.927609 262.970326 
L 267.462989 261.787585 
L 267.998369 260.986374 
L 268.533749 260.566692 
L 269.069129 260.337774 
L 270.67527 258.926117 
L 272.816791 257.171083 
L 273.352171 256.446177 
L 274.422931 255.492354 
L 276.564452 254.080696 
L 277.099832 253.622861 
L 277.635212 253.508403 
L 278.705973 252.936109 
L 280.847493 251.829674 
L 281.918254 250.799546 
L 282.453634 250.150946 
L 283.524394 249.387888 
L 284.595155 248.968206 
L 285.665915 248.243301 
L 286.201295 247.938077 
L 286.736675 247.861771 
L 290.484337 245.534444 
L 292.625858 244.389856 
L 293.161238 243.893868 
L 301.727321 240.917941 
L 302.798081 239.964118 
L 303.868841 239.46813 
L 304.939602 238.895836 
L 305.474982 238.590613 
L 306.545742 238.28539 
L 307.081123 237.942014 
L 307.616503 237.789402 
L 309.222643 236.759273 
L 311.899544 236.148827 
L 313.505685 235.233157 
L 314.041065 235.156851 
L 315.111825 234.88978 
L 315.647206 234.737169 
L 317.253346 233.516276 
L 318.859487 233.134746 
L 319.394867 232.943982 
L 319.930247 232.5243 
L 323.142528 231.456018 
L 323.677908 231.417865 
L 324.748669 230.998183 
L 329.03171 229.472067 
L 330.102471 229.319455 
L 331.708611 228.785314 
L 334.385512 227.526268 
L 336.527033 226.381681 
L 340.810074 224.664799 
L 341.345455 224.588494 
L 342.416215 223.939894 
L 342.951595 223.863588 
L 345.093116 222.986071 
L 347.234637 222.680848 
L 348.305397 222.146707 
L 348.840777 221.688872 
L 349.376157 220.735049 
L 350.982298 220.429826 
L 353.123819 219.361544 
L 353.659199 219.247086 
L 357.94224 217.224981 
L 359.548381 216.881605 
L 360.619141 216.347464 
L 361.154521 216.118547 
L 361.689902 216.042241 
L 363.831422 215.088418 
L 365.437563 214.096442 
L 365.972943 214.020136 
L 366.508323 213.829372 
L 367.043704 213.791219 
L 369.720604 213.142619 
L 370.255985 212.722937 
L 370.791365 212.608478 
L 372.397505 211.998032 
L 372.932886 211.84542 
L 373.468266 211.502044 
L 374.003646 211.349432 
L 374.539026 210.967903 
L 375.074406 210.777139 
L 376.145167 210.204845 
L 378.822068 209.327328 
L 380.428208 208.068282 
L 380.963588 207.953823 
L 382.034349 207.114459 
L 382.569729 207.038153 
L 383.105109 206.198789 
L 383.640489 205.969871 
L 384.17587 205.550189 
L 384.71125 205.473883 
L 385.78201 204.825284 
L 386.31739 204.710825 
L 386.85277 204.481908 
L 387.388151 204.062226 
L 387.923531 203.871461 
L 389.529671 202.765026 
L 391.671192 201.658592 
L 392.206572 201.582286 
L 393.812713 200.781075 
L 394.348093 199.903558 
L 394.883473 199.445723 
L 395.418853 199.1405 
L 395.954234 199.026041 
L 397.024994 198.339288 
L 397.560374 198.22483 
L 398.631135 197.690689 
L 400.237275 197.003936 
L 401.308036 196.240878 
L 402.914176 194.791067 
L 403.984936 194.180621 
L 404.520317 193.608327 
L 406.661837 192.158516 
L 407.197218 191.54807 
L 407.732598 191.128388 
L 408.803358 190.746858 
L 409.874118 190.021953 
L 411.480259 189.220742 
L 412.015639 189.144436 
L 413.62178 188.266919 
L 414.69254 187.618319 
L 420.046342 185.710674 
L 420.581722 185.290992 
L 422.723243 184.48978 
L 423.258623 184.337169 
L 423.794003 183.917487 
L 426.470904 182.467676 
L 427.541665 180.369266 
L 428.612425 179.148372 
L 429.683185 178.499773 
L 431.289326 177.851173 
L 431.824706 177.774868 
L 432.360086 177.469644 
L 435.036987 176.63028 
L 435.572367 176.401363 
L 436.643128 175.676457 
L 438.249268 174.989705 
L 439.320029 174.417411 
L 439.855409 174.035882 
L 440.390789 173.806964 
L 440.926169 173.425435 
L 441.46155 172.853142 
L 442.53231 172.280848 
L 445.209211 170.86919 
L 448.421492 169.304921 
L 448.956872 169.190462 
L 450.563013 168.618168 
L 451.633773 168.198486 
L 452.169153 167.816957 
L 453.239914 167.511734 
L 454.310674 167.092051 
L 454.846054 166.672369 
L 455.916815 166.328993 
L 459.129096 164.688418 
L 460.199856 163.849054 
L 461.270616 163.467525 
L 461.805997 163.00969 
L 462.341377 162.933384 
L 463.412137 162.132173 
L 464.482898 161.598032 
L 465.018278 161.369114 
L 465.553658 160.834974 
L 469.301319 159.385163 
L 470.37208 158.927328 
L 471.97822 158.43134 
L 473.048981 158.278728 
L 473.584361 158.049811 
L 474.119741 157.973505 
L 475.190501 157.51567 
L 475.725882 157.477517 
L 477.867402 156.676306 
L 479.473543 155.569871 
L 482.150444 154.310825 
L 484.827345 152.861014 
L 485.362725 152.746556 
L 486.968865 151.830886 
L 488.575006 151.296745 
L 489.645766 150.953369 
L 491.787287 150.266616 
L 492.858047 149.92324 
L 494.464188 149.65617 
L 496.605709 148.969417 
L 497.141089 148.7405 
L 497.676469 148.664194 
L 498.211849 148.397123 
L 499.28261 148.206359 
L 500.88875 147.634065 
L 501.959511 147.519606 
L 503.565651 147.17623 
L 504.636412 146.985466 
L 505.707172 146.794701 
L 506.777932 146.565783 
L 507.313313 146.451325 
L 507.848693 146.222407 
L 508.384073 146.184254 
L 511.060974 145.306737 
L 511.596354 145.115973 
L 512.131734 145.115973 
L 518.020916 143.399092 
L 518.556296 143.132021 
L 519.091677 143.132021 
L 520.162437 142.750492 
L 520.697817 142.216351 
L 521.768578 141.796669 
L 524.980859 140.652082 
L 525.516239 140.308706 
L 526.051619 140.194247 
L 526.586999 139.889023 
L 527.65776 139.698259 
L 528.72852 139.278577 
L 529.2639 139.164118 
L 529.79928 138.820742 
L 530.334661 138.706283 
L 530.870041 138.248448 
L 532.476181 137.943225 
L 533.546942 137.447237 
L 534.082322 136.874943 
L 536.223843 136.378955 
L 539.971504 135.615897 
L 540.506884 135.615897 
L 541.042264 135.38698 
L 543.183785 135.00545 
L 543.719165 134.776533 
L 545.860686 134.395004 
L 546.931446 133.937169 
L 547.466827 133.899016 
L 556.56829 131.190159 
L 557.10367 130.961241 
L 557.63905 130.579712 
L 558.709811 130.274489 
L 559.780571 129.931113 
L 560.851331 129.511431 
L 562.457472 128.786525 
L 564.063612 128.672067 
L 566.205133 128.06162 
L 566.740513 127.718244 
L 567.811274 127.41302 
L 570.488175 126.23028 
L 571.023555 126.192127 
L 576.912737 124.170023 
L 579.054258 123.635882 
L 580.125018 123.2162 
L 580.660398 122.987282 
L 581.731159 122.758365 
L 582.266539 122.643906 
L 582.801919 122.224224 
L 583.337299 121.957154 
L 583.872679 121.308554 
L 584.408059 120.927025 
L 585.47882 120.621802 
L 586.0142 120.20212 
L 588.691101 119.095685 
L 589.226481 118.981226 
L 589.761861 118.63785 
L 590.832622 118.332627 
L 591.368002 117.989251 
L 594.044903 117.111734 
L 595.651043 116.196064 
L 596.186424 116.081605 
L 597.257184 115.471158 
L 597.792564 115.242241 
L 598.863325 114.593641 
L 600.469465 113.830583 
L 601.004845 113.449054 
L 602.075606 113.105678 
L 603.146366 112.495231 
L 603.681746 112.304466 
L 604.217126 111.922937 
L 611.177069 109.519304 
L 611.712449 109.404845 
L 612.247829 109.061469 
L 612.783209 108.985163 
L 613.85397 108.718092 
L 614.92473 108.489175 
L 618.672391 106.657835 
L 619.207772 106.581529 
L 620.813912 105.704012 
L 624.026193 104.444966 
L 626.167714 103.605602 
L 626.703094 103.45299 
L 627.238474 103.109614 
L 628.309235 102.957002 
L 628.844615 102.613626 
L 629.379995 102.575473 
L 630.450756 102.232097 
L 631.521516 101.697956 
L 632.056896 101.62165 
L 634.733797 100.553369 
L 635.269177 100.43891 
L 636.339938 100.095534 
L 637.410698 99.828463 
L 638.481458 99.561393 
L 640.087599 98.950946 
L 642.22912 97.768206 
L 643.29988 97.348524 
L 643.83526 97.005148 
L 644.906021 96.77623 
L 645.441401 96.471007 
L 645.976781 96.356548 
L 647.582922 95.517184 
L 648.653682 95.097502 
L 650.259822 94.372597 
L 651.865963 93.952914 
L 655.078244 92.693868 
L 656.684385 92.159727 
L 664.715088 88.725965 
L 665.250468 88.649659 
L 667.391988 87.810295 
L 668.998129 86.932778 
L 669.533509 86.818319 
L 670.60427 86.398637 
L 671.13965 86.398637 
L 672.21041 85.940802 
L 673.281171 84.98698 
L 673.816551 84.529145 
L 675.422691 83.766086 
L 675.958071 83.651628 
L 676.493452 83.384557 
L 677.028832 83.308251 
L 677.564212 82.926722 
L 678.099592 82.812263 
L 679.170353 82.163664 
L 680.776493 81.362453 
L 681.847254 80.942771 
L 682.382634 80.6757 
L 683.988774 80.294171 
L 686.665675 79.416654 
L 687.201055 79.302195 
L 689.342576 78.272067 
L 690.413337 77.776079 
L 691.484097 77.509008 
L 695.231758 75.753974 
L 697.908659 74.800151 
L 699.5148 73.846329 
L 700.05018 73.73187 
L 701.12094 73.197729 
L 702.191701 72.8162 
L 702.727081 72.358365 
L 703.262461 72.053142 
L 704.868602 71.557154 
L 705.939362 70.832248 
L 706.474742 70.794095 
L 707.545503 70.488872 
L 708.080883 70.374413 
L 710.222403 69.573202 
L 711.828544 69.077214 
L 712.363924 69.000908 
L 713.434685 68.428615 
L 713.970065 68.23785 
L 714.505445 67.818168 
L 716.111586 67.398486 
L 716.646966 67.093263 
L 717.717726 66.826192 
L 719.323867 65.948675 
L 719.859247 65.910522 
L 721.465387 65.414534 
L 722.536148 65.300076 
L 723.606908 64.880394 
L 726.819189 63.964724 
L 727.88995 63.926571 
L 731.102231 62.896442 
L 731.637611 62.820136 
L 733.243751 61.980772 
L 733.779132 61.522937 
L 734.314512 61.255867 
L 735.920652 60.073126 
L 737.526793 59.386374 
L 738.597553 59.081151 
L 739.132934 58.775927 
L 739.668314 58.661469 
L 740.203694 58.241787 
L 741.809834 57.516881 
L 742.345215 57.402422 
L 743.415975 56.906435 
L 745.022116 56.486752 
L 747.163636 55.8 
L 747.163636 55.8 
" clip-path="url(#p3cf0232863)" style="fill: none; stroke: #1f77b4; stroke-width: 1.5; stroke-linecap: square"/>
   </g>
   <g id="line2d_40">
    <path d="M 138.971744 307.8 
L 140.577884 307.723694 
L 142.184025 307.685541 
L 145.396306 307.609235 
L 148.073207 307.494777 
L 150.214728 307.494777 
L 150.750108 307.342165 
L 152.891629 307.265859 
L 154.497769 307.075095 
L 156.10391 306.922483 
L 159.316191 306.769871 
L 159.851571 306.769871 
L 160.386951 306.655413 
L 162.528472 306.579107 
L 163.599232 306.502801 
L 167.882274 306.426495 
L 170.559175 306.312036 
L 176.983737 306.235731 
L 179.660638 306.121272 
L 182.872919 306.044966 
L 185.01444 305.96866 
L 189.832862 305.892354 
L 191.439002 305.854201 
L 193.045143 305.816048 
L 194.651283 305.625284 
L 197.863564 305.587131 
L 198.934325 305.510825 
L 202.681986 305.434519 
L 208.571168 305.091143 
L 212.318829 305.014837 
L 213.38959 304.938531 
L 214.99573 304.862226 
L 218.208012 304.709614 
L 220.349532 304.671461 
L 221.955673 304.518849 
L 228.915615 304.099167 
L 231.592516 304.022861 
L 236.410938 303.755791 
L 238.017078 303.679485 
L 243.37088 303.374262 
L 249.260062 303.297956 
L 251.401583 303.069039 
L 252.472343 302.992733 
L 259.432286 302.420439 
L 262.644567 302.000757 
L 264.786088 301.924451 
L 269.069129 301.352157 
L 272.28141 301.275852 
L 273.887551 301.12324 
L 274.958311 301.085087 
L 276.029072 300.970628 
L 277.635212 300.894322 
L 278.705973 300.741711 
L 281.382874 300.436488 
L 283.524394 300.360182 
L 284.595155 300.283876 
L 286.736675 300.20757 
L 287.807436 300.131264 
L 290.484337 299.864194 
L 291.555097 299.673429 
L 293.161238 299.635276 
L 294.231998 299.55897 
L 296.908899 299.482665 
L 303.868841 299.062983 
L 305.474982 298.986677 
L 312.434924 298.566995 
L 316.182586 298.490689 
L 316.717966 298.37623 
L 321.001007 298.299924 
L 324.748669 298.10916 
L 330.637851 298.032854 
L 334.385512 297.842089 
L 338.668554 297.765783 
L 342.951595 297.536866 
L 346.699256 297.46056 
L 356.87148 296.811961 
L 362.225282 296.735655 
L 364.366803 296.506737 
L 365.972943 296.468584 
L 367.579084 296.430431 
L 369.720604 296.201514 
L 375.074406 295.896291 
L 378.286687 295.819985 
L 379.892828 295.781832 
L 381.498969 295.743679 
L 383.105109 295.591067 
L 387.388151 295.514762 
L 388.458911 295.36215 
L 389.529671 295.285844 
L 392.206572 295.171385 
L 393.277333 295.095079 
L 394.348093 295.018774 
L 399.166515 294.942468 
L 400.237275 294.828009 
L 402.378796 294.789856 
L 402.914176 294.675397 
L 403.984936 294.599092 
L 404.520317 294.484633 
L 406.126457 294.408327 
L 410.944879 294.141257 
L 412.015639 294.103104 
L 413.62178 293.950492 
L 415.22792 293.912339 
L 416.834061 293.836033 
L 419.510962 293.721575 
L 427.006284 293.645269 
L 430.753946 293.454504 
L 435.036987 293.378198 
L 437.178508 293.301893 
L 439.320029 293.26374 
L 440.390789 293.149281 
L 442.53231 293.072975 
L 447.886112 292.767752 
L 451.098393 292.729599 
L 452.704533 292.576987 
L 454.310674 292.538834 
L 458.058335 292.462528 
L 460.199856 292.386223 
L 466.624418 292.309917 
L 469.301319 292.195458 
L 472.5136 292.119152 
L 474.119741 291.928388 
L 477.332022 291.890235 
L 478.938163 291.737623 
L 481.079683 291.661317 
L 487.504246 291.585011 
L 490.181147 291.470553 
L 499.28261 291.4324 
L 500.35337 291.356094 
L 501.959511 291.317941 
L 508.919453 291.241635 
L 509.990213 291.165329 
L 515.879396 291.089023 
L 518.020916 291.012718 
L 528.19314 290.936412 
L 529.79928 290.898259 
L 534.617702 290.821953 
L 535.688462 290.745647 
L 548.537587 290.669341 
L 550.143728 290.631188 
L 564.598993 290.554883 
L 566.205133 290.51673 
L 575.841976 290.440424 
L 576.912737 290.364118 
L 579.589638 290.287812 
L 581.195778 290.135201 
L 583.872679 290.058895 
L 587.08496 289.906283 
L 591.368002 289.829977 
L 592.438762 289.753671 
L 596.721804 289.677366 
L 599.934085 289.524754 
L 602.610986 289.448448 
L 606.894027 289.219531 
L 610.106308 289.143225 
L 612.247829 289.066919 
L 619.207772 288.990613 
L 621.349292 288.914307 
L 625.632334 288.838002 
L 629.379995 288.647237 
L 634.198417 288.570931 
L 635.269177 288.494625 
L 644.906021 288.418319 
L 646.512161 288.380167 
L 649.189062 288.342014 
L 651.330583 288.113096 
L 652.936723 288.074943 
L 656.149005 287.998637 
L 661.502806 287.693414 
L 664.179707 287.617108 
L 666.321228 287.540802 
L 672.21041 287.464497 
L 674.887311 287.159273 
L 677.028832 287.082967 
L 680.776493 287.006662 
L 681.311873 286.892203 
L 686.130295 286.815897 
L 688.807196 286.701438 
L 695.767138 286.663285 
L 696.302519 286.548827 
L 700.58556 286.472521 
L 702.191701 286.434368 
L 704.868602 286.358062 
L 706.474742 286.319909 
L 715.576205 286.243603 
L 718.253106 286.129145 
L 725.748429 286.052839 
L 727.88995 285.976533 
L 733.779132 285.900227 
L 734.314512 285.785768 
L 739.668314 285.747615 
L 740.739074 285.67131 
L 743.415975 285.595004 
L 745.022116 285.556851 
L 747.163636 285.556851 
L 747.163636 285.556851 
" clip-path="url(#p3cf0232863)" style="fill: none; stroke: #ff7f0e; stroke-width: 1.5; stroke-linecap: square"/>
   </g>
   <g id="patch_3">
    <path d="M 108 320.4 
L 108 43.2 
" style="fill: none; stroke: #a9a9a9; stroke-width: 0.8; stroke-linejoin: miter; stroke-linecap: square"/>
   </g>
   <g id="patch_4">
    <path d="M 777.6 320.4 
L 777.6 43.2 
" style="fill: none"/>
   </g>
   <g id="patch_5">
    <path d="M 108 320.4 
L 777.6 320.4 
" style="fill: none; stroke: #a9a9a9; stroke-width: 0.8; stroke-linejoin: miter; stroke-linecap: square"/>
   </g>
   <g id="patch_6">
    <path d="M 108 43.2 
L 777.6 43.2 
" style="fill: none"/>
   </g>
   <g id="text_20">
    <!-- get_subscribe history -->
    <g style="fill: #a9a9a9" transform="translate(378.6075 37.2) scale(0.12 -0.12)">
     <defs>
      <path id="DejaVuSans-67" d="M 2906 1791 
Q 2906 2416 2648 2759 
Q 2391 3103 1925 3103 
Q 1463 3103 1205 2759 
Q 947 2416 947 1791 
Q 947 1169 1205 825 
Q 1463 481 1925 481 
Q 2391 481 2648 825 
Q 2906 1169 2906 1791 
z
M 3481 434 
Q 3481 -459 3084 -895 
Q 2688 -1331 1869 -1331 
Q 1566 -1331 1297 -1286 
Q 1028 -1241 775 -1147 
L 775 -588 
Q 1028 -725 1275 -790 
Q 1522 -856 1778 -856 
Q 2344 -856 2625 -561 
Q 2906 -266 2906 331 
L 2906 616 
Q 2728 306 2450 153 
Q 2172 0 1784 0 
Q 1141 0 747 490 
Q 353 981 353 1791 
Q 353 2603 747 3093 
Q 1141 3584 1784 3584 
Q 2172 3584 2450 3431 
Q 2728 3278 2906 2969 
L 2906 3500 
L 3481 3500 
L 3481 434 
z
" transform="scale(0.015625)"/>
      <path id="DejaVuSans-65" d="M 3597 1894 
L 3597 1613 
L 953 1613 
Q 991 1019 1311 708 
Q 1631 397 2203 397 
Q 2534 397 2845 478 
Q 3156 559 3463 722 
L 3463 178 
Q 3153 47 2828 -22 
Q 2503 -91 2169 -91 
Q 1331 -91 842 396 
Q 353 884 353 1716 
Q 353 2575 817 3079 
Q 1281 3584 2069 3584 
Q 2775 3584 3186 3129 
Q 3597 2675 3597 1894 
z
M 3022 2063 
Q 3016 2534 2758 2815 
Q 2500 3097 2075 3097 
Q 1594 3097 1305 2825 
Q 1016 2553 972 2059 
L 3022 2063 
z
" transform="scale(0.015625)"/>
      <path id="DejaVuSans-74" d="M 1172 4494 
L 1172 3500 
L 2356 3500 
L 2356 3053 
L 1172 3053 
L 1172 1153 
Q 1172 725 1289 603 
Q 1406 481 1766 481 
L 2356 481 
L 2356 0 
L 1766 0 
Q 1100 0 847 248 
Q 594 497 594 1153 
L 594 3053 
L 172 3053 
L 172 3500 
L 594 3500 
L 594 4494 
L 1172 4494 
z
" transform="scale(0.015625)"/>
      <path id="DejaVuSans-5f" d="M 3263 -1063 
L 3263 -1509 
L -63 -1509 
L -63 -1063 
L 3263 -1063 
z
" transform="scale(0.015625)"/>
      <path id="DejaVuSans-73" d="M 2834 3397 
L 2834 2853 
Q 2591 2978 2328 3040 
Q 2066 3103 1784 3103 
Q 1356 3103 1142 2972 
Q 928 2841 928 2578 
Q 928 2378 1081 2264 
Q 1234 2150 1697 2047 
L 1894 2003 
Q 2506 1872 2764 1633 
Q 3022 1394 3022 966 
Q 3022 478 2636 193 
Q 2250 -91 1575 -91 
Q 1294 -91 989 -36 
Q 684 19 347 128 
L 347 722 
Q 666 556 975 473 
Q 1284 391 1588 391 
Q 1994 391 2212 530 
Q 2431 669 2431 922 
Q 2431 1156 2273 1281 
Q 2116 1406 1581 1522 
L 1381 1569 
Q 847 1681 609 1914 
Q 372 2147 372 2553 
Q 372 3047 722 3315 
Q 1072 3584 1716 3584 
Q 2034 3584 2315 3537 
Q 2597 3491 2834 3397 
z
" transform="scale(0.015625)"/>
      <path id="DejaVuSans-75" d="M 544 1381 
L 544 3500 
L 1119 3500 
L 1119 1403 
Q 1119 906 1312 657 
Q 1506 409 1894 409 
Q 2359 409 2629 706 
Q 2900 1003 2900 1516 
L 2900 3500 
L 3475 3500 
L 3475 0 
L 2900 0 
L 2900 538 
Q 2691 219 2414 64 
Q 2138 -91 1772 -91 
Q 1169 -91 856 284 
Q 544 659 544 1381 
z
M 1991 3584 
L 1991 3584 
z
" transform="scale(0.015625)"/>
      <path id="DejaVuSans-62" d="M 3116 1747 
Q 3116 2381 2855 2742 
Q 2594 3103 2138 3103 
Q 1681 3103 1420 2742 
Q 1159 2381 1159 1747 
Q 1159 1113 1420 752 
Q 1681 391 2138 391 
Q 2594 391 2855 752 
Q 3116 1113 3116 1747 
z
M 1159 2969 
Q 1341 3281 1617 3432 
Q 1894 3584 2278 3584 
Q 2916 3584 3314 3078 
Q 3713 2572 3713 1747 
Q 3713 922 3314 415 
Q 2916 -91 2278 -91 
Q 1894 -91 1617 61 
Q 1341 213 1159 525 
L 1159 0 
L 581 0 
L 581 4863 
L 1159 4863 
L 1159 2969 
z
" transform="scale(0.015625)"/>
      <path id="DejaVuSans-63" d="M 3122 3366 
L 3122 2828 
Q 2878 2963 2633 3030 
Q 2388 3097 2138 3097 
Q 1578 3097 1268 2742 
Q 959 2388 959 1747 
Q 959 1106 1268 751 
Q 1578 397 2138 397 
Q 2388 397 2633 464 
Q 2878 531 3122 666 
L 3122 134 
Q 2881 22 2623 -34 
Q 2366 -91 2075 -91 
Q 1284 -91 818 406 
Q 353 903 353 1747 
Q 353 2603 823 3093 
Q 1294 3584 2113 3584 
Q 2378 3584 2631 3529 
Q 2884 3475 3122 3366 
z
" transform="scale(0.015625)"/>
      <path id="DejaVuSans-72" d="M 2631 2963 
Q 2534 3019 2420 3045 
Q 2306 3072 2169 3072 
Q 1681 3072 1420 2755 
Q 1159 2438 1159 1844 
L 1159 0 
L 581 0 
L 581 3500 
L 1159 3500 
L 1159 2956 
Q 1341 3275 1631 3429 
Q 1922 3584 2338 3584 
Q 2397 3584 2469 3576 
Q 2541 3569 2628 3553 
L 2631 2963 
z
" transform="scale(0.015625)"/>
      <path id="DejaVuSans-69" d="M 603 3500 
L 1178 3500 
L 1178 0 
L 603 0 
L 603 3500 
z
M 603 4863 
L 1178 4863 
L 1178 4134 
L 603 4134 
L 603 4863 
z
" transform="scale(0.015625)"/>
      <path id="DejaVuSans-20" transform="scale(0.015625)"/>
      <path id="DejaVuSans-68" d="M 3513 2113 
L 3513 0 
L 2938 0 
L 2938 2094 
Q 2938 2591 2744 2837 
Q 2550 3084 2163 3084 
Q 1697 3084 1428 2787 
Q 1159 2491 1159 1978 
L 1159 0 
L 581 0 
L 581 4863 
L 1159 4863 
L 1159 2956 
Q 1366 3272 1645 3428 
Q 1925 3584 2291 3584 
Q 2894 3584 3203 3211 
Q 3513 2838 3513 2113 
z
" transform="scale(0.015625)"/>
      <path id="DejaVuSans-6f" d="M 1959 3097 
Q 1497 3097 1228 2736 
Q 959 2375 959 1747 
Q 959 1119 1226 758 
Q 1494 397 1959 397 
Q 2419 397 2687 759 
Q 2956 1122 2956 1747 
Q 2956 2369 2687 2733 
Q 2419 3097 1959 3097 
z
M 1959 3584 
Q 2709 3584 3137 3096 
Q 3566 2609 3566 1747 
Q 3566 888 3137 398 
Q 2709 -91 1959 -91 
Q 1206 -91 779 398 
Q 353 888 353 1747 
Q 353 2609 779 3096 
Q 1206 3584 1959 3584 
z
" transform="scale(0.015625)"/>
      <path id="DejaVuSans-79" d="M 2059 -325 
Q 1816 -950 1584 -1140 
Q 1353 -1331 966 -1331 
L 506 -1331 
L 506 -850 
L 844 -850 
Q 1081 -850 1212 -737 
Q 1344 -625 1503 -206 
L 1606 56 
L 191 3500 
L 800 3500 
L 1894 763 
L 2988 3500 
L 3597 3500 
L 2059 -325 
z
" transform="scale(0.015625)"/>
     </defs>
     <use xlink:href="#DejaVuSans-67"/>
     <use xlink:href="#DejaVuSans-65" x="63.476562"/>
     <use xlink:href="#DejaVuSans-74" x="125"/>
     <use xlink:href="#DejaVuSans-5f" x="164.208984"/>
     <use xlink:href="#DejaVuSans-73" x="214.208984"/>
     <use xlink:href="#DejaVuSans-75" x="266.308594"/>
     <use xlink:href="#DejaVuSans-62" x="329.6875"/>
     <use xlink:href="#DejaVuSans-73" x="393.164062"/>
     <use xlink:href="#DejaVuSans-63" x="445.263672"/>
     <use xlink:href="#DejaVuSans-72" x="500.244141"/>
     <use xlink:href="#DejaVuSans-69" x="541.357422"/>
     <use xlink:href="#DejaVuSans-62" x="569.140625"/>
     <use xlink:href="#DejaVuSans-65" x="632.617188"/>
     <use xlink:href="#DejaVuSans-20" x="694.140625"/>
     <use xlink:href="#DejaVuSans-68" x="725.927734"/>
     <use xlink:href="#DejaVuSans-69" x="789.306641"/>
     <use xlink:href="#DejaVuSans-73" x="817.089844"/>
     <use xlink:href="#DejaVuSans-74" x="869.189453"/>
     <use xlink:href="#DejaVuSans-6f" x="908.398438"/>
     <use xlink:href="#DejaVuSans-72" x="969.580078"/>
     <use xlink:href="#DejaVuSans-79" x="1010.693359"/>
    </g>
   </g>
   <g id="legend_1">
    <g id="line2d_41">
     <path d="M 815.08 328.498438 
L 825.08 328.498438 
L 835.08 328.498438 
" style="fill: none; stroke: #1f77b4; stroke-width: 1.5; stroke-linecap: square"/>
    </g>
    <g id="text_21">
     <!-- star -->
     <g style="fill: #a9a9a9" transform="translate(843.08 331.998438) scale(0.1 -0.1)">
      <defs>
       <path id="DejaVuSans-61" d="M 2194 1759 
Q 1497 1759 1228 1600 
Q 959 1441 959 1056 
Q 959 750 1161 570 
Q 1363 391 1709 391 
Q 2188 391 2477 730 
Q 2766 1069 2766 1631 
L 2766 1759 
L 2194 1759 
z
M 3341 1997 
L 3341 0 
L 2766 0 
L 2766 531 
Q 2569 213 2275 61 
Q 1981 -91 1556 -91 
Q 1019 -91 701 211 
Q 384 513 384 1019 
Q 384 1609 779 1909 
Q 1175 2209 1959 2209 
L 2766 2209 
L 2766 2266 
Q 2766 2663 2505 2880 
Q 2244 3097 1772 3097 
Q 1472 3097 1187 3025 
Q 903 2953 641 2809 
L 641 3341 
Q 956 3463 1253 3523 
Q 1550 3584 1831 3584 
Q 2591 3584 2966 3190 
Q 3341 2797 3341 1997 
z
" transform="scale(0.015625)"/>
      </defs>
      <use xlink:href="#DejaVuSans-73"/>
      <use xlink:href="#DejaVuSans-74" x="52.099609"/>
      <use xlink:href="#DejaVuSans-61" x="91.308594"/>
      <use xlink:href="#DejaVuSans-72" x="152.587891"/>
     </g>
    </g>
    <g id="line2d_42">
     <path d="M 815.08 343.176562 
L 825.08 343.176562 
L 835.08 343.176562 
" style="fill: none; stroke: #ff7f0e; stroke-width: 1.5; stroke-linecap: square"/>
    </g>
    <g id="text_22">
     <!-- fork -->
     <g style="fill: #a9a9a9" transform="translate(843.08 346.676562) scale(0.1 -0.1)">
      <defs>
       <path id="DejaVuSans-66" d="M 2375 4863 
L 2375 4384 
L 1825 4384 
Q 1516 4384 1395 4259 
Q 1275 4134 1275 3809 
L 1275 3500 
L 2222 3500 
L 2222 3053 
L 1275 3053 
L 1275 0 
L 697 0 
L 697 3053 
L 147 3053 
L 147 3500 
L 697 3500 
L 697 3744 
Q 697 4328 969 4595 
Q 1241 4863 1831 4863 
L 2375 4863 
z
" transform="scale(0.015625)"/>
       <path id="DejaVuSans-6b" d="M 581 4863 
L 1159 4863 
L 1159 1991 
L 2875 3500 
L 3609 3500 
L 1753 1863 
L 3688 0 
L 2938 0 
L 1159 1709 
L 1159 0 
L 581 0 
L 581 4863 
z
" transform="scale(0.015625)"/>
      </defs>
      <use xlink:href="#DejaVuSans-66"/>
      <use xlink:href="#DejaVuSans-6f" x="35.205078"/>
      <use xlink:href="#DejaVuSans-72" x="96.386719"/>
      <use xlink:href="#DejaVuSans-6b" x="137.5"/>
     </g>
    </g>
   </g>
  </g>
 </g>
 <defs>
  <clipPath id="p3cf0232863">
   <rect x="108" y="43.2" width="669.6" height="277.2"/>
  </clipPath>
 </defs>
</svg>
