<?xml version="1.0" encoding="utf-8" standalone="no"?>
<!DOCTYPE svg PUBLIC "-//W3C//DTD SVG 1.1//EN"
  "http://www.w3.org/Graphics/SVG/1.1/DTD/svg11.dtd">
<svg xmlns:xlink="http://www.w3.org/1999/xlink" width="864pt" height="360pt" viewBox="0 0 864 360" xmlns="http://www.w3.org/2000/svg" version="1.1">
 <metadata>
  <rdf:RDF xmlns:dc="http://purl.org/dc/elements/1.1/" xmlns:cc="http://creativecommons.org/ns#" xmlns:rdf="http://www.w3.org/1999/02/22-rdf-syntax-ns#">
   <cc:Work>
    <dc:type rdf:resource="http://purl.org/dc/dcmitype/StillImage"/>
    <dc:date>2024-09-02T08:12:53.772347</dc:date>
    <dc:format>image/svg+xml</dc:format>
    <dc:creator>
     <cc:Agent>
      <dc:title>Matplotlib v3.9.2, https://matplotlib.org/</dc:title>
     </cc:Agent>
    </dc:creator>
   </cc:Work>
  </rdf:RDF>
 </metadata>
 <defs>
  <style type="text/css">*{stroke-linejoin: round; stroke-linecap: butt}</style>
 </defs>
 <g id="figure_1">
  <g id="patch_1">
   <path d="M 0 360 
L 864 360 
L 864 0 
L 0 0 
L 0 360 
z
" style="fill: none; opacity: 0"/>
  </g>
  <g id="axes_1">
   <g id="patch_2">
    <path d="M 108 320.4 
L 777.6 320.4 
L 777.6 43.2 
L 108 43.2 
L 108 320.4 
z
" style="fill: none; opacity: 0"/>
   </g>
   <g id="matplotlib.axis_1">
    <g id="xtick_1">
     <g id="line2d_1">
      <path d="M 159.334571 320.4 
L 159.334571 43.2 
" clip-path="url(#p28ce59b66d)" style="fill: none; stroke-dasharray: 5.12,1.28,0.8,1.28; stroke-dashoffset: 0; stroke: #b0b0b0; stroke-width: 0.8"/>
     </g>
     <g id="line2d_2">
      <defs>
       <path id="mded0bd8090" d="M 0 0 
L 0 3.5 
" style="stroke: #a9a9a9; stroke-width: 0.8"/>
      </defs>
      <g>
       <use xlink:href="#mded0bd8090" x="159.334571" y="320.4" style="fill: #a9a9a9; stroke: #a9a9a9; stroke-width: 0.8"/>
      </g>
     </g>
     <g id="text_1">
      <!-- 2021-09 -->
      <g style="fill: #a9a9a9" transform="translate(138.443165 334.998438) scale(0.1 -0.1)">
       <defs>
        <path id="DejaVuSans-32" d="M 1228 531 
L 3431 531 
L 3431 0 
L 469 0 
L 469 531 
Q 828 903 1448 1529 
Q 2069 2156 2228 2338 
Q 2531 2678 2651 2914 
Q 2772 3150 2772 3378 
Q 2772 3750 2511 3984 
Q 2250 4219 1831 4219 
Q 1534 4219 1204 4116 
Q 875 4013 500 3803 
L 500 4441 
Q 881 4594 1212 4672 
Q 1544 4750 1819 4750 
Q 2544 4750 2975 4387 
Q 3406 4025 3406 3419 
Q 3406 3131 3298 2873 
Q 3191 2616 2906 2266 
Q 2828 2175 2409 1742 
Q 1991 1309 1228 531 
z
" transform="scale(0.015625)"/>
        <path id="DejaVuSans-30" d="M 2034 4250 
Q 1547 4250 1301 3770 
Q 1056 3291 1056 2328 
Q 1056 1369 1301 889 
Q 1547 409 2034 409 
Q 2525 409 2770 889 
Q 3016 1369 3016 2328 
Q 3016 3291 2770 3770 
Q 2525 4250 2034 4250 
z
M 2034 4750 
Q 2819 4750 3233 4129 
Q 3647 3509 3647 2328 
Q 3647 1150 3233 529 
Q 2819 -91 2034 -91 
Q 1250 -91 836 529 
Q 422 1150 422 2328 
Q 422 3509 836 4129 
Q 1250 4750 2034 4750 
z
" transform="scale(0.015625)"/>
        <path id="DejaVuSans-31" d="M 794 531 
L 1825 531 
L 1825 4091 
L 703 3866 
L 703 4441 
L 1819 4666 
L 2450 4666 
L 2450 531 
L 3481 531 
L 3481 0 
L 794 0 
L 794 531 
z
" transform="scale(0.015625)"/>
        <path id="DejaVuSans-2d" d="M 313 2009 
L 1997 2009 
L 1997 1497 
L 313 1497 
L 313 2009 
z
" transform="scale(0.015625)"/>
        <path id="DejaVuSans-39" d="M 703 97 
L 703 672 
Q 941 559 1184 500 
Q 1428 441 1663 441 
Q 2288 441 2617 861 
Q 2947 1281 2994 2138 
Q 2813 1869 2534 1725 
Q 2256 1581 1919 1581 
Q 1219 1581 811 2004 
Q 403 2428 403 3163 
Q 403 3881 828 4315 
Q 1253 4750 1959 4750 
Q 2769 4750 3195 4129 
Q 3622 3509 3622 2328 
Q 3622 1225 3098 567 
Q 2575 -91 1691 -91 
Q 1453 -91 1209 -44 
Q 966 3 703 97 
z
M 1959 2075 
Q 2384 2075 2632 2365 
Q 2881 2656 2881 3163 
Q 2881 3666 2632 3958 
Q 2384 4250 1959 4250 
Q 1534 4250 1286 3958 
Q 1038 3666 1038 3163 
Q 1038 2656 1286 2365 
Q 1534 2075 1959 2075 
z
" transform="scale(0.015625)"/>
       </defs>
       <use xlink:href="#DejaVuSans-32"/>
       <use xlink:href="#DejaVuSans-30" x="63.623047"/>
       <use xlink:href="#DejaVuSans-32" x="127.246094"/>
       <use xlink:href="#DejaVuSans-31" x="190.869141"/>
       <use xlink:href="#DejaVuSans-2d" x="254.492188"/>
       <use xlink:href="#DejaVuSans-30" x="290.576172"/>
       <use xlink:href="#DejaVuSans-39" x="354.199219"/>
      </g>
     </g>
    </g>
    <g id="xtick_2">
     <g id="line2d_3">
      <path d="M 224.708451 320.4 
L 224.708451 43.2 
" clip-path="url(#p28ce59b66d)" style="fill: none; stroke-dasharray: 5.12,1.28,0.8,1.28; stroke-dashoffset: 0; stroke: #b0b0b0; stroke-width: 0.8"/>
     </g>
     <g id="line2d_4">
      <g>
       <use xlink:href="#mded0bd8090" x="224.708451" y="320.4" style="fill: #a9a9a9; stroke: #a9a9a9; stroke-width: 0.8"/>
      </g>
     </g>
     <g id="text_2">
      <!-- 2022-01 -->
      <g style="fill: #a9a9a9" transform="translate(203.817044 334.998438) scale(0.1 -0.1)">
       <use xlink:href="#DejaVuSans-32"/>
       <use xlink:href="#DejaVuSans-30" x="63.623047"/>
       <use xlink:href="#DejaVuSans-32" x="127.246094"/>
       <use xlink:href="#DejaVuSans-32" x="190.869141"/>
       <use xlink:href="#DejaVuSans-2d" x="254.492188"/>
       <use xlink:href="#DejaVuSans-30" x="290.576172"/>
       <use xlink:href="#DejaVuSans-31" x="354.199219"/>
      </g>
     </g>
    </g>
    <g id="xtick_3">
     <g id="line2d_5">
      <path d="M 289.010627 320.4 
L 289.010627 43.2 
" clip-path="url(#p28ce59b66d)" style="fill: none; stroke-dasharray: 5.12,1.28,0.8,1.28; stroke-dashoffset: 0; stroke: #b0b0b0; stroke-width: 0.8"/>
     </g>
     <g id="line2d_6">
      <g>
       <use xlink:href="#mded0bd8090" x="289.010627" y="320.4" style="fill: #a9a9a9; stroke: #a9a9a9; stroke-width: 0.8"/>
      </g>
     </g>
     <g id="text_3">
      <!-- 2022-05 -->
      <g style="fill: #a9a9a9" transform="translate(268.119221 334.998438) scale(0.1 -0.1)">
       <defs>
        <path id="DejaVuSans-35" d="M 691 4666 
L 3169 4666 
L 3169 4134 
L 1269 4134 
L 1269 2991 
Q 1406 3038 1543 3061 
Q 1681 3084 1819 3084 
Q 2600 3084 3056 2656 
Q 3513 2228 3513 1497 
Q 3513 744 3044 326 
Q 2575 -91 1722 -91 
Q 1428 -91 1123 -41 
Q 819 9 494 109 
L 494 744 
Q 775 591 1075 516 
Q 1375 441 1709 441 
Q 2250 441 2565 725 
Q 2881 1009 2881 1497 
Q 2881 1984 2565 2268 
Q 2250 2553 1709 2553 
Q 1456 2553 1204 2497 
Q 953 2441 691 2322 
L 691 4666 
z
" transform="scale(0.015625)"/>
       </defs>
       <use xlink:href="#DejaVuSans-32"/>
       <use xlink:href="#DejaVuSans-30" x="63.623047"/>
       <use xlink:href="#DejaVuSans-32" x="127.246094"/>
       <use xlink:href="#DejaVuSans-32" x="190.869141"/>
       <use xlink:href="#DejaVuSans-2d" x="254.492188"/>
       <use xlink:href="#DejaVuSans-30" x="290.576172"/>
       <use xlink:href="#DejaVuSans-35" x="354.199219"/>
      </g>
     </g>
    </g>
    <g id="xtick_4">
     <g id="line2d_7">
      <path d="M 354.920359 320.4 
L 354.920359 43.2 
" clip-path="url(#p28ce59b66d)" style="fill: none; stroke-dasharray: 5.12,1.28,0.8,1.28; stroke-dashoffset: 0; stroke: #b0b0b0; stroke-width: 0.8"/>
     </g>
     <g id="line2d_8">
      <g>
       <use xlink:href="#mded0bd8090" x="354.920359" y="320.4" style="fill: #a9a9a9; stroke: #a9a9a9; stroke-width: 0.8"/>
      </g>
     </g>
     <g id="text_4">
      <!-- 2022-09 -->
      <g style="fill: #a9a9a9" transform="translate(334.028952 334.998438) scale(0.1 -0.1)">
       <use xlink:href="#DejaVuSans-32"/>
       <use xlink:href="#DejaVuSans-30" x="63.623047"/>
       <use xlink:href="#DejaVuSans-32" x="127.246094"/>
       <use xlink:href="#DejaVuSans-32" x="190.869141"/>
       <use xlink:href="#DejaVuSans-2d" x="254.492188"/>
       <use xlink:href="#DejaVuSans-30" x="290.576172"/>
       <use xlink:href="#DejaVuSans-39" x="354.199219"/>
      </g>
     </g>
    </g>
    <g id="xtick_5">
     <g id="line2d_9">
      <path d="M 420.294238 320.4 
L 420.294238 43.2 
" clip-path="url(#p28ce59b66d)" style="fill: none; stroke-dasharray: 5.12,1.28,0.8,1.28; stroke-dashoffset: 0; stroke: #b0b0b0; stroke-width: 0.8"/>
     </g>
     <g id="line2d_10">
      <g>
       <use xlink:href="#mded0bd8090" x="420.294238" y="320.4" style="fill: #a9a9a9; stroke: #a9a9a9; stroke-width: 0.8"/>
      </g>
     </g>
     <g id="text_5">
      <!-- 2023-01 -->
      <g style="fill: #a9a9a9" transform="translate(399.402832 334.998438) scale(0.1 -0.1)">
       <defs>
        <path id="DejaVuSans-33" d="M 2597 2516 
Q 3050 2419 3304 2112 
Q 3559 1806 3559 1356 
Q 3559 666 3084 287 
Q 2609 -91 1734 -91 
Q 1441 -91 1130 -33 
Q 819 25 488 141 
L 488 750 
Q 750 597 1062 519 
Q 1375 441 1716 441 
Q 2309 441 2620 675 
Q 2931 909 2931 1356 
Q 2931 1769 2642 2001 
Q 2353 2234 1838 2234 
L 1294 2234 
L 1294 2753 
L 1863 2753 
Q 2328 2753 2575 2939 
Q 2822 3125 2822 3475 
Q 2822 3834 2567 4026 
Q 2313 4219 1838 4219 
Q 1578 4219 1281 4162 
Q 984 4106 628 3988 
L 628 4550 
Q 988 4650 1302 4700 
Q 1616 4750 1894 4750 
Q 2613 4750 3031 4423 
Q 3450 4097 3450 3541 
Q 3450 3153 3228 2886 
Q 3006 2619 2597 2516 
z
" transform="scale(0.015625)"/>
       </defs>
       <use xlink:href="#DejaVuSans-32"/>
       <use xlink:href="#DejaVuSans-30" x="63.623047"/>
       <use xlink:href="#DejaVuSans-32" x="127.246094"/>
       <use xlink:href="#DejaVuSans-33" x="190.869141"/>
       <use xlink:href="#DejaVuSans-2d" x="254.492188"/>
       <use xlink:href="#DejaVuSans-30" x="290.576172"/>
       <use xlink:href="#DejaVuSans-31" x="354.199219"/>
      </g>
     </g>
    </g>
    <g id="xtick_6">
     <g id="line2d_11">
      <path d="M 484.596415 320.4 
L 484.596415 43.2 
" clip-path="url(#p28ce59b66d)" style="fill: none; stroke-dasharray: 5.12,1.28,0.8,1.28; stroke-dashoffset: 0; stroke: #b0b0b0; stroke-width: 0.8"/>
     </g>
     <g id="line2d_12">
      <g>
       <use xlink:href="#mded0bd8090" x="484.596415" y="320.4" style="fill: #a9a9a9; stroke: #a9a9a9; stroke-width: 0.8"/>
      </g>
     </g>
     <g id="text_6">
      <!-- 2023-05 -->
      <g style="fill: #a9a9a9" transform="translate(463.705009 334.998438) scale(0.1 -0.1)">
       <use xlink:href="#DejaVuSans-32"/>
       <use xlink:href="#DejaVuSans-30" x="63.623047"/>
       <use xlink:href="#DejaVuSans-32" x="127.246094"/>
       <use xlink:href="#DejaVuSans-33" x="190.869141"/>
       <use xlink:href="#DejaVuSans-2d" x="254.492188"/>
       <use xlink:href="#DejaVuSans-30" x="290.576172"/>
       <use xlink:href="#DejaVuSans-35" x="354.199219"/>
      </g>
     </g>
    </g>
    <g id="xtick_7">
     <g id="line2d_13">
      <path d="M 550.506146 320.4 
L 550.506146 43.2 
" clip-path="url(#p28ce59b66d)" style="fill: none; stroke-dasharray: 5.12,1.28,0.8,1.28; stroke-dashoffset: 0; stroke: #b0b0b0; stroke-width: 0.8"/>
     </g>
     <g id="line2d_14">
      <g>
       <use xlink:href="#mded0bd8090" x="550.506146" y="320.4" style="fill: #a9a9a9; stroke: #a9a9a9; stroke-width: 0.8"/>
      </g>
     </g>
     <g id="text_7">
      <!-- 2023-09 -->
      <g style="fill: #a9a9a9" transform="translate(529.61474 334.998438) scale(0.1 -0.1)">
       <use xlink:href="#DejaVuSans-32"/>
       <use xlink:href="#DejaVuSans-30" x="63.623047"/>
       <use xlink:href="#DejaVuSans-32" x="127.246094"/>
       <use xlink:href="#DejaVuSans-33" x="190.869141"/>
       <use xlink:href="#DejaVuSans-2d" x="254.492188"/>
       <use xlink:href="#DejaVuSans-30" x="290.576172"/>
       <use xlink:href="#DejaVuSans-39" x="354.199219"/>
      </g>
     </g>
    </g>
    <g id="xtick_8">
     <g id="line2d_15">
      <path d="M 615.880026 320.4 
L 615.880026 43.2 
" clip-path="url(#p28ce59b66d)" style="fill: none; stroke-dasharray: 5.12,1.28,0.8,1.28; stroke-dashoffset: 0; stroke: #b0b0b0; stroke-width: 0.8"/>
     </g>
     <g id="line2d_16">
      <g>
       <use xlink:href="#mded0bd8090" x="615.880026" y="320.4" style="fill: #a9a9a9; stroke: #a9a9a9; stroke-width: 0.8"/>
      </g>
     </g>
     <g id="text_8">
      <!-- 2024-01 -->
      <g style="fill: #a9a9a9" transform="translate(594.988619 334.998438) scale(0.1 -0.1)">
       <defs>
        <path id="DejaVuSans-34" d="M 2419 4116 
L 825 1625 
L 2419 1625 
L 2419 4116 
z
M 2253 4666 
L 3047 4666 
L 3047 1625 
L 3713 1625 
L 3713 1100 
L 3047 1100 
L 3047 0 
L 2419 0 
L 2419 1100 
L 313 1100 
L 313 1709 
L 2253 4666 
z
" transform="scale(0.015625)"/>
       </defs>
       <use xlink:href="#DejaVuSans-32"/>
       <use xlink:href="#DejaVuSans-30" x="63.623047"/>
       <use xlink:href="#DejaVuSans-32" x="127.246094"/>
       <use xlink:href="#DejaVuSans-34" x="190.869141"/>
       <use xlink:href="#DejaVuSans-2d" x="254.492188"/>
       <use xlink:href="#DejaVuSans-30" x="290.576172"/>
       <use xlink:href="#DejaVuSans-31" x="354.199219"/>
      </g>
     </g>
    </g>
    <g id="xtick_9">
     <g id="line2d_17">
      <path d="M 680.718054 320.4 
L 680.718054 43.2 
" clip-path="url(#p28ce59b66d)" style="fill: none; stroke-dasharray: 5.12,1.28,0.8,1.28; stroke-dashoffset: 0; stroke: #b0b0b0; stroke-width: 0.8"/>
     </g>
     <g id="line2d_18">
      <g>
       <use xlink:href="#mded0bd8090" x="680.718054" y="320.4" style="fill: #a9a9a9; stroke: #a9a9a9; stroke-width: 0.8"/>
      </g>
     </g>
     <g id="text_9">
      <!-- 2024-05 -->
      <g style="fill: #a9a9a9" transform="translate(659.826648 334.998438) scale(0.1 -0.1)">
       <use xlink:href="#DejaVuSans-32"/>
       <use xlink:href="#DejaVuSans-30" x="63.623047"/>
       <use xlink:href="#DejaVuSans-32" x="127.246094"/>
       <use xlink:href="#DejaVuSans-34" x="190.869141"/>
       <use xlink:href="#DejaVuSans-2d" x="254.492188"/>
       <use xlink:href="#DejaVuSans-30" x="290.576172"/>
       <use xlink:href="#DejaVuSans-35" x="354.199219"/>
      </g>
     </g>
    </g>
    <g id="xtick_10">
     <g id="line2d_19">
      <path d="M 746.627785 320.4 
L 746.627785 43.2 
" clip-path="url(#p28ce59b66d)" style="fill: none; stroke-dasharray: 5.12,1.28,0.8,1.28; stroke-dashoffset: 0; stroke: #b0b0b0; stroke-width: 0.8"/>
     </g>
     <g id="line2d_20">
      <g>
       <use xlink:href="#mded0bd8090" x="746.627785" y="320.4" style="fill: #a9a9a9; stroke: #a9a9a9; stroke-width: 0.8"/>
      </g>
     </g>
     <g id="text_10">
      <!-- 2024-09 -->
      <g style="fill: #a9a9a9" transform="translate(725.736379 334.998438) scale(0.1 -0.1)">
       <use xlink:href="#DejaVuSans-32"/>
       <use xlink:href="#DejaVuSans-30" x="63.623047"/>
       <use xlink:href="#DejaVuSans-32" x="127.246094"/>
       <use xlink:href="#DejaVuSans-34" x="190.869141"/>
       <use xlink:href="#DejaVuSans-2d" x="254.492188"/>
       <use xlink:href="#DejaVuSans-30" x="290.576172"/>
       <use xlink:href="#DejaVuSans-39" x="354.199219"/>
      </g>
     </g>
    </g>
   </g>
   <g id="matplotlib.axis_2">
    <g id="ytick_1">
     <g id="line2d_21">
      <path d="M 108 307.838188 
L 777.6 307.838188 
" clip-path="url(#p28ce59b66d)" style="fill: none; stroke-dasharray: 5.12,1.28,0.8,1.28; stroke-dashoffset: 0; stroke: #b0b0b0; stroke-width: 0.8"/>
     </g>
     <g id="line2d_22">
      <defs>
       <path id="meb444dc26a" d="M 0 0 
L -3.5 0 
" style="stroke: #a9a9a9; stroke-width: 0.8"/>
      </defs>
      <g>
       <use xlink:href="#meb444dc26a" x="108" y="307.838188" style="fill: #a9a9a9; stroke: #a9a9a9; stroke-width: 0.8"/>
      </g>
     </g>
     <g id="text_11">
      <!-- 0 -->
      <g style="fill: #a9a9a9" transform="translate(94.6375 311.637406) scale(0.1 -0.1)">
       <use xlink:href="#DejaVuSans-30"/>
      </g>
     </g>
    </g>
    <g id="ytick_2">
     <g id="line2d_23">
      <path d="M 108 277.288104 
L 777.6 277.288104 
" clip-path="url(#p28ce59b66d)" style="fill: none; stroke-dasharray: 5.12,1.28,0.8,1.28; stroke-dashoffset: 0; stroke: #b0b0b0; stroke-width: 0.8"/>
     </g>
     <g id="line2d_24">
      <g>
       <use xlink:href="#meb444dc26a" x="108" y="277.288104" style="fill: #a9a9a9; stroke: #a9a9a9; stroke-width: 0.8"/>
      </g>
     </g>
     <g id="text_12">
      <!-- 800 -->
      <g style="fill: #a9a9a9" transform="translate(81.9125 281.087323) scale(0.1 -0.1)">
       <defs>
        <path id="DejaVuSans-38" d="M 2034 2216 
Q 1584 2216 1326 1975 
Q 1069 1734 1069 1313 
Q 1069 891 1326 650 
Q 1584 409 2034 409 
Q 2484 409 2743 651 
Q 3003 894 3003 1313 
Q 3003 1734 2745 1975 
Q 2488 2216 2034 2216 
z
M 1403 2484 
Q 997 2584 770 2862 
Q 544 3141 544 3541 
Q 544 4100 942 4425 
Q 1341 4750 2034 4750 
Q 2731 4750 3128 4425 
Q 3525 4100 3525 3541 
Q 3525 3141 3298 2862 
Q 3072 2584 2669 2484 
Q 3125 2378 3379 2068 
Q 3634 1759 3634 1313 
Q 3634 634 3220 271 
Q 2806 -91 2034 -91 
Q 1263 -91 848 271 
Q 434 634 434 1313 
Q 434 1759 690 2068 
Q 947 2378 1403 2484 
z
M 1172 3481 
Q 1172 3119 1398 2916 
Q 1625 2713 2034 2713 
Q 2441 2713 2670 2916 
Q 2900 3119 2900 3481 
Q 2900 3844 2670 4047 
Q 2441 4250 2034 4250 
Q 1625 4250 1398 4047 
Q 1172 3844 1172 3481 
z
" transform="scale(0.015625)"/>
       </defs>
       <use xlink:href="#DejaVuSans-38"/>
       <use xlink:href="#DejaVuSans-30" x="63.623047"/>
       <use xlink:href="#DejaVuSans-30" x="127.246094"/>
      </g>
     </g>
    </g>
    <g id="ytick_3">
     <g id="line2d_25">
      <path d="M 108 246.738021 
L 777.6 246.738021 
" clip-path="url(#p28ce59b66d)" style="fill: none; stroke-dasharray: 5.12,1.28,0.8,1.28; stroke-dashoffset: 0; stroke: #b0b0b0; stroke-width: 0.8"/>
     </g>
     <g id="line2d_26">
      <g>
       <use xlink:href="#meb444dc26a" x="108" y="246.738021" style="fill: #a9a9a9; stroke: #a9a9a9; stroke-width: 0.8"/>
      </g>
     </g>
     <g id="text_13">
      <!-- 1600 -->
      <g style="fill: #a9a9a9" transform="translate(75.55 250.53724) scale(0.1 -0.1)">
       <defs>
        <path id="DejaVuSans-36" d="M 2113 2584 
Q 1688 2584 1439 2293 
Q 1191 2003 1191 1497 
Q 1191 994 1439 701 
Q 1688 409 2113 409 
Q 2538 409 2786 701 
Q 3034 994 3034 1497 
Q 3034 2003 2786 2293 
Q 2538 2584 2113 2584 
z
M 3366 4563 
L 3366 3988 
Q 3128 4100 2886 4159 
Q 2644 4219 2406 4219 
Q 1781 4219 1451 3797 
Q 1122 3375 1075 2522 
Q 1259 2794 1537 2939 
Q 1816 3084 2150 3084 
Q 2853 3084 3261 2657 
Q 3669 2231 3669 1497 
Q 3669 778 3244 343 
Q 2819 -91 2113 -91 
Q 1303 -91 875 529 
Q 447 1150 447 2328 
Q 447 3434 972 4092 
Q 1497 4750 2381 4750 
Q 2619 4750 2861 4703 
Q 3103 4656 3366 4563 
z
" transform="scale(0.015625)"/>
       </defs>
       <use xlink:href="#DejaVuSans-31"/>
       <use xlink:href="#DejaVuSans-36" x="63.623047"/>
       <use xlink:href="#DejaVuSans-30" x="127.246094"/>
       <use xlink:href="#DejaVuSans-30" x="190.869141"/>
      </g>
     </g>
    </g>
    <g id="ytick_4">
     <g id="line2d_27">
      <path d="M 108 216.187938 
L 777.6 216.187938 
" clip-path="url(#p28ce59b66d)" style="fill: none; stroke-dasharray: 5.12,1.28,0.8,1.28; stroke-dashoffset: 0; stroke: #b0b0b0; stroke-width: 0.8"/>
     </g>
     <g id="line2d_28">
      <g>
       <use xlink:href="#meb444dc26a" x="108" y="216.187938" style="fill: #a9a9a9; stroke: #a9a9a9; stroke-width: 0.8"/>
      </g>
     </g>
     <g id="text_14">
      <!-- 2400 -->
      <g style="fill: #a9a9a9" transform="translate(75.55 219.987156) scale(0.1 -0.1)">
       <use xlink:href="#DejaVuSans-32"/>
       <use xlink:href="#DejaVuSans-34" x="63.623047"/>
       <use xlink:href="#DejaVuSans-30" x="127.246094"/>
       <use xlink:href="#DejaVuSans-30" x="190.869141"/>
      </g>
     </g>
    </g>
    <g id="ytick_5">
     <g id="line2d_29">
      <path d="M 108 185.637854 
L 777.6 185.637854 
" clip-path="url(#p28ce59b66d)" style="fill: none; stroke-dasharray: 5.12,1.28,0.8,1.28; stroke-dashoffset: 0; stroke: #b0b0b0; stroke-width: 0.8"/>
     </g>
     <g id="line2d_30">
      <g>
       <use xlink:href="#meb444dc26a" x="108" y="185.637854" style="fill: #a9a9a9; stroke: #a9a9a9; stroke-width: 0.8"/>
      </g>
     </g>
     <g id="text_15">
      <!-- 3200 -->
      <g style="fill: #a9a9a9" transform="translate(75.55 189.437073) scale(0.1 -0.1)">
       <use xlink:href="#DejaVuSans-33"/>
       <use xlink:href="#DejaVuSans-32" x="63.623047"/>
       <use xlink:href="#DejaVuSans-30" x="127.246094"/>
       <use xlink:href="#DejaVuSans-30" x="190.869141"/>
      </g>
     </g>
    </g>
    <g id="ytick_6">
     <g id="line2d_31">
      <path d="M 108 155.087771 
L 777.6 155.087771 
" clip-path="url(#p28ce59b66d)" style="fill: none; stroke-dasharray: 5.12,1.28,0.8,1.28; stroke-dashoffset: 0; stroke: #b0b0b0; stroke-width: 0.8"/>
     </g>
     <g id="line2d_32">
      <g>
       <use xlink:href="#meb444dc26a" x="108" y="155.087771" style="fill: #a9a9a9; stroke: #a9a9a9; stroke-width: 0.8"/>
      </g>
     </g>
     <g id="text_16">
      <!-- 4000 -->
      <g style="fill: #a9a9a9" transform="translate(75.55 158.88699) scale(0.1 -0.1)">
       <use xlink:href="#DejaVuSans-34"/>
       <use xlink:href="#DejaVuSans-30" x="63.623047"/>
       <use xlink:href="#DejaVuSans-30" x="127.246094"/>
       <use xlink:href="#DejaVuSans-30" x="190.869141"/>
      </g>
     </g>
    </g>
    <g id="ytick_7">
     <g id="line2d_33">
      <path d="M 108 124.537688 
L 777.6 124.537688 
" clip-path="url(#p28ce59b66d)" style="fill: none; stroke-dasharray: 5.12,1.28,0.8,1.28; stroke-dashoffset: 0; stroke: #b0b0b0; stroke-width: 0.8"/>
     </g>
     <g id="line2d_34">
      <g>
       <use xlink:href="#meb444dc26a" x="108" y="124.537688" style="fill: #a9a9a9; stroke: #a9a9a9; stroke-width: 0.8"/>
      </g>
     </g>
     <g id="text_17">
      <!-- 4800 -->
      <g style="fill: #a9a9a9" transform="translate(75.55 128.336906) scale(0.1 -0.1)">
       <use xlink:href="#DejaVuSans-34"/>
       <use xlink:href="#DejaVuSans-38" x="63.623047"/>
       <use xlink:href="#DejaVuSans-30" x="127.246094"/>
       <use xlink:href="#DejaVuSans-30" x="190.869141"/>
      </g>
     </g>
    </g>
    <g id="ytick_8">
     <g id="line2d_35">
      <path d="M 108 93.987604 
L 777.6 93.987604 
" clip-path="url(#p28ce59b66d)" style="fill: none; stroke-dasharray: 5.12,1.28,0.8,1.28; stroke-dashoffset: 0; stroke: #b0b0b0; stroke-width: 0.8"/>
     </g>
     <g id="line2d_36">
      <g>
       <use xlink:href="#meb444dc26a" x="108" y="93.987604" style="fill: #a9a9a9; stroke: #a9a9a9; stroke-width: 0.8"/>
      </g>
     </g>
     <g id="text_18">
      <!-- 5600 -->
      <g style="fill: #a9a9a9" transform="translate(75.55 97.786823) scale(0.1 -0.1)">
       <use xlink:href="#DejaVuSans-35"/>
       <use xlink:href="#DejaVuSans-36" x="63.623047"/>
       <use xlink:href="#DejaVuSans-30" x="127.246094"/>
       <use xlink:href="#DejaVuSans-30" x="190.869141"/>
      </g>
     </g>
    </g>
    <g id="ytick_9">
     <g id="line2d_37">
      <path d="M 108 63.437521 
L 777.6 63.437521 
" clip-path="url(#p28ce59b66d)" style="fill: none; stroke-dasharray: 5.12,1.28,0.8,1.28; stroke-dashoffset: 0; stroke: #b0b0b0; stroke-width: 0.8"/>
     </g>
     <g id="line2d_38">
      <g>
       <use xlink:href="#meb444dc26a" x="108" y="63.437521" style="fill: #a9a9a9; stroke: #a9a9a9; stroke-width: 0.8"/>
      </g>
     </g>
     <g id="text_19">
      <!-- 6400 -->
      <g style="fill: #a9a9a9" transform="translate(75.55 67.23674) scale(0.1 -0.1)">
       <use xlink:href="#DejaVuSans-36"/>
       <use xlink:href="#DejaVuSans-34" x="63.623047"/>
       <use xlink:href="#DejaVuSans-30" x="127.246094"/>
       <use xlink:href="#DejaVuSans-30" x="190.869141"/>
      </g>
     </g>
    </g>
   </g>
   <g id="line2d_39">
    <path d="M 138.436364 307.723625 
L 141.651472 307.456312 
L 142.187324 307.227186 
L 143.794878 307.074436 
L 147.009987 306.425246 
L 150.225096 306.157933 
L 151.296799 305.737869 
L 151.83265 305.050492 
L 152.368502 304.668616 
L 152.904353 303.484801 
L 153.440205 303.408426 
L 153.976056 302.988362 
L 155.047759 302.453735 
L 157.191165 300.773481 
L 159.334571 299.742416 
L 160.942125 299.016851 
L 161.477977 298.176724 
L 162.54968 297.412972 
L 163.085531 297.183846 
L 168.444046 296.420094 
L 168.979898 296.152781 
L 172.730858 295.84728 
L 174.874264 295.350841 
L 179.161076 294.778027 
L 179.696927 294.472526 
L 180.232778 294.396151 
L 181.304481 294.052462 
L 185.055442 293.441461 
L 186.127145 293.13596 
L 187.734699 292.98321 
L 188.806402 292.868647 
L 191.485659 292.18127 
L 192.557362 292.104895 
L 193.629065 291.952144 
L 194.700768 291.723019 
L 195.23662 291.570268 
L 195.772471 290.844704 
L 197.380026 290.233702 
L 198.98758 289.813638 
L 199.523431 289.546325 
L 200.059283 289.508138 
L 202.73854 288.744386 
L 203.810243 288.66801 
L 204.346095 288.591635 
L 205.953649 288.095196 
L 208.097055 287.56057 
L 208.632907 287.331444 
L 209.168758 287.255069 
L 209.704609 286.987756 
L 215.063124 286.185816 
L 217.742382 285.422064 
L 218.278233 285.078376 
L 220.95749 284.200061 
L 222.029193 283.474496 
L 223.636748 283.168995 
L 233.817926 280.22855 
L 234.889629 279.808486 
L 235.961332 279.732111 
L 237.568886 279.27386 
L 238.104738 279.27386 
L 238.640589 279.044734 
L 239.712292 278.930171 
L 240.248143 278.739233 
L 241.319846 278.701046 
L 243.463252 278.433732 
L 244.534955 277.899106 
L 250.965173 275.035036 
L 251.501024 274.462222 
L 252.572727 272.858342 
L 253.108579 272.705592 
L 253.64443 272.705592 
L 254.716133 271.903652 
L 256.323688 271.369026 
L 256.859539 270.872587 
L 257.931242 270.452523 
L 259.002945 269.956084 
L 260.074648 268.42858 
L 260.610499 268.084892 
L 261.146351 267.168389 
L 261.682202 266.595575 
L 264.897311 264.915321 
L 265.969014 264.075193 
L 266.504866 263.731505 
L 267.040717 262.929565 
L 267.576569 261.745749 
L 268.11242 260.94381 
L 268.648271 260.523746 
L 269.184123 260.29462 
L 270.791677 258.881679 
L 272.935083 257.125049 
L 273.470935 256.399485 
L 274.542638 255.444795 
L 276.686044 254.031853 
L 277.221895 253.573602 
L 277.757746 253.459039 
L 278.829449 252.886225 
L 280.972855 251.778785 
L 282.044558 250.747719 
L 282.58041 250.09853 
L 283.652113 249.334778 
L 284.723816 248.914714 
L 285.795519 248.18915 
L 286.33137 247.883649 
L 286.867222 247.807274 
L 290.618182 245.47783 
L 292.761588 244.332202 
L 293.297439 243.835763 
L 301.871063 240.85713 
L 302.942766 239.90244 
L 304.014469 239.406001 
L 305.086172 238.833187 
L 305.622023 238.527686 
L 306.693726 238.222185 
L 307.229577 237.878497 
L 307.765429 237.725746 
L 309.372983 236.694681 
L 312.052241 236.083679 
L 313.659795 235.167177 
L 314.195647 235.090802 
L 315.26735 234.823488 
L 315.803201 234.670738 
L 317.410755 233.448735 
L 319.01831 233.066859 
L 319.554161 232.875921 
L 320.090013 232.455857 
L 323.305122 231.386604 
L 323.840973 231.348416 
L 324.912676 230.928353 
L 329.199488 229.400849 
L 330.271191 229.248098 
L 331.878745 228.713472 
L 334.558003 227.453281 
L 336.701408 226.307653 
L 340.98822 224.58921 
L 341.524072 224.512835 
L 342.595775 223.863646 
L 343.131626 223.787271 
L 345.275032 222.908956 
L 347.418438 222.603455 
L 348.490141 222.068829 
L 349.025992 221.610577 
L 349.561844 220.655887 
L 351.169398 220.350386 
L 353.312804 219.281134 
L 353.848656 219.166571 
L 358.135467 217.142628 
L 359.743022 216.798939 
L 360.814725 216.264313 
L 361.350576 216.035187 
L 361.886428 215.958812 
L 364.029834 215.004122 
L 365.637388 214.011244 
L 366.173239 213.934869 
L 366.709091 213.743931 
L 367.244942 213.705743 
L 369.9242 213.056554 
L 370.460051 212.63649 
L 370.995903 212.521928 
L 372.603457 211.910926 
L 373.139309 211.758175 
L 373.67516 211.414487 
L 374.211012 211.261737 
L 374.746863 210.879861 
L 375.282714 210.688923 
L 376.354417 210.116109 
L 379.033675 209.237794 
L 380.641229 207.977603 
L 381.177081 207.86304 
L 382.248784 207.022913 
L 382.784635 206.946537 
L 383.320487 206.10641 
L 383.856338 205.877284 
L 384.39219 205.457221 
L 384.928041 205.380846 
L 385.999744 204.731656 
L 386.535595 204.617093 
L 387.071447 204.387968 
L 387.607298 203.967904 
L 388.14315 203.776966 
L 389.750704 202.669526 
L 391.89411 201.562085 
L 392.429962 201.48571 
L 394.037516 200.68377 
L 394.573367 199.805455 
L 395.109219 199.347204 
L 395.64507 199.041703 
L 396.180922 198.92714 
L 397.252625 198.239764 
L 397.788476 198.125201 
L 398.860179 197.590574 
L 400.467734 196.903197 
L 401.539437 196.139445 
L 403.146991 194.688316 
L 404.218694 194.077315 
L 404.754545 193.504501 
L 406.897951 192.053372 
L 407.433803 191.44237 
L 407.969654 191.022306 
L 409.041357 190.64043 
L 410.11306 189.914866 
L 411.720615 189.112926 
L 412.256466 189.036551 
L 413.86402 188.158236 
L 414.935723 187.509047 
L 420.294238 185.599667 
L 420.83009 185.179603 
L 422.973496 184.377663 
L 423.509347 184.224913 
L 424.045198 183.804849 
L 426.724456 182.35372 
L 427.796159 180.253402 
L 428.867862 179.031399 
L 429.939565 178.382209 
L 431.547119 177.73302 
L 432.082971 177.656645 
L 432.618822 177.351144 
L 435.298079 176.511017 
L 435.833931 176.281891 
L 436.905634 175.556327 
L 438.513188 174.86895 
L 439.584891 174.296136 
L 440.120743 173.91426 
L 440.656594 173.685134 
L 441.192446 173.303258 
L 441.728297 172.730444 
L 442.8 172.15763 
L 445.479257 170.744689 
L 448.694366 169.178997 
L 449.230218 169.064434 
L 450.837772 168.49162 
L 451.909475 168.071556 
L 452.445327 167.68968 
L 453.517029 167.384179 
L 454.588732 166.964116 
L 455.124584 166.544052 
L 456.196287 166.200364 
L 459.411396 164.558297 
L 460.483099 163.718169 
L 461.554802 163.336293 
L 462.090653 162.878042 
L 462.626504 162.801667 
L 463.698207 161.999727 
L 464.76991 161.465101 
L 465.305762 161.235975 
L 465.841613 160.701349 
L 469.592574 159.25022 
L 470.664277 158.791968 
L 472.271831 158.29553 
L 473.343534 158.142779 
L 473.879385 157.913654 
L 474.415237 157.837278 
L 475.48694 157.379027 
L 476.022791 157.34084 
L 478.166197 156.5389 
L 479.773752 155.431459 
L 482.453009 154.171268 
L 485.132266 152.720139 
L 485.668118 152.605577 
L 487.275672 151.689074 
L 488.883227 151.154448 
L 489.95493 150.810759 
L 492.098335 150.123382 
L 493.170038 149.779694 
L 494.777593 149.512381 
L 496.920999 148.825004 
L 497.45685 148.595878 
L 497.992702 148.519503 
L 498.528553 148.25219 
L 499.600256 148.061252 
L 501.20781 147.488438 
L 502.279513 147.373875 
L 503.887068 147.030186 
L 504.958771 146.839248 
L 506.030474 146.64831 
L 507.102177 146.419185 
L 507.638028 146.304622 
L 508.17388 146.075496 
L 508.709731 146.037309 
L 511.388988 145.158994 
L 511.92484 144.968056 
L 512.460691 144.968056 
L 518.355058 143.249614 
L 518.890909 142.9823 
L 519.426761 142.9823 
L 520.498464 142.600424 
L 521.034315 142.065798 
L 522.106018 141.645734 
L 525.321127 140.500106 
L 525.856978 140.156418 
L 526.39283 140.041855 
L 526.928681 139.736354 
L 528.000384 139.545416 
L 529.072087 139.125352 
L 529.607939 139.01079 
L 530.14379 138.667101 
L 530.679641 138.552538 
L 531.215493 138.094287 
L 532.823047 137.788786 
L 533.89475 137.292347 
L 534.430602 136.719533 
L 536.574008 136.223094 
L 540.324968 135.459342 
L 540.860819 135.459342 
L 541.396671 135.230217 
L 543.540077 134.848341 
L 544.075928 134.619215 
L 546.219334 134.237339 
L 547.291037 133.779088 
L 547.826889 133.7409 
L 556.936364 131.02958 
L 557.472215 130.800455 
L 558.008067 130.418579 
L 559.07977 130.113078 
L 560.151472 129.769389 
L 561.223175 129.349326 
L 562.83073 128.623761 
L 564.438284 128.509198 
L 566.58169 127.898197 
L 567.117542 127.554508 
L 568.189245 127.249007 
L 570.868502 126.065192 
L 571.404353 126.027004 
L 577.29872 124.003061 
L 579.442125 123.468435 
L 580.513828 123.048371 
L 581.04968 122.819245 
L 582.121383 122.59012 
L 582.657234 122.475557 
L 583.193086 122.055493 
L 583.728937 121.78818 
L 584.264789 121.138991 
L 584.80064 120.757115 
L 585.872343 120.451614 
L 586.408195 120.03155 
L 589.087452 118.92411 
L 589.623303 118.809547 
L 590.159155 118.465858 
L 591.230858 118.160358 
L 591.766709 117.816669 
L 594.445967 116.938354 
L 596.053521 116.021852 
L 596.589373 115.907289 
L 597.661076 115.296287 
L 598.196927 115.067162 
L 599.26863 114.417972 
L 600.876184 113.65422 
L 601.412036 113.272344 
L 602.483739 112.928656 
L 603.555442 112.317654 
L 604.091293 112.126716 
L 604.627145 111.74484 
L 611.593214 109.339021 
L 612.129065 109.224458 
L 612.664917 108.88077 
L 613.200768 108.804395 
L 614.272471 108.537081 
L 615.344174 108.307956 
L 619.095134 106.474951 
L 619.630986 106.398576 
L 621.23854 105.520261 
L 624.453649 104.26007 
L 626.597055 103.419942 
L 627.132907 103.267192 
L 627.668758 102.923504 
L 628.740461 102.770753 
L 629.276312 102.427065 
L 629.812164 102.388877 
L 630.883867 102.045189 
L 631.95557 101.510562 
L 632.491421 101.434187 
L 635.170679 100.364934 
L 635.70653 100.250371 
L 636.778233 99.906683 
L 637.849936 99.63937 
L 638.921639 99.372056 
L 640.529193 98.761055 
L 642.672599 97.577239 
L 643.744302 97.157175 
L 644.280154 96.813487 
L 645.351857 96.584361 
L 645.887708 96.27886 
L 646.42356 96.164298 
L 648.031114 95.32417 
L 649.102817 94.904107 
L 650.710371 94.178542 
L 652.317926 93.758479 
L 655.533035 92.498288 
L 657.140589 91.963661 
L 665.178361 88.526777 
L 665.714213 88.450402 
L 667.857618 87.610274 
L 669.465173 86.731959 
L 670.001024 86.617397 
L 671.072727 86.197333 
L 671.608579 86.197333 
L 672.680282 85.739082 
L 673.751985 84.784392 
L 674.287836 84.32614 
L 675.895391 83.562388 
L 676.431242 83.447825 
L 676.967093 83.180512 
L 677.502945 83.104137 
L 678.038796 82.722261 
L 678.574648 82.607698 
L 679.646351 81.958509 
L 681.253905 81.156569 
L 682.325608 80.736506 
L 682.86146 80.469192 
L 684.469014 80.087316 
L 687.148271 79.209001 
L 687.684123 79.094439 
L 689.827529 78.063373 
L 690.899232 77.566934 
L 691.970935 77.299621 
L 695.721895 75.542991 
L 698.401152 74.588301 
L 700.008707 73.633611 
L 700.544558 73.519048 
L 701.616261 72.984422 
L 702.687964 72.602546 
L 703.223816 72.144295 
L 703.759667 71.838794 
L 705.367222 71.342355 
L 706.438924 70.61679 
L 706.974776 70.578603 
L 708.046479 70.273102 
L 708.58233 70.158539 
L 710.725736 69.356599 
L 712.333291 68.860161 
L 712.869142 68.783785 
L 713.940845 68.210971 
L 714.476697 68.020033 
L 715.012548 67.59997 
L 716.620102 67.179906 
L 717.155954 66.874405 
L 718.227657 66.607092 
L 719.835211 65.728777 
L 720.371063 65.690589 
L 721.978617 65.194151 
L 723.05032 65.079588 
L 724.122023 64.659524 
L 727.337132 63.743022 
L 728.408835 63.704834 
L 731.623944 62.673769 
L 732.159795 62.597394 
L 733.76735 61.757266 
L 734.303201 61.299015 
L 734.839052 61.031702 
L 736.446607 59.847886 
L 738.054161 59.160509 
L 739.125864 58.855008 
L 739.661716 58.549508 
L 740.197567 58.434945 
L 740.733419 58.014881 
L 742.340973 57.289317 
L 742.876825 57.174754 
L 743.948528 56.678315 
L 744.484379 56.563752 
L 745.556082 56.220064 
L 746.627785 55.8 
L 747.163636 55.8 
L 747.163636 55.8 
" clip-path="url(#p28ce59b66d)" style="fill: none; stroke: #1f77b4; stroke-width: 1.5; stroke-linecap: square"/>
   </g>
   <g id="line2d_40">
    <path d="M 138.972215 307.8 
L 140.57977 307.723625 
L 142.187324 307.685437 
L 145.402433 307.609062 
L 148.08169 307.494499 
L 150.225096 307.494499 
L 150.760948 307.341749 
L 152.904353 307.265374 
L 154.511908 307.074436 
L 156.119462 306.921685 
L 159.334571 306.768935 
L 159.870423 306.768935 
L 160.406274 306.654372 
L 162.54968 306.577997 
L 163.621383 306.501621 
L 167.908195 306.425246 
L 170.587452 306.310683 
L 177.01767 306.234308 
L 179.696927 306.119745 
L 182.912036 306.04337 
L 185.055442 305.966995 
L 189.878105 305.89062 
L 191.485659 305.852432 
L 193.093214 305.814245 
L 194.700768 305.623307 
L 197.915877 305.585119 
L 198.98758 305.508744 
L 202.73854 305.432369 
L 208.632907 305.08868 
L 212.383867 305.012305 
L 213.45557 304.93593 
L 215.063124 304.859554 
L 218.278233 304.706804 
L 220.421639 304.668616 
L 222.029193 304.515866 
L 228.995262 304.095802 
L 231.67452 304.019427 
L 236.497183 303.752114 
L 238.104738 303.675739 
L 243.463252 303.370238 
L 249.357618 303.293863 
L 251.501024 303.064737 
L 252.572727 302.988362 
L 259.538796 302.415548 
L 262.753905 301.995484 
L 264.897311 301.919109 
L 269.184123 301.346295 
L 272.399232 301.26992 
L 274.006786 301.117169 
L 275.078489 301.078982 
L 276.150192 300.964419 
L 277.757746 300.888044 
L 278.829449 300.735293 
L 281.508707 300.429792 
L 283.652113 300.353417 
L 284.723816 300.277042 
L 286.867222 300.200667 
L 287.938924 300.124292 
L 290.618182 299.856978 
L 291.689885 299.66604 
L 293.297439 299.627853 
L 294.369142 299.551477 
L 297.048399 299.475102 
L 304.014469 299.055039 
L 305.622023 298.978663 
L 312.588092 298.5586 
L 316.339052 298.482225 
L 316.874904 298.367662 
L 321.161716 298.291287 
L 324.912676 298.100349 
L 330.807042 298.023973 
L 334.558003 297.833035 
L 338.844814 297.75666 
L 343.131626 297.527534 
L 346.882586 297.451159 
L 357.063764 296.80197 
L 362.422279 296.725595 
L 364.565685 296.496469 
L 366.173239 296.458282 
L 367.780794 296.420094 
L 369.9242 296.190968 
L 375.282714 295.885467 
L 378.497823 295.809092 
L 380.105378 295.770905 
L 381.712932 295.732717 
L 383.320487 295.579967 
L 387.607298 295.503591 
L 388.679001 295.350841 
L 389.750704 295.274466 
L 392.429962 295.159903 
L 393.501665 295.083528 
L 394.573367 295.007153 
L 399.396031 294.930777 
L 400.467734 294.816215 
L 402.61114 294.778027 
L 403.146991 294.663464 
L 404.218694 294.587089 
L 404.754545 294.472526 
L 406.3621 294.396151 
L 411.184763 294.128838 
L 412.256466 294.09065 
L 413.86402 293.9379 
L 415.471575 293.899712 
L 417.079129 293.823337 
L 419.758387 293.708774 
L 427.260307 293.632399 
L 431.011268 293.441461 
L 435.298079 293.365086 
L 437.441485 293.28871 
L 439.584891 293.250523 
L 440.656594 293.13596 
L 442.8 293.059585 
L 448.158515 292.754084 
L 451.373624 292.715896 
L 452.981178 292.563146 
L 454.588732 292.524958 
L 458.339693 292.448583 
L 460.483099 292.372208 
L 466.913316 292.295833 
L 469.592574 292.18127 
L 472.807682 292.104895 
L 474.415237 291.913957 
L 477.630346 291.875769 
L 479.2379 291.723019 
L 481.381306 291.646643 
L 487.811524 291.570268 
L 490.490781 291.455705 
L 499.600256 291.417518 
L 500.671959 291.341143 
L 502.279513 291.302955 
L 509.245583 291.22658 
L 510.317286 291.150205 
L 516.211652 291.073829 
L 518.355058 290.997454 
L 528.536236 290.921079 
L 530.14379 290.882891 
L 534.966453 290.806516 
L 536.038156 290.730141 
L 548.898592 290.653766 
L 550.506146 290.615578 
L 564.974136 290.539203 
L 566.58169 290.501015 
L 576.227017 290.42464 
L 577.29872 290.348265 
L 579.977977 290.27189 
L 581.585531 290.119139 
L 584.264789 290.042764 
L 587.479898 289.890014 
L 591.766709 289.813638 
L 592.838412 289.737263 
L 597.125224 289.660888 
L 600.340333 289.508138 
L 603.01959 289.431762 
L 607.306402 289.202637 
L 610.521511 289.126262 
L 612.664917 289.049886 
L 619.630986 288.973511 
L 621.774392 288.897136 
L 626.061204 288.820761 
L 629.812164 288.629823 
L 634.634827 288.553447 
L 635.70653 288.477072 
L 645.351857 288.400697 
L 646.959411 288.362509 
L 649.638668 288.324322 
L 651.782074 288.095196 
L 653.389629 288.057009 
L 656.604738 287.980633 
L 661.963252 287.675133 
L 664.64251 287.598757 
L 666.785915 287.522382 
L 672.680282 287.446007 
L 675.359539 287.140506 
L 677.502945 287.064131 
L 681.253905 286.987756 
L 681.789757 286.873193 
L 686.61242 286.796818 
L 689.291677 286.682255 
L 696.257746 286.644067 
L 696.793598 286.529504 
L 701.08041 286.453129 
L 702.687964 286.414942 
L 705.367222 286.338566 
L 706.974776 286.300379 
L 716.084251 286.224004 
L 718.763508 286.109441 
L 726.265429 286.033066 
L 728.408835 285.95669 
L 734.303201 285.880315 
L 734.839052 285.765752 
L 740.197567 285.727565 
L 741.26927 285.65119 
L 743.948528 285.574814 
L 745.556082 285.536627 
L 747.163636 285.536627 
L 747.163636 285.536627 
" clip-path="url(#p28ce59b66d)" style="fill: none; stroke: #ff7f0e; stroke-width: 1.5; stroke-linecap: square"/>
   </g>
   <g id="patch_3">
    <path d="M 108 320.4 
L 108 43.2 
" style="fill: none; stroke: #a9a9a9; stroke-width: 0.8; stroke-linejoin: miter; stroke-linecap: square"/>
   </g>
   <g id="patch_4">
    <path d="M 777.6 320.4 
L 777.6 43.2 
" style="fill: none"/>
   </g>
   <g id="patch_5">
    <path d="M 108 320.4 
L 777.6 320.4 
" style="fill: none; stroke: #a9a9a9; stroke-width: 0.8; stroke-linejoin: miter; stroke-linecap: square"/>
   </g>
   <g id="patch_6">
    <path d="M 108 43.2 
L 777.6 43.2 
" style="fill: none"/>
   </g>
   <g id="text_20">
    <!-- get_subscribe history -->
    <g style="fill: #a9a9a9" transform="translate(378.6075 37.2) scale(0.12 -0.12)">
     <defs>
      <path id="DejaVuSans-67" d="M 2906 1791 
Q 2906 2416 2648 2759 
Q 2391 3103 1925 3103 
Q 1463 3103 1205 2759 
Q 947 2416 947 1791 
Q 947 1169 1205 825 
Q 1463 481 1925 481 
Q 2391 481 2648 825 
Q 2906 1169 2906 1791 
z
M 3481 434 
Q 3481 -459 3084 -895 
Q 2688 -1331 1869 -1331 
Q 1566 -1331 1297 -1286 
Q 1028 -1241 775 -1147 
L 775 -588 
Q 1028 -725 1275 -790 
Q 1522 -856 1778 -856 
Q 2344 -856 2625 -561 
Q 2906 -266 2906 331 
L 2906 616 
Q 2728 306 2450 153 
Q 2172 0 1784 0 
Q 1141 0 747 490 
Q 353 981 353 1791 
Q 353 2603 747 3093 
Q 1141 3584 1784 3584 
Q 2172 3584 2450 3431 
Q 2728 3278 2906 2969 
L 2906 3500 
L 3481 3500 
L 3481 434 
z
" transform="scale(0.015625)"/>
      <path id="DejaVuSans-65" d="M 3597 1894 
L 3597 1613 
L 953 1613 
Q 991 1019 1311 708 
Q 1631 397 2203 397 
Q 2534 397 2845 478 
Q 3156 559 3463 722 
L 3463 178 
Q 3153 47 2828 -22 
Q 2503 -91 2169 -91 
Q 1331 -91 842 396 
Q 353 884 353 1716 
Q 353 2575 817 3079 
Q 1281 3584 2069 3584 
Q 2775 3584 3186 3129 
Q 3597 2675 3597 1894 
z
M 3022 2063 
Q 3016 2534 2758 2815 
Q 2500 3097 2075 3097 
Q 1594 3097 1305 2825 
Q 1016 2553 972 2059 
L 3022 2063 
z
" transform="scale(0.015625)"/>
      <path id="DejaVuSans-74" d="M 1172 4494 
L 1172 3500 
L 2356 3500 
L 2356 3053 
L 1172 3053 
L 1172 1153 
Q 1172 725 1289 603 
Q 1406 481 1766 481 
L 2356 481 
L 2356 0 
L 1766 0 
Q 1100 0 847 248 
Q 594 497 594 1153 
L 594 3053 
L 172 3053 
L 172 3500 
L 594 3500 
L 594 4494 
L 1172 4494 
z
" transform="scale(0.015625)"/>
      <path id="DejaVuSans-5f" d="M 3263 -1063 
L 3263 -1509 
L -63 -1509 
L -63 -1063 
L 3263 -1063 
z
" transform="scale(0.015625)"/>
      <path id="DejaVuSans-73" d="M 2834 3397 
L 2834 2853 
Q 2591 2978 2328 3040 
Q 2066 3103 1784 3103 
Q 1356 3103 1142 2972 
Q 928 2841 928 2578 
Q 928 2378 1081 2264 
Q 1234 2150 1697 2047 
L 1894 2003 
Q 2506 1872 2764 1633 
Q 3022 1394 3022 966 
Q 3022 478 2636 193 
Q 2250 -91 1575 -91 
Q 1294 -91 989 -36 
Q 684 19 347 128 
L 347 722 
Q 666 556 975 473 
Q 1284 391 1588 391 
Q 1994 391 2212 530 
Q 2431 669 2431 922 
Q 2431 1156 2273 1281 
Q 2116 1406 1581 1522 
L 1381 1569 
Q 847 1681 609 1914 
Q 372 2147 372 2553 
Q 372 3047 722 3315 
Q 1072 3584 1716 3584 
Q 2034 3584 2315 3537 
Q 2597 3491 2834 3397 
z
" transform="scale(0.015625)"/>
      <path id="DejaVuSans-75" d="M 544 1381 
L 544 3500 
L 1119 3500 
L 1119 1403 
Q 1119 906 1312 657 
Q 1506 409 1894 409 
Q 2359 409 2629 706 
Q 2900 1003 2900 1516 
L 2900 3500 
L 3475 3500 
L 3475 0 
L 2900 0 
L 2900 538 
Q 2691 219 2414 64 
Q 2138 -91 1772 -91 
Q 1169 -91 856 284 
Q 544 659 544 1381 
z
M 1991 3584 
L 1991 3584 
z
" transform="scale(0.015625)"/>
      <path id="DejaVuSans-62" d="M 3116 1747 
Q 3116 2381 2855 2742 
Q 2594 3103 2138 3103 
Q 1681 3103 1420 2742 
Q 1159 2381 1159 1747 
Q 1159 1113 1420 752 
Q 1681 391 2138 391 
Q 2594 391 2855 752 
Q 3116 1113 3116 1747 
z
M 1159 2969 
Q 1341 3281 1617 3432 
Q 1894 3584 2278 3584 
Q 2916 3584 3314 3078 
Q 3713 2572 3713 1747 
Q 3713 922 3314 415 
Q 2916 -91 2278 -91 
Q 1894 -91 1617 61 
Q 1341 213 1159 525 
L 1159 0 
L 581 0 
L 581 4863 
L 1159 4863 
L 1159 2969 
z
" transform="scale(0.015625)"/>
      <path id="DejaVuSans-63" d="M 3122 3366 
L 3122 2828 
Q 2878 2963 2633 3030 
Q 2388 3097 2138 3097 
Q 1578 3097 1268 2742 
Q 959 2388 959 1747 
Q 959 1106 1268 751 
Q 1578 397 2138 397 
Q 2388 397 2633 464 
Q 2878 531 3122 666 
L 3122 134 
Q 2881 22 2623 -34 
Q 2366 -91 2075 -91 
Q 1284 -91 818 406 
Q 353 903 353 1747 
Q 353 2603 823 3093 
Q 1294 3584 2113 3584 
Q 2378 3584 2631 3529 
Q 2884 3475 3122 3366 
z
" transform="scale(0.015625)"/>
      <path id="DejaVuSans-72" d="M 2631 2963 
Q 2534 3019 2420 3045 
Q 2306 3072 2169 3072 
Q 1681 3072 1420 2755 
Q 1159 2438 1159 1844 
L 1159 0 
L 581 0 
L 581 3500 
L 1159 3500 
L 1159 2956 
Q 1341 3275 1631 3429 
Q 1922 3584 2338 3584 
Q 2397 3584 2469 3576 
Q 2541 3569 2628 3553 
L 2631 2963 
z
" transform="scale(0.015625)"/>
      <path id="DejaVuSans-69" d="M 603 3500 
L 1178 3500 
L 1178 0 
L 603 0 
L 603 3500 
z
M 603 4863 
L 1178 4863 
L 1178 4134 
L 603 4134 
L 603 4863 
z
" transform="scale(0.015625)"/>
      <path id="DejaVuSans-20" transform="scale(0.015625)"/>
      <path id="DejaVuSans-68" d="M 3513 2113 
L 3513 0 
L 2938 0 
L 2938 2094 
Q 2938 2591 2744 2837 
Q 2550 3084 2163 3084 
Q 1697 3084 1428 2787 
Q 1159 2491 1159 1978 
L 1159 0 
L 581 0 
L 581 4863 
L 1159 4863 
L 1159 2956 
Q 1366 3272 1645 3428 
Q 1925 3584 2291 3584 
Q 2894 3584 3203 3211 
Q 3513 2838 3513 2113 
z
" transform="scale(0.015625)"/>
      <path id="DejaVuSans-6f" d="M 1959 3097 
Q 1497 3097 1228 2736 
Q 959 2375 959 1747 
Q 959 1119 1226 758 
Q 1494 397 1959 397 
Q 2419 397 2687 759 
Q 2956 1122 2956 1747 
Q 2956 2369 2687 2733 
Q 2419 3097 1959 3097 
z
M 1959 3584 
Q 2709 3584 3137 3096 
Q 3566 2609 3566 1747 
Q 3566 888 3137 398 
Q 2709 -91 1959 -91 
Q 1206 -91 779 398 
Q 353 888 353 1747 
Q 353 2609 779 3096 
Q 1206 3584 1959 3584 
z
" transform="scale(0.015625)"/>
      <path id="DejaVuSans-79" d="M 2059 -325 
Q 1816 -950 1584 -1140 
Q 1353 -1331 966 -1331 
L 506 -1331 
L 506 -850 
L 844 -850 
Q 1081 -850 1212 -737 
Q 1344 -625 1503 -206 
L 1606 56 
L 191 3500 
L 800 3500 
L 1894 763 
L 2988 3500 
L 3597 3500 
L 2059 -325 
z
" transform="scale(0.015625)"/>
     </defs>
     <use xlink:href="#DejaVuSans-67"/>
     <use xlink:href="#DejaVuSans-65" x="63.476562"/>
     <use xlink:href="#DejaVuSans-74" x="125"/>
     <use xlink:href="#DejaVuSans-5f" x="164.208984"/>
     <use xlink:href="#DejaVuSans-73" x="214.208984"/>
     <use xlink:href="#DejaVuSans-75" x="266.308594"/>
     <use xlink:href="#DejaVuSans-62" x="329.6875"/>
     <use xlink:href="#DejaVuSans-73" x="393.164062"/>
     <use xlink:href="#DejaVuSans-63" x="445.263672"/>
     <use xlink:href="#DejaVuSans-72" x="500.244141"/>
     <use xlink:href="#DejaVuSans-69" x="541.357422"/>
     <use xlink:href="#DejaVuSans-62" x="569.140625"/>
     <use xlink:href="#DejaVuSans-65" x="632.617188"/>
     <use xlink:href="#DejaVuSans-20" x="694.140625"/>
     <use xlink:href="#DejaVuSans-68" x="725.927734"/>
     <use xlink:href="#DejaVuSans-69" x="789.306641"/>
     <use xlink:href="#DejaVuSans-73" x="817.089844"/>
     <use xlink:href="#DejaVuSans-74" x="869.189453"/>
     <use xlink:href="#DejaVuSans-6f" x="908.398438"/>
     <use xlink:href="#DejaVuSans-72" x="969.580078"/>
     <use xlink:href="#DejaVuSans-79" x="1010.693359"/>
    </g>
   </g>
   <g id="legend_1">
    <g id="line2d_41">
     <path d="M 815.08 328.498438 
L 825.08 328.498438 
L 835.08 328.498438 
" style="fill: none; stroke: #1f77b4; stroke-width: 1.5; stroke-linecap: square"/>
    </g>
    <g id="text_21">
     <!-- star -->
     <g style="fill: #a9a9a9" transform="translate(843.08 331.998438) scale(0.1 -0.1)">
      <defs>
       <path id="DejaVuSans-61" d="M 2194 1759 
Q 1497 1759 1228 1600 
Q 959 1441 959 1056 
Q 959 750 1161 570 
Q 1363 391 1709 391 
Q 2188 391 2477 730 
Q 2766 1069 2766 1631 
L 2766 1759 
L 2194 1759 
z
M 3341 1997 
L 3341 0 
L 2766 0 
L 2766 531 
Q 2569 213 2275 61 
Q 1981 -91 1556 -91 
Q 1019 -91 701 211 
Q 384 513 384 1019 
Q 384 1609 779 1909 
Q 1175 2209 1959 2209 
L 2766 2209 
L 2766 2266 
Q 2766 2663 2505 2880 
Q 2244 3097 1772 3097 
Q 1472 3097 1187 3025 
Q 903 2953 641 2809 
L 641 3341 
Q 956 3463 1253 3523 
Q 1550 3584 1831 3584 
Q 2591 3584 2966 3190 
Q 3341 2797 3341 1997 
z
" transform="scale(0.015625)"/>
      </defs>
      <use xlink:href="#DejaVuSans-73"/>
      <use xlink:href="#DejaVuSans-74" x="52.099609"/>
      <use xlink:href="#DejaVuSans-61" x="91.308594"/>
      <use xlink:href="#DejaVuSans-72" x="152.587891"/>
     </g>
    </g>
    <g id="line2d_42">
     <path d="M 815.08 343.176562 
L 825.08 343.176562 
L 835.08 343.176562 
" style="fill: none; stroke: #ff7f0e; stroke-width: 1.5; stroke-linecap: square"/>
    </g>
    <g id="text_22">
     <!-- fork -->
     <g style="fill: #a9a9a9" transform="translate(843.08 346.676562) scale(0.1 -0.1)">
      <defs>
       <path id="DejaVuSans-66" d="M 2375 4863 
L 2375 4384 
L 1825 4384 
Q 1516 4384 1395 4259 
Q 1275 4134 1275 3809 
L 1275 3500 
L 2222 3500 
L 2222 3053 
L 1275 3053 
L 1275 0 
L 697 0 
L 697 3053 
L 147 3053 
L 147 3500 
L 697 3500 
L 697 3744 
Q 697 4328 969 4595 
Q 1241 4863 1831 4863 
L 2375 4863 
z
" transform="scale(0.015625)"/>
       <path id="DejaVuSans-6b" d="M 581 4863 
L 1159 4863 
L 1159 1991 
L 2875 3500 
L 3609 3500 
L 1753 1863 
L 3688 0 
L 2938 0 
L 1159 1709 
L 1159 0 
L 581 0 
L 581 4863 
z
" transform="scale(0.015625)"/>
      </defs>
      <use xlink:href="#DejaVuSans-66"/>
      <use xlink:href="#DejaVuSans-6f" x="35.205078"/>
      <use xlink:href="#DejaVuSans-72" x="96.386719"/>
      <use xlink:href="#DejaVuSans-6b" x="137.5"/>
     </g>
    </g>
   </g>
  </g>
 </g>
 <defs>
  <clipPath id="p28ce59b66d">
   <rect x="108" y="43.2" width="669.6" height="277.2"/>
  </clipPath>
 </defs>
</svg>
